<?xml version="1.0" encoding="utf-8" standalone="no"?>
<!DOCTYPE svg PUBLIC "-//W3C//DTD SVG 1.1//EN"
  "http://www.w3.org/Graphics/SVG/1.1/DTD/svg11.dtd">
<!-- Created with matplotlib (https://matplotlib.org/) -->
<svg height="720pt" version="1.1" viewBox="0 0 1296 720" width="1310pt" xmlns="http://www.w3.org/2000/svg" xmlns:xlink="http://www.w3.org/1999/xlink">
 <defs>
  <style type="text/css">
*{stroke-linecap:butt;stroke-linejoin:round;}
  </style>
 </defs>
 <g id="figure_1">
  <g id="patch_1">
   <path d="M 0 720 
L 1296 720 
L 1296 0 
L 0 0 
z
" style="fill:#ffffff;"/>
  </g>
  <g id="axes_1">
   <g id="patch_2">
    <path d="M 60.73 320.84 
L 344.434219 320.84 
L 344.434219 41.28 
L 60.73 41.28 
z
" style="fill:#ffffff;"/>
   </g>
   <g id="patch_3">
    <path clip-path="url(#p2ca3e960af)" d="M 66.404084 320.84 
L 111.796759 320.84 
L 111.796759 180.992766 
L 66.404084 180.992766 
z
" style="fill:#72b6a1;"/>
   </g>
   <g id="patch_4">
    <path clip-path="url(#p2ca3e960af)" d="M 123.144928 320.84 
L 168.537603 320.84 
L 168.537603 308.737835 
L 123.144928 308.737835 
z
" style="fill:#e99675;"/>
   </g>
   <g id="patch_5">
    <path clip-path="url(#p2ca3e960af)" d="z
" style="fill:#95a3c3;"/>
   </g>
   <g id="patch_6">
    <path clip-path="url(#p2ca3e960af)" d="z
" style="fill:#db96c0;"/>
   </g>
   <g id="patch_7">
    <path clip-path="url(#p2ca3e960af)" d="z
" style="fill:#a2c865;"/>
   </g>
   <g id="matplotlib.axis_1">
    <g id="xtick_1">
     <g id="line2d_1">
      <defs>
       <path d="M 0 0 
L 0 3.5 
" id="mc301e3ac18" style="stroke:#000000;stroke-width:0.8;"/>
      </defs>
      <g>
       <use style="stroke:#000000;stroke-width:0.8;" x="89.100422" xlink:href="#mc301e3ac18" y="320.84"/>
      </g>
     </g>
     <g id="text_1">
      <!-- RL -->
      <defs>
       <path d="M 44.390625 34.1875 
Q 47.5625 33.109375 50.5625 29.59375 
Q 53.5625 26.078125 56.59375 19.921875 
L 66.609375 0 
L 56 0 
L 46.6875 18.703125 
Q 43.0625 26.03125 39.671875 28.421875 
Q 36.28125 30.8125 30.421875 30.8125 
L 19.671875 30.8125 
L 19.671875 0 
L 9.8125 0 
L 9.8125 72.90625 
L 32.078125 72.90625 
Q 44.578125 72.90625 50.734375 67.671875 
Q 56.890625 62.453125 56.890625 51.90625 
Q 56.890625 45.015625 53.6875 40.46875 
Q 50.484375 35.9375 44.390625 34.1875 
z
M 19.671875 64.796875 
L 19.671875 38.921875 
L 32.078125 38.921875 
Q 39.203125 38.921875 42.84375 42.21875 
Q 46.484375 45.515625 46.484375 51.90625 
Q 46.484375 58.296875 42.84375 61.546875 
Q 39.203125 64.796875 32.078125 64.796875 
z
" id="DejaVuSans-82"/>
       <path d="M 9.8125 72.90625 
L 19.671875 72.90625 
L 19.671875 8.296875 
L 55.171875 8.296875 
L 55.171875 0 
L 9.8125 0 
z
" id="DejaVuSans-76"/>
      </defs>
      <g transform="translate(77.832141 341.517188)scale(0.18 -0.18)">
       <use xlink:href="#DejaVuSans-82"/>
       <use x="69.482422" xlink:href="#DejaVuSans-76"/>
      </g>
     </g>
    </g>
    <g id="xtick_2">
     <g id="line2d_2">
      <g>
       <use style="stroke:#000000;stroke-width:0.8;" x="145.841266" xlink:href="#mc301e3ac18" y="320.84"/>
      </g>
     </g>
     <g id="text_2">
      <!-- RM -->
      <defs>
       <path d="M 9.8125 72.90625 
L 24.515625 72.90625 
L 43.109375 23.296875 
L 61.8125 72.90625 
L 76.515625 72.90625 
L 76.515625 0 
L 66.890625 0 
L 66.890625 64.015625 
L 48.09375 14.015625 
L 38.1875 14.015625 
L 19.390625 64.015625 
L 19.390625 0 
L 9.8125 0 
z
" id="DejaVuSans-77"/>
      </defs>
      <g transform="translate(131.822359 341.517188)scale(0.18 -0.18)">
       <use xlink:href="#DejaVuSans-82"/>
       <use x="69.482422" xlink:href="#DejaVuSans-77"/>
      </g>
     </g>
    </g>
    <g id="xtick_3">
     <g id="line2d_3">
      <g>
       <use style="stroke:#000000;stroke-width:0.8;" x="202.582109" xlink:href="#mc301e3ac18" y="320.84"/>
      </g>
     </g>
     <g id="text_3">
      <!-- C (all) -->
      <defs>
       <path d="M 64.40625 67.28125 
L 64.40625 56.890625 
Q 59.421875 61.53125 53.78125 63.8125 
Q 48.140625 66.109375 41.796875 66.109375 
Q 29.296875 66.109375 22.65625 58.46875 
Q 16.015625 50.828125 16.015625 36.375 
Q 16.015625 21.96875 22.65625 14.328125 
Q 29.296875 6.6875 41.796875 6.6875 
Q 48.140625 6.6875 53.78125 8.984375 
Q 59.421875 11.28125 64.40625 15.921875 
L 64.40625 5.609375 
Q 59.234375 2.09375 53.4375 0.328125 
Q 47.65625 -1.421875 41.21875 -1.421875 
Q 24.65625 -1.421875 15.125 8.703125 
Q 5.609375 18.84375 5.609375 36.375 
Q 5.609375 53.953125 15.125 64.078125 
Q 24.65625 74.21875 41.21875 74.21875 
Q 47.75 74.21875 53.53125 72.484375 
Q 59.328125 70.75 64.40625 67.28125 
z
" id="DejaVuSans-67"/>
       <path id="DejaVuSans-32"/>
       <path d="M 31 75.875 
Q 24.46875 64.65625 21.28125 53.65625 
Q 18.109375 42.671875 18.109375 31.390625 
Q 18.109375 20.125 21.3125 9.0625 
Q 24.515625 -2 31 -13.1875 
L 23.1875 -13.1875 
Q 15.875 -1.703125 12.234375 9.375 
Q 8.59375 20.453125 8.59375 31.390625 
Q 8.59375 42.28125 12.203125 53.3125 
Q 15.828125 64.359375 23.1875 75.875 
z
" id="DejaVuSans-40"/>
       <path d="M 34.28125 27.484375 
Q 23.390625 27.484375 19.1875 25 
Q 14.984375 22.515625 14.984375 16.5 
Q 14.984375 11.71875 18.140625 8.90625 
Q 21.296875 6.109375 26.703125 6.109375 
Q 34.1875 6.109375 38.703125 11.40625 
Q 43.21875 16.703125 43.21875 25.484375 
L 43.21875 27.484375 
z
M 52.203125 31.203125 
L 52.203125 0 
L 43.21875 0 
L 43.21875 8.296875 
Q 40.140625 3.328125 35.546875 0.953125 
Q 30.953125 -1.421875 24.3125 -1.421875 
Q 15.921875 -1.421875 10.953125 3.296875 
Q 6 8.015625 6 15.921875 
Q 6 25.140625 12.171875 29.828125 
Q 18.359375 34.515625 30.609375 34.515625 
L 43.21875 34.515625 
L 43.21875 35.40625 
Q 43.21875 41.609375 39.140625 45 
Q 35.0625 48.390625 27.6875 48.390625 
Q 23 48.390625 18.546875 47.265625 
Q 14.109375 46.140625 10.015625 43.890625 
L 10.015625 52.203125 
Q 14.9375 54.109375 19.578125 55.046875 
Q 24.21875 56 28.609375 56 
Q 40.484375 56 46.34375 49.84375 
Q 52.203125 43.703125 52.203125 31.203125 
z
" id="DejaVuSans-97"/>
       <path d="M 9.421875 75.984375 
L 18.40625 75.984375 
L 18.40625 0 
L 9.421875 0 
z
" id="DejaVuSans-108"/>
       <path d="M 8.015625 75.875 
L 15.828125 75.875 
Q 23.140625 64.359375 26.78125 53.3125 
Q 30.421875 42.28125 30.421875 31.390625 
Q 30.421875 20.453125 26.78125 9.375 
Q 23.140625 -1.703125 15.828125 -13.1875 
L 8.015625 -13.1875 
Q 14.5 -2 17.703125 9.0625 
Q 20.90625 20.125 20.90625 31.390625 
Q 20.90625 42.671875 17.703125 53.65625 
Q 14.5 64.65625 8.015625 75.875 
z
" id="DejaVuSans-41"/>
      </defs>
      <g transform="translate(175.898516 341.517188)scale(0.18 -0.18)">
       <use xlink:href="#DejaVuSans-67"/>
       <use x="69.824219" xlink:href="#DejaVuSans-32"/>
       <use x="101.611328" xlink:href="#DejaVuSans-40"/>
       <use x="140.625" xlink:href="#DejaVuSans-97"/>
       <use x="201.904297" xlink:href="#DejaVuSans-108"/>
       <use x="229.6875" xlink:href="#DejaVuSans-108"/>
       <use x="257.470703" xlink:href="#DejaVuSans-41"/>
      </g>
     </g>
    </g>
    <g id="xtick_4">
     <g id="line2d_4">
      <g>
       <use style="stroke:#000000;stroke-width:0.8;" x="259.322953" xlink:href="#mc301e3ac18" y="320.84"/>
      </g>
     </g>
     <g id="text_4">
      <!-- FV -->
      <defs>
       <path d="M 9.8125 72.90625 
L 51.703125 72.90625 
L 51.703125 64.59375 
L 19.671875 64.59375 
L 19.671875 43.109375 
L 48.578125 43.109375 
L 48.578125 34.8125 
L 19.671875 34.8125 
L 19.671875 0 
L 9.8125 0 
z
" id="DejaVuSans-70"/>
       <path d="M 28.609375 0 
L 0.78125 72.90625 
L 11.078125 72.90625 
L 34.1875 11.53125 
L 57.328125 72.90625 
L 67.578125 72.90625 
L 39.796875 0 
z
" id="DejaVuSans-86"/>
      </defs>
      <g transform="translate(247.989984 341.517188)scale(0.18 -0.18)">
       <use xlink:href="#DejaVuSans-70"/>
       <use x="57.519531" xlink:href="#DejaVuSans-86"/>
      </g>
     </g>
    </g>
    <g id="xtick_5">
     <g id="line2d_5">
      <g>
       <use style="stroke:#000000;stroke-width:0.8;" x="316.063797" xlink:href="#mc301e3ac18" y="320.84"/>
      </g>
     </g>
     <g id="text_5">
      <!-- RH -->
      <defs>
       <path d="M 9.8125 72.90625 
L 19.671875 72.90625 
L 19.671875 43.015625 
L 55.515625 43.015625 
L 55.515625 72.90625 
L 65.375 72.90625 
L 65.375 0 
L 55.515625 0 
L 55.515625 34.71875 
L 19.671875 34.71875 
L 19.671875 0 
L 9.8125 0 
z
" id="DejaVuSans-72"/>
      </defs>
      <g transform="translate(303.041922 341.517188)scale(0.18 -0.18)">
       <use xlink:href="#DejaVuSans-82"/>
       <use x="69.482422" xlink:href="#DejaVuSans-72"/>
      </g>
     </g>
    </g>
   </g>
   <g id="matplotlib.axis_2">
    <g id="ytick_1">
     <g id="line2d_6">
      <defs>
       <path d="M 0 0 
L -3.5 0 
" id="m1a8aec11ad" style="stroke:#000000;stroke-width:0.8;"/>
      </defs>
      <g>
       <use style="stroke:#000000;stroke-width:0.8;" x="60.73" xlink:href="#m1a8aec11ad" y="320.84"/>
      </g>
     </g>
     <g id="text_6">
      <!-- 0 -->
      <defs>
       <path d="M 31.78125 66.40625 
Q 24.171875 66.40625 20.328125 58.90625 
Q 16.5 51.421875 16.5 36.375 
Q 16.5 21.390625 20.328125 13.890625 
Q 24.171875 6.390625 31.78125 6.390625 
Q 39.453125 6.390625 43.28125 13.890625 
Q 47.125 21.390625 47.125 36.375 
Q 47.125 51.421875 43.28125 58.90625 
Q 39.453125 66.40625 31.78125 66.40625 
z
M 31.78125 74.21875 
Q 44.046875 74.21875 50.515625 64.515625 
Q 56.984375 54.828125 56.984375 36.375 
Q 56.984375 17.96875 50.515625 8.265625 
Q 44.046875 -1.421875 31.78125 -1.421875 
Q 19.53125 -1.421875 13.0625 8.265625 
Q 6.59375 17.96875 6.59375 36.375 
Q 6.59375 54.828125 13.0625 64.515625 
Q 19.53125 74.21875 31.78125 74.21875 
z
" id="DejaVuSans-48"/>
      </defs>
      <g transform="translate(42.2775 327.678594)scale(0.18 -0.18)">
       <use xlink:href="#DejaVuSans-48"/>
      </g>
     </g>
    </g>
    <g id="ytick_2">
     <g id="line2d_7">
      <g>
       <use style="stroke:#000000;stroke-width:0.8;" x="60.73" xlink:href="#m1a8aec11ad" y="253.605753"/>
      </g>
     </g>
     <g id="text_7">
      <!-- 50 -->
      <defs>
       <path d="M 10.796875 72.90625 
L 49.515625 72.90625 
L 49.515625 64.59375 
L 19.828125 64.59375 
L 19.828125 46.734375 
Q 21.96875 47.46875 24.109375 47.828125 
Q 26.265625 48.1875 28.421875 48.1875 
Q 40.625 48.1875 47.75 41.5 
Q 54.890625 34.8125 54.890625 23.390625 
Q 54.890625 11.625 47.5625 5.09375 
Q 40.234375 -1.421875 26.90625 -1.421875 
Q 22.3125 -1.421875 17.546875 -0.640625 
Q 12.796875 0.140625 7.71875 1.703125 
L 7.71875 11.625 
Q 12.109375 9.234375 16.796875 8.0625 
Q 21.484375 6.890625 26.703125 6.890625 
Q 35.15625 6.890625 40.078125 11.328125 
Q 45.015625 15.765625 45.015625 23.390625 
Q 45.015625 31 40.078125 35.4375 
Q 35.15625 39.890625 26.703125 39.890625 
Q 22.75 39.890625 18.8125 39.015625 
Q 14.890625 38.140625 10.796875 36.28125 
z
" id="DejaVuSans-53"/>
      </defs>
      <g transform="translate(30.825 260.444347)scale(0.18 -0.18)">
       <use xlink:href="#DejaVuSans-53"/>
       <use x="63.623047" xlink:href="#DejaVuSans-48"/>
      </g>
     </g>
    </g>
    <g id="ytick_3">
     <g id="line2d_8">
      <g>
       <use style="stroke:#000000;stroke-width:0.8;" x="60.73" xlink:href="#m1a8aec11ad" y="186.371506"/>
      </g>
     </g>
     <g id="text_8">
      <!-- 100 -->
      <defs>
       <path d="M 12.40625 8.296875 
L 28.515625 8.296875 
L 28.515625 63.921875 
L 10.984375 60.40625 
L 10.984375 69.390625 
L 28.421875 72.90625 
L 38.28125 72.90625 
L 38.28125 8.296875 
L 54.390625 8.296875 
L 54.390625 0 
L 12.40625 0 
z
" id="DejaVuSans-49"/>
      </defs>
      <g transform="translate(19.3725 193.210099)scale(0.18 -0.18)">
       <use xlink:href="#DejaVuSans-49"/>
       <use x="63.623047" xlink:href="#DejaVuSans-48"/>
       <use x="127.246094" xlink:href="#DejaVuSans-48"/>
      </g>
     </g>
    </g>
    <g id="ytick_4">
     <g id="line2d_9">
      <g>
       <use style="stroke:#000000;stroke-width:0.8;" x="60.73" xlink:href="#m1a8aec11ad" y="119.137258"/>
      </g>
     </g>
     <g id="text_9">
      <!-- 150 -->
      <g transform="translate(19.3725 125.975852)scale(0.18 -0.18)">
       <use xlink:href="#DejaVuSans-49"/>
       <use x="63.623047" xlink:href="#DejaVuSans-53"/>
       <use x="127.246094" xlink:href="#DejaVuSans-48"/>
      </g>
     </g>
    </g>
    <g id="ytick_5">
     <g id="line2d_10">
      <g>
       <use style="stroke:#000000;stroke-width:0.8;" x="60.73" xlink:href="#m1a8aec11ad" y="51.903011"/>
      </g>
     </g>
     <g id="text_10">
      <!-- 200 -->
      <defs>
       <path d="M 19.1875 8.296875 
L 53.609375 8.296875 
L 53.609375 0 
L 7.328125 0 
L 7.328125 8.296875 
Q 12.9375 14.109375 22.625 23.890625 
Q 32.328125 33.6875 34.8125 36.53125 
Q 39.546875 41.84375 41.421875 45.53125 
Q 43.3125 49.21875 43.3125 52.78125 
Q 43.3125 58.59375 39.234375 62.25 
Q 35.15625 65.921875 28.609375 65.921875 
Q 23.96875 65.921875 18.8125 64.3125 
Q 13.671875 62.703125 7.8125 59.421875 
L 7.8125 69.390625 
Q 13.765625 71.78125 18.9375 73 
Q 24.125 74.21875 28.421875 74.21875 
Q 39.75 74.21875 46.484375 68.546875 
Q 53.21875 62.890625 53.21875 53.421875 
Q 53.21875 48.921875 51.53125 44.890625 
Q 49.859375 40.875 45.40625 35.40625 
Q 44.1875 33.984375 37.640625 27.21875 
Q 31.109375 20.453125 19.1875 8.296875 
z
" id="DejaVuSans-50"/>
      </defs>
      <g transform="translate(19.3725 58.741605)scale(0.18 -0.18)">
       <use xlink:href="#DejaVuSans-50"/>
       <use x="63.623047" xlink:href="#DejaVuSans-48"/>
       <use x="127.246094" xlink:href="#DejaVuSans-48"/>
      </g>
     </g>
    </g>
    <g id="text_11">
     <!-- # of Houses -->
     <defs>
      <path d="M 51.125 44 
L 36.921875 44 
L 32.8125 27.6875 
L 47.125 27.6875 
z
M 43.796875 71.78125 
L 38.71875 51.515625 
L 52.984375 51.515625 
L 58.109375 71.78125 
L 65.921875 71.78125 
L 60.890625 51.515625 
L 76.125 51.515625 
L 76.125 44 
L 58.984375 44 
L 54.984375 27.6875 
L 70.515625 27.6875 
L 70.515625 20.21875 
L 53.078125 20.21875 
L 48 0 
L 40.1875 0 
L 45.21875 20.21875 
L 30.90625 20.21875 
L 25.875 0 
L 18.015625 0 
L 23.09375 20.21875 
L 7.71875 20.21875 
L 7.71875 27.6875 
L 24.90625 27.6875 
L 29 44 
L 13.28125 44 
L 13.28125 51.515625 
L 30.90625 51.515625 
L 35.890625 71.78125 
z
" id="DejaVuSans-35"/>
      <path d="M 30.609375 48.390625 
Q 23.390625 48.390625 19.1875 42.75 
Q 14.984375 37.109375 14.984375 27.296875 
Q 14.984375 17.484375 19.15625 11.84375 
Q 23.34375 6.203125 30.609375 6.203125 
Q 37.796875 6.203125 41.984375 11.859375 
Q 46.1875 17.53125 46.1875 27.296875 
Q 46.1875 37.015625 41.984375 42.703125 
Q 37.796875 48.390625 30.609375 48.390625 
z
M 30.609375 56 
Q 42.328125 56 49.015625 48.375 
Q 55.71875 40.765625 55.71875 27.296875 
Q 55.71875 13.875 49.015625 6.21875 
Q 42.328125 -1.421875 30.609375 -1.421875 
Q 18.84375 -1.421875 12.171875 6.21875 
Q 5.515625 13.875 5.515625 27.296875 
Q 5.515625 40.765625 12.171875 48.375 
Q 18.84375 56 30.609375 56 
z
" id="DejaVuSans-111"/>
      <path d="M 37.109375 75.984375 
L 37.109375 68.5 
L 28.515625 68.5 
Q 23.6875 68.5 21.796875 66.546875 
Q 19.921875 64.59375 19.921875 59.515625 
L 19.921875 54.6875 
L 34.71875 54.6875 
L 34.71875 47.703125 
L 19.921875 47.703125 
L 19.921875 0 
L 10.890625 0 
L 10.890625 47.703125 
L 2.296875 47.703125 
L 2.296875 54.6875 
L 10.890625 54.6875 
L 10.890625 58.5 
Q 10.890625 67.625 15.140625 71.796875 
Q 19.390625 75.984375 28.609375 75.984375 
z
" id="DejaVuSans-102"/>
      <path d="M 8.5 21.578125 
L 8.5 54.6875 
L 17.484375 54.6875 
L 17.484375 21.921875 
Q 17.484375 14.15625 20.5 10.265625 
Q 23.53125 6.390625 29.59375 6.390625 
Q 36.859375 6.390625 41.078125 11.03125 
Q 45.3125 15.671875 45.3125 23.6875 
L 45.3125 54.6875 
L 54.296875 54.6875 
L 54.296875 0 
L 45.3125 0 
L 45.3125 8.40625 
Q 42.046875 3.421875 37.71875 1 
Q 33.40625 -1.421875 27.6875 -1.421875 
Q 18.265625 -1.421875 13.375 4.4375 
Q 8.5 10.296875 8.5 21.578125 
z
M 31.109375 56 
z
" id="DejaVuSans-117"/>
      <path d="M 44.28125 53.078125 
L 44.28125 44.578125 
Q 40.484375 46.53125 36.375 47.5 
Q 32.28125 48.484375 27.875 48.484375 
Q 21.1875 48.484375 17.84375 46.4375 
Q 14.5 44.390625 14.5 40.28125 
Q 14.5 37.15625 16.890625 35.375 
Q 19.28125 33.59375 26.515625 31.984375 
L 29.59375 31.296875 
Q 39.15625 29.25 43.1875 25.515625 
Q 47.21875 21.78125 47.21875 15.09375 
Q 47.21875 7.46875 41.1875 3.015625 
Q 35.15625 -1.421875 24.609375 -1.421875 
Q 20.21875 -1.421875 15.453125 -0.5625 
Q 10.6875 0.296875 5.421875 2 
L 5.421875 11.28125 
Q 10.40625 8.6875 15.234375 7.390625 
Q 20.0625 6.109375 24.8125 6.109375 
Q 31.15625 6.109375 34.5625 8.28125 
Q 37.984375 10.453125 37.984375 14.40625 
Q 37.984375 18.0625 35.515625 20.015625 
Q 33.0625 21.96875 24.703125 23.78125 
L 21.578125 24.515625 
Q 13.234375 26.265625 9.515625 29.90625 
Q 5.8125 33.546875 5.8125 39.890625 
Q 5.8125 47.609375 11.28125 51.796875 
Q 16.75 56 26.8125 56 
Q 31.78125 56 36.171875 55.265625 
Q 40.578125 54.546875 44.28125 53.078125 
z
" id="DejaVuSans-115"/>
      <path d="M 56.203125 29.59375 
L 56.203125 25.203125 
L 14.890625 25.203125 
Q 15.484375 15.921875 20.484375 11.0625 
Q 25.484375 6.203125 34.421875 6.203125 
Q 39.59375 6.203125 44.453125 7.46875 
Q 49.3125 8.734375 54.109375 11.28125 
L 54.109375 2.78125 
Q 49.265625 0.734375 44.1875 -0.34375 
Q 39.109375 -1.421875 33.890625 -1.421875 
Q 20.796875 -1.421875 13.15625 6.1875 
Q 5.515625 13.8125 5.515625 26.8125 
Q 5.515625 40.234375 12.765625 48.109375 
Q 20.015625 56 32.328125 56 
Q 43.359375 56 49.78125 48.890625 
Q 56.203125 41.796875 56.203125 29.59375 
z
M 47.21875 32.234375 
Q 47.125 39.59375 43.09375 43.984375 
Q 39.0625 48.390625 32.421875 48.390625 
Q 24.90625 48.390625 20.390625 44.140625 
Q 15.875 39.890625 15.1875 32.171875 
z
" id="DejaVuSans-101"/>
     </defs>
     <g transform="translate(11.213125 241.983437)rotate(-90)scale(0.2 -0.2)">
      <use xlink:href="#DejaVuSans-35"/>
      <use x="83.789062" xlink:href="#DejaVuSans-32"/>
      <use x="115.576172" xlink:href="#DejaVuSans-111"/>
      <use x="176.757812" xlink:href="#DejaVuSans-102"/>
      <use x="211.962891" xlink:href="#DejaVuSans-32"/>
      <use x="243.75" xlink:href="#DejaVuSans-72"/>
      <use x="318.945312" xlink:href="#DejaVuSans-111"/>
      <use x="380.126953" xlink:href="#DejaVuSans-117"/>
      <use x="443.505859" xlink:href="#DejaVuSans-115"/>
      <use x="495.605469" xlink:href="#DejaVuSans-101"/>
      <use x="557.128906" xlink:href="#DejaVuSans-115"/>
     </g>
    </g>
   </g>
   <g id="patch_8">
    <path d="M 60.73 320.84 
L 60.73 41.28 
" style="fill:none;stroke:#000000;stroke-linecap:square;stroke-linejoin:miter;stroke-width:0.8;"/>
   </g>
   <g id="patch_9">
    <path d="M 60.73 320.84 
L 344.434219 320.84 
" style="fill:none;stroke:#000000;stroke-linecap:square;stroke-linejoin:miter;stroke-width:0.8;"/>
   </g>
   <g id="text_12">
    <!-- Neighborhood: Mitchel -->
    <defs>
     <path d="M 9.8125 72.90625 
L 23.09375 72.90625 
L 55.421875 11.921875 
L 55.421875 72.90625 
L 64.984375 72.90625 
L 64.984375 0 
L 51.703125 0 
L 19.390625 60.984375 
L 19.390625 0 
L 9.8125 0 
z
" id="DejaVuSans-78"/>
     <path d="M 9.421875 54.6875 
L 18.40625 54.6875 
L 18.40625 0 
L 9.421875 0 
z
M 9.421875 75.984375 
L 18.40625 75.984375 
L 18.40625 64.59375 
L 9.421875 64.59375 
z
" id="DejaVuSans-105"/>
     <path d="M 45.40625 27.984375 
Q 45.40625 37.75 41.375 43.109375 
Q 37.359375 48.484375 30.078125 48.484375 
Q 22.859375 48.484375 18.828125 43.109375 
Q 14.796875 37.75 14.796875 27.984375 
Q 14.796875 18.265625 18.828125 12.890625 
Q 22.859375 7.515625 30.078125 7.515625 
Q 37.359375 7.515625 41.375 12.890625 
Q 45.40625 18.265625 45.40625 27.984375 
z
M 54.390625 6.78125 
Q 54.390625 -7.171875 48.1875 -13.984375 
Q 42 -20.796875 29.203125 -20.796875 
Q 24.46875 -20.796875 20.265625 -20.09375 
Q 16.0625 -19.390625 12.109375 -17.921875 
L 12.109375 -9.1875 
Q 16.0625 -11.328125 19.921875 -12.34375 
Q 23.78125 -13.375 27.78125 -13.375 
Q 36.625 -13.375 41.015625 -8.765625 
Q 45.40625 -4.15625 45.40625 5.171875 
L 45.40625 9.625 
Q 42.625 4.78125 38.28125 2.390625 
Q 33.9375 0 27.875 0 
Q 17.828125 0 11.671875 7.65625 
Q 5.515625 15.328125 5.515625 27.984375 
Q 5.515625 40.671875 11.671875 48.328125 
Q 17.828125 56 27.875 56 
Q 33.9375 56 38.28125 53.609375 
Q 42.625 51.21875 45.40625 46.390625 
L 45.40625 54.6875 
L 54.390625 54.6875 
z
" id="DejaVuSans-103"/>
     <path d="M 54.890625 33.015625 
L 54.890625 0 
L 45.90625 0 
L 45.90625 32.71875 
Q 45.90625 40.484375 42.875 44.328125 
Q 39.84375 48.1875 33.796875 48.1875 
Q 26.515625 48.1875 22.3125 43.546875 
Q 18.109375 38.921875 18.109375 30.90625 
L 18.109375 0 
L 9.078125 0 
L 9.078125 75.984375 
L 18.109375 75.984375 
L 18.109375 46.1875 
Q 21.34375 51.125 25.703125 53.5625 
Q 30.078125 56 35.796875 56 
Q 45.21875 56 50.046875 50.171875 
Q 54.890625 44.34375 54.890625 33.015625 
z
" id="DejaVuSans-104"/>
     <path d="M 48.6875 27.296875 
Q 48.6875 37.203125 44.609375 42.84375 
Q 40.53125 48.484375 33.40625 48.484375 
Q 26.265625 48.484375 22.1875 42.84375 
Q 18.109375 37.203125 18.109375 27.296875 
Q 18.109375 17.390625 22.1875 11.75 
Q 26.265625 6.109375 33.40625 6.109375 
Q 40.53125 6.109375 44.609375 11.75 
Q 48.6875 17.390625 48.6875 27.296875 
z
M 18.109375 46.390625 
Q 20.953125 51.265625 25.265625 53.625 
Q 29.59375 56 35.59375 56 
Q 45.5625 56 51.78125 48.09375 
Q 58.015625 40.1875 58.015625 27.296875 
Q 58.015625 14.40625 51.78125 6.484375 
Q 45.5625 -1.421875 35.59375 -1.421875 
Q 29.59375 -1.421875 25.265625 0.953125 
Q 20.953125 3.328125 18.109375 8.203125 
L 18.109375 0 
L 9.078125 0 
L 9.078125 75.984375 
L 18.109375 75.984375 
z
" id="DejaVuSans-98"/>
     <path d="M 41.109375 46.296875 
Q 39.59375 47.171875 37.8125 47.578125 
Q 36.03125 48 33.890625 48 
Q 26.265625 48 22.1875 43.046875 
Q 18.109375 38.09375 18.109375 28.8125 
L 18.109375 0 
L 9.078125 0 
L 9.078125 54.6875 
L 18.109375 54.6875 
L 18.109375 46.1875 
Q 20.953125 51.171875 25.484375 53.578125 
Q 30.03125 56 36.53125 56 
Q 37.453125 56 38.578125 55.875 
Q 39.703125 55.765625 41.0625 55.515625 
z
" id="DejaVuSans-114"/>
     <path d="M 45.40625 46.390625 
L 45.40625 75.984375 
L 54.390625 75.984375 
L 54.390625 0 
L 45.40625 0 
L 45.40625 8.203125 
Q 42.578125 3.328125 38.25 0.953125 
Q 33.9375 -1.421875 27.875 -1.421875 
Q 17.96875 -1.421875 11.734375 6.484375 
Q 5.515625 14.40625 5.515625 27.296875 
Q 5.515625 40.1875 11.734375 48.09375 
Q 17.96875 56 27.875 56 
Q 33.9375 56 38.25 53.625 
Q 42.578125 51.265625 45.40625 46.390625 
z
M 14.796875 27.296875 
Q 14.796875 17.390625 18.875 11.75 
Q 22.953125 6.109375 30.078125 6.109375 
Q 37.203125 6.109375 41.296875 11.75 
Q 45.40625 17.390625 45.40625 27.296875 
Q 45.40625 37.203125 41.296875 42.84375 
Q 37.203125 48.484375 30.078125 48.484375 
Q 22.953125 48.484375 18.875 42.84375 
Q 14.796875 37.203125 14.796875 27.296875 
z
" id="DejaVuSans-100"/>
     <path d="M 11.71875 12.40625 
L 22.015625 12.40625 
L 22.015625 0 
L 11.71875 0 
z
M 11.71875 51.703125 
L 22.015625 51.703125 
L 22.015625 39.3125 
L 11.71875 39.3125 
z
" id="DejaVuSans-58"/>
     <path d="M 18.3125 70.21875 
L 18.3125 54.6875 
L 36.8125 54.6875 
L 36.8125 47.703125 
L 18.3125 47.703125 
L 18.3125 18.015625 
Q 18.3125 11.328125 20.140625 9.421875 
Q 21.96875 7.515625 27.59375 7.515625 
L 36.8125 7.515625 
L 36.8125 0 
L 27.59375 0 
Q 17.1875 0 13.234375 3.875 
Q 9.28125 7.765625 9.28125 18.015625 
L 9.28125 47.703125 
L 2.6875 47.703125 
L 2.6875 54.6875 
L 9.28125 54.6875 
L 9.28125 70.21875 
z
" id="DejaVuSans-116"/>
     <path d="M 48.78125 52.59375 
L 48.78125 44.1875 
Q 44.96875 46.296875 41.140625 47.34375 
Q 37.3125 48.390625 33.40625 48.390625 
Q 24.65625 48.390625 19.8125 42.84375 
Q 14.984375 37.3125 14.984375 27.296875 
Q 14.984375 17.28125 19.8125 11.734375 
Q 24.65625 6.203125 33.40625 6.203125 
Q 37.3125 6.203125 41.140625 7.25 
Q 44.96875 8.296875 48.78125 10.40625 
L 48.78125 2.09375 
Q 45.015625 0.34375 40.984375 -0.53125 
Q 36.96875 -1.421875 32.421875 -1.421875 
Q 20.0625 -1.421875 12.78125 6.34375 
Q 5.515625 14.109375 5.515625 27.296875 
Q 5.515625 40.671875 12.859375 48.328125 
Q 20.21875 56 33.015625 56 
Q 37.15625 56 41.109375 55.140625 
Q 45.0625 54.296875 48.78125 52.59375 
z
" id="DejaVuSans-99"/>
    </defs>
    <g transform="translate(89.516484 35.28)scale(0.2 -0.2)">
     <use xlink:href="#DejaVuSans-78"/>
     <use x="74.804688" xlink:href="#DejaVuSans-101"/>
     <use x="136.328125" xlink:href="#DejaVuSans-105"/>
     <use x="164.111328" xlink:href="#DejaVuSans-103"/>
     <use x="227.587891" xlink:href="#DejaVuSans-104"/>
     <use x="290.966797" xlink:href="#DejaVuSans-98"/>
     <use x="354.443359" xlink:href="#DejaVuSans-111"/>
     <use x="415.625" xlink:href="#DejaVuSans-114"/>
     <use x="454.988281" xlink:href="#DejaVuSans-104"/>
     <use x="518.367188" xlink:href="#DejaVuSans-111"/>
     <use x="579.548828" xlink:href="#DejaVuSans-111"/>
     <use x="640.730469" xlink:href="#DejaVuSans-100"/>
     <use x="704.207031" xlink:href="#DejaVuSans-58"/>
     <use x="737.898438" xlink:href="#DejaVuSans-32"/>
     <use x="769.685547" xlink:href="#DejaVuSans-77"/>
     <use x="855.964844" xlink:href="#DejaVuSans-105"/>
     <use x="883.748047" xlink:href="#DejaVuSans-116"/>
     <use x="922.957031" xlink:href="#DejaVuSans-99"/>
     <use x="977.9375" xlink:href="#DejaVuSans-104"/>
     <use x="1041.316406" xlink:href="#DejaVuSans-101"/>
     <use x="1102.839844" xlink:href="#DejaVuSans-108"/>
    </g>
   </g>
  </g>
  <g id="axes_2">
   <g id="patch_10">
    <path d="M 371.438594 320.84 
L 655.142813 320.84 
L 655.142813 41.28 
L 371.438594 41.28 
z
" style="fill:#ffffff;"/>
   </g>
   <g id="patch_11">
    <path clip-path="url(#p3523334d39)" d="M 377.112678 320.84 
L 422.505353 320.84 
L 422.505353 263.018547 
L 377.112678 263.018547 
z
" style="fill:#72b6a1;"/>
   </g>
   <g id="patch_12">
    <path clip-path="url(#p3523334d39)" d="z
" style="fill:#e99675;"/>
   </g>
   <g id="patch_13">
    <path clip-path="url(#p3523334d39)" d="z
" style="fill:#95a3c3;"/>
   </g>
   <g id="patch_14">
    <path clip-path="url(#p3523334d39)" d="M 547.335209 320.84 
L 592.727884 320.84 
L 592.727884 133.928793 
L 547.335209 133.928793 
z
" style="fill:#db96c0;"/>
   </g>
   <g id="patch_15">
    <path clip-path="url(#p3523334d39)" d="z
" style="fill:#a2c865;"/>
   </g>
   <g id="matplotlib.axis_3">
    <g id="xtick_6">
     <g id="line2d_11">
      <g>
       <use style="stroke:#000000;stroke-width:0.8;" x="399.809016" xlink:href="#mc301e3ac18" y="320.84"/>
      </g>
     </g>
     <g id="text_13">
      <!-- RL -->
      <g transform="translate(388.540734 341.517188)scale(0.18 -0.18)">
       <use xlink:href="#DejaVuSans-82"/>
       <use x="69.482422" xlink:href="#DejaVuSans-76"/>
      </g>
     </g>
    </g>
    <g id="xtick_7">
     <g id="line2d_12">
      <g>
       <use style="stroke:#000000;stroke-width:0.8;" x="456.549859" xlink:href="#mc301e3ac18" y="320.84"/>
      </g>
     </g>
     <g id="text_14">
      <!-- RM -->
      <g transform="translate(442.530953 341.517188)scale(0.18 -0.18)">
       <use xlink:href="#DejaVuSans-82"/>
       <use x="69.482422" xlink:href="#DejaVuSans-77"/>
      </g>
     </g>
    </g>
    <g id="xtick_8">
     <g id="line2d_13">
      <g>
       <use style="stroke:#000000;stroke-width:0.8;" x="513.290703" xlink:href="#mc301e3ac18" y="320.84"/>
      </g>
     </g>
     <g id="text_15">
      <!-- C (all) -->
      <g transform="translate(486.607109 341.517188)scale(0.18 -0.18)">
       <use xlink:href="#DejaVuSans-67"/>
       <use x="69.824219" xlink:href="#DejaVuSans-32"/>
       <use x="101.611328" xlink:href="#DejaVuSans-40"/>
       <use x="140.625" xlink:href="#DejaVuSans-97"/>
       <use x="201.904297" xlink:href="#DejaVuSans-108"/>
       <use x="229.6875" xlink:href="#DejaVuSans-108"/>
       <use x="257.470703" xlink:href="#DejaVuSans-41"/>
      </g>
     </g>
    </g>
    <g id="xtick_9">
     <g id="line2d_14">
      <g>
       <use style="stroke:#000000;stroke-width:0.8;" x="570.031547" xlink:href="#mc301e3ac18" y="320.84"/>
      </g>
     </g>
     <g id="text_16">
      <!-- FV -->
      <g transform="translate(558.698578 341.517188)scale(0.18 -0.18)">
       <use xlink:href="#DejaVuSans-70"/>
       <use x="57.519531" xlink:href="#DejaVuSans-86"/>
      </g>
     </g>
    </g>
    <g id="xtick_10">
     <g id="line2d_15">
      <g>
       <use style="stroke:#000000;stroke-width:0.8;" x="626.772391" xlink:href="#mc301e3ac18" y="320.84"/>
      </g>
     </g>
     <g id="text_17">
      <!-- RH -->
      <g transform="translate(613.750516 341.517188)scale(0.18 -0.18)">
       <use xlink:href="#DejaVuSans-82"/>
       <use x="69.482422" xlink:href="#DejaVuSans-72"/>
      </g>
     </g>
    </g>
   </g>
   <g id="matplotlib.axis_4">
    <g id="ytick_6">
     <g id="line2d_16">
      <g>
       <use style="stroke:#000000;stroke-width:0.8;" x="371.438594" xlink:href="#m1a8aec11ad" y="320.84"/>
      </g>
     </g>
    </g>
    <g id="ytick_7">
     <g id="line2d_17">
      <g>
       <use style="stroke:#000000;stroke-width:0.8;" x="371.438594" xlink:href="#m1a8aec11ad" y="253.605753"/>
      </g>
     </g>
    </g>
    <g id="ytick_8">
     <g id="line2d_18">
      <g>
       <use style="stroke:#000000;stroke-width:0.8;" x="371.438594" xlink:href="#m1a8aec11ad" y="186.371506"/>
      </g>
     </g>
    </g>
    <g id="ytick_9">
     <g id="line2d_19">
      <g>
       <use style="stroke:#000000;stroke-width:0.8;" x="371.438594" xlink:href="#m1a8aec11ad" y="119.137258"/>
      </g>
     </g>
    </g>
    <g id="ytick_10">
     <g id="line2d_20">
      <g>
       <use style="stroke:#000000;stroke-width:0.8;" x="371.438594" xlink:href="#m1a8aec11ad" y="51.903011"/>
      </g>
     </g>
    </g>
   </g>
   <g id="patch_16">
    <path d="M 371.438594 320.84 
L 371.438594 41.28 
" style="fill:none;stroke:#000000;stroke-linecap:square;stroke-linejoin:miter;stroke-width:0.8;"/>
   </g>
   <g id="patch_17">
    <path d="M 371.438594 320.84 
L 655.142813 320.84 
" style="fill:none;stroke:#000000;stroke-linecap:square;stroke-linejoin:miter;stroke-width:0.8;"/>
   </g>
   <g id="text_18">
    <!-- Neighborhood: Somerst -->
    <defs>
     <path d="M 53.515625 70.515625 
L 53.515625 60.890625 
Q 47.90625 63.578125 42.921875 64.890625 
Q 37.9375 66.21875 33.296875 66.21875 
Q 25.25 66.21875 20.875 63.09375 
Q 16.5 59.96875 16.5 54.203125 
Q 16.5 49.359375 19.40625 46.890625 
Q 22.3125 44.4375 30.421875 42.921875 
L 36.375 41.703125 
Q 47.40625 39.59375 52.65625 34.296875 
Q 57.90625 29 57.90625 20.125 
Q 57.90625 9.515625 50.796875 4.046875 
Q 43.703125 -1.421875 29.984375 -1.421875 
Q 24.8125 -1.421875 18.96875 -0.25 
Q 13.140625 0.921875 6.890625 3.21875 
L 6.890625 13.375 
Q 12.890625 10.015625 18.65625 8.296875 
Q 24.421875 6.59375 29.984375 6.59375 
Q 38.421875 6.59375 43.015625 9.90625 
Q 47.609375 13.234375 47.609375 19.390625 
Q 47.609375 24.75 44.3125 27.78125 
Q 41.015625 30.8125 33.5 32.328125 
L 27.484375 33.5 
Q 16.453125 35.6875 11.515625 40.375 
Q 6.59375 45.0625 6.59375 53.421875 
Q 6.59375 63.09375 13.40625 68.65625 
Q 20.21875 74.21875 32.171875 74.21875 
Q 37.3125 74.21875 42.625 73.28125 
Q 47.953125 72.359375 53.515625 70.515625 
z
" id="DejaVuSans-83"/>
     <path d="M 52 44.1875 
Q 55.375 50.25 60.0625 53.125 
Q 64.75 56 71.09375 56 
Q 79.640625 56 84.28125 50.015625 
Q 88.921875 44.046875 88.921875 33.015625 
L 88.921875 0 
L 79.890625 0 
L 79.890625 32.71875 
Q 79.890625 40.578125 77.09375 44.375 
Q 74.3125 48.1875 68.609375 48.1875 
Q 61.625 48.1875 57.5625 43.546875 
Q 53.515625 38.921875 53.515625 30.90625 
L 53.515625 0 
L 44.484375 0 
L 44.484375 32.71875 
Q 44.484375 40.625 41.703125 44.40625 
Q 38.921875 48.1875 33.109375 48.1875 
Q 26.21875 48.1875 22.15625 43.53125 
Q 18.109375 38.875 18.109375 30.90625 
L 18.109375 0 
L 9.078125 0 
L 9.078125 54.6875 
L 18.109375 54.6875 
L 18.109375 46.1875 
Q 21.1875 51.21875 25.484375 53.609375 
Q 29.78125 56 35.6875 56 
Q 41.65625 56 45.828125 52.96875 
Q 50 49.953125 52 44.1875 
z
" id="DejaVuSans-109"/>
    </defs>
    <g transform="translate(394.717266 35.28)scale(0.2 -0.2)">
     <use xlink:href="#DejaVuSans-78"/>
     <use x="74.804688" xlink:href="#DejaVuSans-101"/>
     <use x="136.328125" xlink:href="#DejaVuSans-105"/>
     <use x="164.111328" xlink:href="#DejaVuSans-103"/>
     <use x="227.587891" xlink:href="#DejaVuSans-104"/>
     <use x="290.966797" xlink:href="#DejaVuSans-98"/>
     <use x="354.443359" xlink:href="#DejaVuSans-111"/>
     <use x="415.625" xlink:href="#DejaVuSans-114"/>
     <use x="454.988281" xlink:href="#DejaVuSans-104"/>
     <use x="518.367188" xlink:href="#DejaVuSans-111"/>
     <use x="579.548828" xlink:href="#DejaVuSans-111"/>
     <use x="640.730469" xlink:href="#DejaVuSans-100"/>
     <use x="704.207031" xlink:href="#DejaVuSans-58"/>
     <use x="737.898438" xlink:href="#DejaVuSans-32"/>
     <use x="769.685547" xlink:href="#DejaVuSans-83"/>
     <use x="833.162109" xlink:href="#DejaVuSans-111"/>
     <use x="894.34375" xlink:href="#DejaVuSans-109"/>
     <use x="991.755859" xlink:href="#DejaVuSans-101"/>
     <use x="1053.279297" xlink:href="#DejaVuSans-114"/>
     <use x="1094.392578" xlink:href="#DejaVuSans-115"/>
     <use x="1146.492188" xlink:href="#DejaVuSans-116"/>
    </g>
   </g>
  </g>
  <g id="axes_3">
   <g id="patch_18">
    <path d="M 682.147187 320.84 
L 965.851406 320.84 
L 965.851406 41.28 
L 682.147187 41.28 
z
" style="fill:#ffffff;"/>
   </g>
   <g id="patch_19">
    <path clip-path="url(#p5f71029126)" d="M 687.821272 320.84 
L 733.213947 320.84 
L 733.213947 268.397287 
L 687.821272 268.397287 
z
" style="fill:#72b6a1;"/>
   </g>
   <g id="patch_20">
    <path clip-path="url(#p5f71029126)" d="M 744.562116 320.84 
L 789.954791 320.84 
L 789.954791 54.592381 
L 744.562116 54.592381 
z
" style="fill:#e99675;"/>
   </g>
   <g id="patch_21">
    <path clip-path="url(#p5f71029126)" d="M 801.302959 320.84 
L 846.695634 320.84 
L 846.695634 318.15063 
L 801.302959 318.15063 
z
" style="fill:#95a3c3;"/>
   </g>
   <g id="patch_22">
    <path clip-path="url(#p5f71029126)" d="z
" style="fill:#db96c0;"/>
   </g>
   <g id="patch_23">
    <path clip-path="url(#p5f71029126)" d="z
" style="fill:#a2c865;"/>
   </g>
   <g id="matplotlib.axis_5">
    <g id="xtick_11">
     <g id="line2d_21">
      <g>
       <use style="stroke:#000000;stroke-width:0.8;" x="710.517609" xlink:href="#mc301e3ac18" y="320.84"/>
      </g>
     </g>
     <g id="text_19">
      <!-- RL -->
      <g transform="translate(699.249328 341.517188)scale(0.18 -0.18)">
       <use xlink:href="#DejaVuSans-82"/>
       <use x="69.482422" xlink:href="#DejaVuSans-76"/>
      </g>
     </g>
    </g>
    <g id="xtick_12">
     <g id="line2d_22">
      <g>
       <use style="stroke:#000000;stroke-width:0.8;" x="767.258453" xlink:href="#mc301e3ac18" y="320.84"/>
      </g>
     </g>
     <g id="text_20">
      <!-- RM -->
      <g transform="translate(753.239547 341.517188)scale(0.18 -0.18)">
       <use xlink:href="#DejaVuSans-82"/>
       <use x="69.482422" xlink:href="#DejaVuSans-77"/>
      </g>
     </g>
    </g>
    <g id="xtick_13">
     <g id="line2d_23">
      <g>
       <use style="stroke:#000000;stroke-width:0.8;" x="823.999297" xlink:href="#mc301e3ac18" y="320.84"/>
      </g>
     </g>
     <g id="text_21">
      <!-- C (all) -->
      <g transform="translate(797.315703 341.517188)scale(0.18 -0.18)">
       <use xlink:href="#DejaVuSans-67"/>
       <use x="69.824219" xlink:href="#DejaVuSans-32"/>
       <use x="101.611328" xlink:href="#DejaVuSans-40"/>
       <use x="140.625" xlink:href="#DejaVuSans-97"/>
       <use x="201.904297" xlink:href="#DejaVuSans-108"/>
       <use x="229.6875" xlink:href="#DejaVuSans-108"/>
       <use x="257.470703" xlink:href="#DejaVuSans-41"/>
      </g>
     </g>
    </g>
    <g id="xtick_14">
     <g id="line2d_24">
      <g>
       <use style="stroke:#000000;stroke-width:0.8;" x="880.740141" xlink:href="#mc301e3ac18" y="320.84"/>
      </g>
     </g>
     <g id="text_22">
      <!-- FV -->
      <g transform="translate(869.407172 341.517188)scale(0.18 -0.18)">
       <use xlink:href="#DejaVuSans-70"/>
       <use x="57.519531" xlink:href="#DejaVuSans-86"/>
      </g>
     </g>
    </g>
    <g id="xtick_15">
     <g id="line2d_25">
      <g>
       <use style="stroke:#000000;stroke-width:0.8;" x="937.480984" xlink:href="#mc301e3ac18" y="320.84"/>
      </g>
     </g>
     <g id="text_23">
      <!-- RH -->
      <g transform="translate(924.459109 341.517188)scale(0.18 -0.18)">
       <use xlink:href="#DejaVuSans-82"/>
       <use x="69.482422" xlink:href="#DejaVuSans-72"/>
      </g>
     </g>
    </g>
   </g>
   <g id="matplotlib.axis_6">
    <g id="ytick_11">
     <g id="line2d_26">
      <g>
       <use style="stroke:#000000;stroke-width:0.8;" x="682.147187" xlink:href="#m1a8aec11ad" y="320.84"/>
      </g>
     </g>
    </g>
    <g id="ytick_12">
     <g id="line2d_27">
      <g>
       <use style="stroke:#000000;stroke-width:0.8;" x="682.147187" xlink:href="#m1a8aec11ad" y="253.605753"/>
      </g>
     </g>
    </g>
    <g id="ytick_13">
     <g id="line2d_28">
      <g>
       <use style="stroke:#000000;stroke-width:0.8;" x="682.147187" xlink:href="#m1a8aec11ad" y="186.371506"/>
      </g>
     </g>
    </g>
    <g id="ytick_14">
     <g id="line2d_29">
      <g>
       <use style="stroke:#000000;stroke-width:0.8;" x="682.147187" xlink:href="#m1a8aec11ad" y="119.137258"/>
      </g>
     </g>
    </g>
    <g id="ytick_15">
     <g id="line2d_30">
      <g>
       <use style="stroke:#000000;stroke-width:0.8;" x="682.147187" xlink:href="#m1a8aec11ad" y="51.903011"/>
      </g>
     </g>
    </g>
   </g>
   <g id="patch_24">
    <path d="M 682.147187 320.84 
L 682.147187 41.28 
" style="fill:none;stroke:#000000;stroke-linecap:square;stroke-linejoin:miter;stroke-width:0.8;"/>
   </g>
   <g id="patch_25">
    <path d="M 682.147187 320.84 
L 965.851406 320.84 
" style="fill:none;stroke:#000000;stroke-linecap:square;stroke-linejoin:miter;stroke-width:0.8;"/>
   </g>
   <g id="text_24">
    <!-- Neighborhood: OldTown -->
    <defs>
     <path d="M 39.40625 66.21875 
Q 28.65625 66.21875 22.328125 58.203125 
Q 16.015625 50.203125 16.015625 36.375 
Q 16.015625 22.609375 22.328125 14.59375 
Q 28.65625 6.59375 39.40625 6.59375 
Q 50.140625 6.59375 56.421875 14.59375 
Q 62.703125 22.609375 62.703125 36.375 
Q 62.703125 50.203125 56.421875 58.203125 
Q 50.140625 66.21875 39.40625 66.21875 
z
M 39.40625 74.21875 
Q 54.734375 74.21875 63.90625 63.9375 
Q 73.09375 53.65625 73.09375 36.375 
Q 73.09375 19.140625 63.90625 8.859375 
Q 54.734375 -1.421875 39.40625 -1.421875 
Q 24.03125 -1.421875 14.8125 8.828125 
Q 5.609375 19.09375 5.609375 36.375 
Q 5.609375 53.65625 14.8125 63.9375 
Q 24.03125 74.21875 39.40625 74.21875 
z
" id="DejaVuSans-79"/>
     <path d="M -0.296875 72.90625 
L 61.375 72.90625 
L 61.375 64.59375 
L 35.5 64.59375 
L 35.5 0 
L 25.59375 0 
L 25.59375 64.59375 
L -0.296875 64.59375 
z
" id="DejaVuSans-84"/>
     <path d="M 4.203125 54.6875 
L 13.1875 54.6875 
L 24.421875 12.015625 
L 35.59375 54.6875 
L 46.1875 54.6875 
L 57.421875 12.015625 
L 68.609375 54.6875 
L 77.59375 54.6875 
L 63.28125 0 
L 52.6875 0 
L 40.921875 44.828125 
L 29.109375 0 
L 18.5 0 
z
" id="DejaVuSans-119"/>
     <path d="M 54.890625 33.015625 
L 54.890625 0 
L 45.90625 0 
L 45.90625 32.71875 
Q 45.90625 40.484375 42.875 44.328125 
Q 39.84375 48.1875 33.796875 48.1875 
Q 26.515625 48.1875 22.3125 43.546875 
Q 18.109375 38.921875 18.109375 30.90625 
L 18.109375 0 
L 9.078125 0 
L 9.078125 54.6875 
L 18.109375 54.6875 
L 18.109375 46.1875 
Q 21.34375 51.125 25.703125 53.5625 
Q 30.078125 56 35.796875 56 
Q 45.21875 56 50.046875 50.171875 
Q 54.890625 44.34375 54.890625 33.015625 
z
" id="DejaVuSans-110"/>
    </defs>
    <g transform="translate(704.986797 35.28)scale(0.2 -0.2)">
     <use xlink:href="#DejaVuSans-78"/>
     <use x="74.804688" xlink:href="#DejaVuSans-101"/>
     <use x="136.328125" xlink:href="#DejaVuSans-105"/>
     <use x="164.111328" xlink:href="#DejaVuSans-103"/>
     <use x="227.587891" xlink:href="#DejaVuSans-104"/>
     <use x="290.966797" xlink:href="#DejaVuSans-98"/>
     <use x="354.443359" xlink:href="#DejaVuSans-111"/>
     <use x="415.625" xlink:href="#DejaVuSans-114"/>
     <use x="454.988281" xlink:href="#DejaVuSans-104"/>
     <use x="518.367188" xlink:href="#DejaVuSans-111"/>
     <use x="579.548828" xlink:href="#DejaVuSans-111"/>
     <use x="640.730469" xlink:href="#DejaVuSans-100"/>
     <use x="704.207031" xlink:href="#DejaVuSans-58"/>
     <use x="737.898438" xlink:href="#DejaVuSans-32"/>
     <use x="769.685547" xlink:href="#DejaVuSans-79"/>
     <use x="848.396484" xlink:href="#DejaVuSans-108"/>
     <use x="876.179688" xlink:href="#DejaVuSans-100"/>
     <use x="939.65625" xlink:href="#DejaVuSans-84"/>
     <use x="983.740234" xlink:href="#DejaVuSans-111"/>
     <use x="1044.921875" xlink:href="#DejaVuSans-119"/>
     <use x="1126.708984" xlink:href="#DejaVuSans-110"/>
    </g>
   </g>
  </g>
  <g id="axes_4">
   <g id="patch_26">
    <path d="M 992.855781 320.84 
L 1276.56 320.84 
L 1276.56 41.28 
L 992.855781 41.28 
z
" style="fill:#ffffff;"/>
   </g>
   <g id="patch_27">
    <path clip-path="url(#p67b39ef7bf)" d="M 998.529866 320.84 
L 1043.922541 320.84 
L 1043.922541 263.018547 
L 998.529866 263.018547 
z
" style="fill:#72b6a1;"/>
   </g>
   <g id="patch_28">
    <path clip-path="url(#p67b39ef7bf)" d="M 1055.270709 320.84 
L 1100.663384 320.84 
L 1100.663384 233.435479 
L 1055.270709 233.435479 
z
" style="fill:#e99675;"/>
   </g>
   <g id="patch_29">
    <path clip-path="url(#p67b39ef7bf)" d="z
" style="fill:#95a3c3;"/>
   </g>
   <g id="patch_30">
    <path clip-path="url(#p67b39ef7bf)" d="z
" style="fill:#db96c0;"/>
   </g>
   <g id="patch_31">
    <path clip-path="url(#p67b39ef7bf)" d="z
" style="fill:#a2c865;"/>
   </g>
   <g id="matplotlib.axis_7">
    <g id="xtick_16">
     <g id="line2d_31">
      <g>
       <use style="stroke:#000000;stroke-width:0.8;" x="1021.226203" xlink:href="#mc301e3ac18" y="320.84"/>
      </g>
     </g>
     <g id="text_25">
      <!-- RL -->
      <g transform="translate(1009.957922 341.517188)scale(0.18 -0.18)">
       <use xlink:href="#DejaVuSans-82"/>
       <use x="69.482422" xlink:href="#DejaVuSans-76"/>
      </g>
     </g>
    </g>
    <g id="xtick_17">
     <g id="line2d_32">
      <g>
       <use style="stroke:#000000;stroke-width:0.8;" x="1077.967047" xlink:href="#mc301e3ac18" y="320.84"/>
      </g>
     </g>
     <g id="text_26">
      <!-- RM -->
      <g transform="translate(1063.948141 341.517188)scale(0.18 -0.18)">
       <use xlink:href="#DejaVuSans-82"/>
       <use x="69.482422" xlink:href="#DejaVuSans-77"/>
      </g>
     </g>
    </g>
    <g id="xtick_18">
     <g id="line2d_33">
      <g>
       <use style="stroke:#000000;stroke-width:0.8;" x="1134.707891" xlink:href="#mc301e3ac18" y="320.84"/>
      </g>
     </g>
     <g id="text_27">
      <!-- C (all) -->
      <g transform="translate(1108.024297 341.517188)scale(0.18 -0.18)">
       <use xlink:href="#DejaVuSans-67"/>
       <use x="69.824219" xlink:href="#DejaVuSans-32"/>
       <use x="101.611328" xlink:href="#DejaVuSans-40"/>
       <use x="140.625" xlink:href="#DejaVuSans-97"/>
       <use x="201.904297" xlink:href="#DejaVuSans-108"/>
       <use x="229.6875" xlink:href="#DejaVuSans-108"/>
       <use x="257.470703" xlink:href="#DejaVuSans-41"/>
      </g>
     </g>
    </g>
    <g id="xtick_19">
     <g id="line2d_34">
      <g>
       <use style="stroke:#000000;stroke-width:0.8;" x="1191.448734" xlink:href="#mc301e3ac18" y="320.84"/>
      </g>
     </g>
     <g id="text_28">
      <!-- FV -->
      <g transform="translate(1180.115766 341.517188)scale(0.18 -0.18)">
       <use xlink:href="#DejaVuSans-70"/>
       <use x="57.519531" xlink:href="#DejaVuSans-86"/>
      </g>
     </g>
    </g>
    <g id="xtick_20">
     <g id="line2d_35">
      <g>
       <use style="stroke:#000000;stroke-width:0.8;" x="1248.189578" xlink:href="#mc301e3ac18" y="320.84"/>
      </g>
     </g>
     <g id="text_29">
      <!-- RH -->
      <g transform="translate(1235.167703 341.517188)scale(0.18 -0.18)">
       <use xlink:href="#DejaVuSans-82"/>
       <use x="69.482422" xlink:href="#DejaVuSans-72"/>
      </g>
     </g>
    </g>
   </g>
   <g id="matplotlib.axis_8">
    <g id="ytick_16">
     <g id="line2d_36">
      <g>
       <use style="stroke:#000000;stroke-width:0.8;" x="992.855781" xlink:href="#m1a8aec11ad" y="320.84"/>
      </g>
     </g>
    </g>
    <g id="ytick_17">
     <g id="line2d_37">
      <g>
       <use style="stroke:#000000;stroke-width:0.8;" x="992.855781" xlink:href="#m1a8aec11ad" y="253.605753"/>
      </g>
     </g>
    </g>
    <g id="ytick_18">
     <g id="line2d_38">
      <g>
       <use style="stroke:#000000;stroke-width:0.8;" x="992.855781" xlink:href="#m1a8aec11ad" y="186.371506"/>
      </g>
     </g>
    </g>
    <g id="ytick_19">
     <g id="line2d_39">
      <g>
       <use style="stroke:#000000;stroke-width:0.8;" x="992.855781" xlink:href="#m1a8aec11ad" y="119.137258"/>
      </g>
     </g>
    </g>
    <g id="ytick_20">
     <g id="line2d_40">
      <g>
       <use style="stroke:#000000;stroke-width:0.8;" x="992.855781" xlink:href="#m1a8aec11ad" y="51.903011"/>
      </g>
     </g>
    </g>
   </g>
   <g id="patch_32">
    <path d="M 992.855781 320.84 
L 992.855781 41.28 
" style="fill:none;stroke:#000000;stroke-linecap:square;stroke-linejoin:miter;stroke-width:0.8;"/>
   </g>
   <g id="patch_33">
    <path d="M 992.855781 320.84 
L 1276.56 320.84 
" style="fill:none;stroke:#000000;stroke-linecap:square;stroke-linejoin:miter;stroke-width:0.8;"/>
   </g>
   <g id="text_30">
    <!-- Neighborhood: BrkSide -->
    <defs>
     <path d="M 19.671875 34.8125 
L 19.671875 8.109375 
L 35.5 8.109375 
Q 43.453125 8.109375 47.28125 11.40625 
Q 51.125 14.703125 51.125 21.484375 
Q 51.125 28.328125 47.28125 31.5625 
Q 43.453125 34.8125 35.5 34.8125 
z
M 19.671875 64.796875 
L 19.671875 42.828125 
L 34.28125 42.828125 
Q 41.5 42.828125 45.03125 45.53125 
Q 48.578125 48.25 48.578125 53.8125 
Q 48.578125 59.328125 45.03125 62.0625 
Q 41.5 64.796875 34.28125 64.796875 
z
M 9.8125 72.90625 
L 35.015625 72.90625 
Q 46.296875 72.90625 52.390625 68.21875 
Q 58.5 63.53125 58.5 54.890625 
Q 58.5 48.1875 55.375 44.234375 
Q 52.25 40.28125 46.1875 39.3125 
Q 53.46875 37.75 57.5 32.78125 
Q 61.53125 27.828125 61.53125 20.40625 
Q 61.53125 10.640625 54.890625 5.3125 
Q 48.25 0 35.984375 0 
L 9.8125 0 
z
" id="DejaVuSans-66"/>
     <path d="M 9.078125 75.984375 
L 18.109375 75.984375 
L 18.109375 31.109375 
L 44.921875 54.6875 
L 56.390625 54.6875 
L 27.390625 29.109375 
L 57.625 0 
L 45.90625 0 
L 18.109375 26.703125 
L 18.109375 0 
L 9.078125 0 
z
" id="DejaVuSans-107"/>
    </defs>
    <g transform="translate(1019.345391 35.28)scale(0.2 -0.2)">
     <use xlink:href="#DejaVuSans-78"/>
     <use x="74.804688" xlink:href="#DejaVuSans-101"/>
     <use x="136.328125" xlink:href="#DejaVuSans-105"/>
     <use x="164.111328" xlink:href="#DejaVuSans-103"/>
     <use x="227.587891" xlink:href="#DejaVuSans-104"/>
     <use x="290.966797" xlink:href="#DejaVuSans-98"/>
     <use x="354.443359" xlink:href="#DejaVuSans-111"/>
     <use x="415.625" xlink:href="#DejaVuSans-114"/>
     <use x="454.988281" xlink:href="#DejaVuSans-104"/>
     <use x="518.367188" xlink:href="#DejaVuSans-111"/>
     <use x="579.548828" xlink:href="#DejaVuSans-111"/>
     <use x="640.730469" xlink:href="#DejaVuSans-100"/>
     <use x="704.207031" xlink:href="#DejaVuSans-58"/>
     <use x="737.898438" xlink:href="#DejaVuSans-32"/>
     <use x="769.685547" xlink:href="#DejaVuSans-66"/>
     <use x="838.289062" xlink:href="#DejaVuSans-114"/>
     <use x="879.402344" xlink:href="#DejaVuSans-107"/>
     <use x="937.3125" xlink:href="#DejaVuSans-83"/>
     <use x="1000.789062" xlink:href="#DejaVuSans-105"/>
     <use x="1028.572266" xlink:href="#DejaVuSans-100"/>
     <use x="1092.048828" xlink:href="#DejaVuSans-101"/>
    </g>
   </g>
  </g>
  <g id="axes_5">
   <g id="patch_34">
    <path d="M 60.73 652.12 
L 344.434219 652.12 
L 344.434219 372.56 
L 60.73 372.56 
z
" style="fill:#ffffff;"/>
   </g>
   <g id="patch_35">
    <path clip-path="url(#pca82dddfa3)" d="M 66.404084 652.12 
L 111.796759 652.12 
L 111.796759 492.102492 
L 66.404084 492.102492 
z
" style="fill:#72b6a1;"/>
   </g>
   <g id="patch_36">
    <path clip-path="url(#pca82dddfa3)" d="z
" style="fill:#e99675;"/>
   </g>
   <g id="patch_37">
    <path clip-path="url(#pca82dddfa3)" d="z
" style="fill:#95a3c3;"/>
   </g>
   <g id="patch_38">
    <path clip-path="url(#pca82dddfa3)" d="z
" style="fill:#db96c0;"/>
   </g>
   <g id="patch_39">
    <path clip-path="url(#pca82dddfa3)" d="M 293.367459 652.12 
L 338.760134 652.12 
L 338.760134 644.05189 
L 293.367459 644.05189 
z
" style="fill:#a2c865;"/>
   </g>
   <g id="matplotlib.axis_9">
    <g id="xtick_21">
     <g id="line2d_41">
      <g>
       <use style="stroke:#000000;stroke-width:0.8;" x="89.100422" xlink:href="#mc301e3ac18" y="652.12"/>
      </g>
     </g>
     <g id="text_31">
      <!-- RL -->
      <g transform="translate(77.832141 672.797188)scale(0.18 -0.18)">
       <use xlink:href="#DejaVuSans-82"/>
       <use x="69.482422" xlink:href="#DejaVuSans-76"/>
      </g>
     </g>
    </g>
    <g id="xtick_22">
     <g id="line2d_42">
      <g>
       <use style="stroke:#000000;stroke-width:0.8;" x="145.841266" xlink:href="#mc301e3ac18" y="652.12"/>
      </g>
     </g>
     <g id="text_32">
      <!-- RM -->
      <g transform="translate(131.822359 672.797188)scale(0.18 -0.18)">
       <use xlink:href="#DejaVuSans-82"/>
       <use x="69.482422" xlink:href="#DejaVuSans-77"/>
      </g>
     </g>
    </g>
    <g id="xtick_23">
     <g id="line2d_43">
      <g>
       <use style="stroke:#000000;stroke-width:0.8;" x="202.582109" xlink:href="#mc301e3ac18" y="652.12"/>
      </g>
     </g>
     <g id="text_33">
      <!-- C (all) -->
      <g transform="translate(175.898516 672.797188)scale(0.18 -0.18)">
       <use xlink:href="#DejaVuSans-67"/>
       <use x="69.824219" xlink:href="#DejaVuSans-32"/>
       <use x="101.611328" xlink:href="#DejaVuSans-40"/>
       <use x="140.625" xlink:href="#DejaVuSans-97"/>
       <use x="201.904297" xlink:href="#DejaVuSans-108"/>
       <use x="229.6875" xlink:href="#DejaVuSans-108"/>
       <use x="257.470703" xlink:href="#DejaVuSans-41"/>
      </g>
     </g>
    </g>
    <g id="xtick_24">
     <g id="line2d_44">
      <g>
       <use style="stroke:#000000;stroke-width:0.8;" x="259.322953" xlink:href="#mc301e3ac18" y="652.12"/>
      </g>
     </g>
     <g id="text_34">
      <!-- FV -->
      <g transform="translate(247.989984 672.797188)scale(0.18 -0.18)">
       <use xlink:href="#DejaVuSans-70"/>
       <use x="57.519531" xlink:href="#DejaVuSans-86"/>
      </g>
     </g>
    </g>
    <g id="xtick_25">
     <g id="line2d_45">
      <g>
       <use style="stroke:#000000;stroke-width:0.8;" x="316.063797" xlink:href="#mc301e3ac18" y="652.12"/>
      </g>
     </g>
     <g id="text_35">
      <!-- RH -->
      <g transform="translate(303.041922 672.797188)scale(0.18 -0.18)">
       <use xlink:href="#DejaVuSans-82"/>
       <use x="69.482422" xlink:href="#DejaVuSans-72"/>
      </g>
     </g>
    </g>
    <g id="text_36">
     <!-- MSZoning Types -->
     <defs>
      <path d="M 5.609375 72.90625 
L 62.890625 72.90625 
L 62.890625 65.375 
L 16.796875 8.296875 
L 64.015625 8.296875 
L 64.015625 0 
L 4.5 0 
L 4.5 7.515625 
L 50.59375 64.59375 
L 5.609375 64.59375 
z
" id="DejaVuSans-90"/>
      <path d="M 32.171875 -5.078125 
Q 28.375 -14.84375 24.75 -17.8125 
Q 21.140625 -20.796875 15.09375 -20.796875 
L 7.90625 -20.796875 
L 7.90625 -13.28125 
L 13.1875 -13.28125 
Q 16.890625 -13.28125 18.9375 -11.515625 
Q 21 -9.765625 23.484375 -3.21875 
L 25.09375 0.875 
L 2.984375 54.6875 
L 12.5 54.6875 
L 29.59375 11.921875 
L 46.6875 54.6875 
L 56.203125 54.6875 
z
" id="DejaVuSans-121"/>
      <path d="M 18.109375 8.203125 
L 18.109375 -20.796875 
L 9.078125 -20.796875 
L 9.078125 54.6875 
L 18.109375 54.6875 
L 18.109375 46.390625 
Q 20.953125 51.265625 25.265625 53.625 
Q 29.59375 56 35.59375 56 
Q 45.5625 56 51.78125 48.09375 
Q 58.015625 40.1875 58.015625 27.296875 
Q 58.015625 14.40625 51.78125 6.484375 
Q 45.5625 -1.421875 35.59375 -1.421875 
Q 29.59375 -1.421875 25.265625 0.953125 
Q 20.953125 3.328125 18.109375 8.203125 
z
M 48.6875 27.296875 
Q 48.6875 37.203125 44.609375 42.84375 
Q 40.53125 48.484375 33.40625 48.484375 
Q 26.265625 48.484375 22.1875 42.84375 
Q 18.109375 37.203125 18.109375 27.296875 
Q 18.109375 17.390625 22.1875 11.75 
Q 26.265625 6.109375 33.40625 6.109375 
Q 40.53125 6.109375 44.609375 11.75 
Q 48.6875 17.390625 48.6875 27.296875 
z
" id="DejaVuSans-112"/>
     </defs>
     <g transform="translate(121.482109 695.7375)scale(0.2 -0.2)">
      <use xlink:href="#DejaVuSans-77"/>
      <use x="86.279297" xlink:href="#DejaVuSans-83"/>
      <use x="149.755859" xlink:href="#DejaVuSans-90"/>
      <use x="218.261719" xlink:href="#DejaVuSans-111"/>
      <use x="279.443359" xlink:href="#DejaVuSans-110"/>
      <use x="342.822266" xlink:href="#DejaVuSans-105"/>
      <use x="370.605469" xlink:href="#DejaVuSans-110"/>
      <use x="433.984375" xlink:href="#DejaVuSans-103"/>
      <use x="497.460938" xlink:href="#DejaVuSans-32"/>
      <use x="529.248047" xlink:href="#DejaVuSans-84"/>
      <use x="574.707031" xlink:href="#DejaVuSans-121"/>
      <use x="633.886719" xlink:href="#DejaVuSans-112"/>
      <use x="697.363281" xlink:href="#DejaVuSans-101"/>
      <use x="758.886719" xlink:href="#DejaVuSans-115"/>
     </g>
    </g>
   </g>
   <g id="matplotlib.axis_10">
    <g id="ytick_21">
     <g id="line2d_46">
      <g>
       <use style="stroke:#000000;stroke-width:0.8;" x="60.73" xlink:href="#m1a8aec11ad" y="652.12"/>
      </g>
     </g>
     <g id="text_37">
      <!-- 0 -->
      <g transform="translate(42.2775 658.958594)scale(0.18 -0.18)">
       <use xlink:href="#DejaVuSans-48"/>
      </g>
     </g>
    </g>
    <g id="ytick_22">
     <g id="line2d_47">
      <g>
       <use style="stroke:#000000;stroke-width:0.8;" x="60.73" xlink:href="#m1a8aec11ad" y="584.885753"/>
      </g>
     </g>
     <g id="text_38">
      <!-- 50 -->
      <g transform="translate(30.825 591.724347)scale(0.18 -0.18)">
       <use xlink:href="#DejaVuSans-53"/>
       <use x="63.623047" xlink:href="#DejaVuSans-48"/>
      </g>
     </g>
    </g>
    <g id="ytick_23">
     <g id="line2d_48">
      <g>
       <use style="stroke:#000000;stroke-width:0.8;" x="60.73" xlink:href="#m1a8aec11ad" y="517.651506"/>
      </g>
     </g>
     <g id="text_39">
      <!-- 100 -->
      <g transform="translate(19.3725 524.490099)scale(0.18 -0.18)">
       <use xlink:href="#DejaVuSans-49"/>
       <use x="63.623047" xlink:href="#DejaVuSans-48"/>
       <use x="127.246094" xlink:href="#DejaVuSans-48"/>
      </g>
     </g>
    </g>
    <g id="ytick_24">
     <g id="line2d_49">
      <g>
       <use style="stroke:#000000;stroke-width:0.8;" x="60.73" xlink:href="#m1a8aec11ad" y="450.417258"/>
      </g>
     </g>
     <g id="text_40">
      <!-- 150 -->
      <g transform="translate(19.3725 457.255852)scale(0.18 -0.18)">
       <use xlink:href="#DejaVuSans-49"/>
       <use x="63.623047" xlink:href="#DejaVuSans-53"/>
       <use x="127.246094" xlink:href="#DejaVuSans-48"/>
      </g>
     </g>
    </g>
    <g id="ytick_25">
     <g id="line2d_50">
      <g>
       <use style="stroke:#000000;stroke-width:0.8;" x="60.73" xlink:href="#m1a8aec11ad" y="383.183011"/>
      </g>
     </g>
     <g id="text_41">
      <!-- 200 -->
      <g transform="translate(19.3725 390.021605)scale(0.18 -0.18)">
       <use xlink:href="#DejaVuSans-50"/>
       <use x="63.623047" xlink:href="#DejaVuSans-48"/>
       <use x="127.246094" xlink:href="#DejaVuSans-48"/>
      </g>
     </g>
    </g>
    <g id="text_42">
     <!-- # of Houses -->
     <g transform="translate(11.213125 573.263438)rotate(-90)scale(0.2 -0.2)">
      <use xlink:href="#DejaVuSans-35"/>
      <use x="83.789062" xlink:href="#DejaVuSans-32"/>
      <use x="115.576172" xlink:href="#DejaVuSans-111"/>
      <use x="176.757812" xlink:href="#DejaVuSans-102"/>
      <use x="211.962891" xlink:href="#DejaVuSans-32"/>
      <use x="243.75" xlink:href="#DejaVuSans-72"/>
      <use x="318.945312" xlink:href="#DejaVuSans-111"/>
      <use x="380.126953" xlink:href="#DejaVuSans-117"/>
      <use x="443.505859" xlink:href="#DejaVuSans-115"/>
      <use x="495.605469" xlink:href="#DejaVuSans-101"/>
      <use x="557.128906" xlink:href="#DejaVuSans-115"/>
     </g>
    </g>
   </g>
   <g id="patch_40">
    <path d="M 60.73 652.12 
L 60.73 372.56 
" style="fill:none;stroke:#000000;stroke-linecap:square;stroke-linejoin:miter;stroke-width:0.8;"/>
   </g>
   <g id="patch_41">
    <path d="M 60.73 652.12 
L 344.434219 652.12 
" style="fill:none;stroke:#000000;stroke-linecap:square;stroke-linejoin:miter;stroke-width:0.8;"/>
   </g>
   <g id="text_43">
    <!-- Neighborhood: SawyerW -->
    <defs>
     <path d="M 3.328125 72.90625 
L 13.28125 72.90625 
L 28.609375 11.28125 
L 43.890625 72.90625 
L 54.984375 72.90625 
L 70.3125 11.28125 
L 85.59375 72.90625 
L 95.609375 72.90625 
L 77.296875 0 
L 64.890625 0 
L 49.515625 63.28125 
L 33.984375 0 
L 21.578125 0 
z
" id="DejaVuSans-87"/>
    </defs>
    <g transform="translate(78.885234 366.56)scale(0.2 -0.2)">
     <use xlink:href="#DejaVuSans-78"/>
     <use x="74.804688" xlink:href="#DejaVuSans-101"/>
     <use x="136.328125" xlink:href="#DejaVuSans-105"/>
     <use x="164.111328" xlink:href="#DejaVuSans-103"/>
     <use x="227.587891" xlink:href="#DejaVuSans-104"/>
     <use x="290.966797" xlink:href="#DejaVuSans-98"/>
     <use x="354.443359" xlink:href="#DejaVuSans-111"/>
     <use x="415.625" xlink:href="#DejaVuSans-114"/>
     <use x="454.988281" xlink:href="#DejaVuSans-104"/>
     <use x="518.367188" xlink:href="#DejaVuSans-111"/>
     <use x="579.548828" xlink:href="#DejaVuSans-111"/>
     <use x="640.730469" xlink:href="#DejaVuSans-100"/>
     <use x="704.207031" xlink:href="#DejaVuSans-58"/>
     <use x="737.898438" xlink:href="#DejaVuSans-32"/>
     <use x="769.685547" xlink:href="#DejaVuSans-83"/>
     <use x="833.162109" xlink:href="#DejaVuSans-97"/>
     <use x="894.441406" xlink:href="#DejaVuSans-119"/>
     <use x="976.228516" xlink:href="#DejaVuSans-121"/>
     <use x="1035.408203" xlink:href="#DejaVuSans-101"/>
     <use x="1096.931641" xlink:href="#DejaVuSans-114"/>
     <use x="1138.044922" xlink:href="#DejaVuSans-87"/>
    </g>
   </g>
  </g>
  <g id="axes_6">
   <g id="patch_42">
    <path d="M 371.438594 652.12 
L 655.142813 652.12 
L 655.142813 372.56 
L 371.438594 372.56 
z
" style="fill:#ffffff;"/>
   </g>
   <g id="patch_43">
    <path clip-path="url(#p3131d18ada)" d="z
" style="fill:#72b6a1;"/>
   </g>
   <g id="patch_44">
    <path clip-path="url(#p3131d18ada)" d="M 433.853522 652.12 
L 479.246197 652.12 
L 479.246197 560.681424 
L 433.853522 560.681424 
z
" style="fill:#e99675;"/>
   </g>
   <g id="patch_45">
    <path clip-path="url(#p3131d18ada)" d="M 490.594366 652.12 
L 535.987041 652.12 
L 535.987041 622.536931 
L 490.594366 622.536931 
z
" style="fill:#95a3c3;"/>
   </g>
   <g id="patch_46">
    <path clip-path="url(#p3131d18ada)" d="z
" style="fill:#db96c0;"/>
   </g>
   <g id="patch_47">
    <path clip-path="url(#p3131d18ada)" d="z
" style="fill:#a2c865;"/>
   </g>
   <g id="matplotlib.axis_11">
    <g id="xtick_26">
     <g id="line2d_51">
      <g>
       <use style="stroke:#000000;stroke-width:0.8;" x="399.809016" xlink:href="#mc301e3ac18" y="652.12"/>
      </g>
     </g>
     <g id="text_44">
      <!-- RL -->
      <g transform="translate(388.540734 672.797188)scale(0.18 -0.18)">
       <use xlink:href="#DejaVuSans-82"/>
       <use x="69.482422" xlink:href="#DejaVuSans-76"/>
      </g>
     </g>
    </g>
    <g id="xtick_27">
     <g id="line2d_52">
      <g>
       <use style="stroke:#000000;stroke-width:0.8;" x="456.549859" xlink:href="#mc301e3ac18" y="652.12"/>
      </g>
     </g>
     <g id="text_45">
      <!-- RM -->
      <g transform="translate(442.530953 672.797188)scale(0.18 -0.18)">
       <use xlink:href="#DejaVuSans-82"/>
       <use x="69.482422" xlink:href="#DejaVuSans-77"/>
      </g>
     </g>
    </g>
    <g id="xtick_28">
     <g id="line2d_53">
      <g>
       <use style="stroke:#000000;stroke-width:0.8;" x="513.290703" xlink:href="#mc301e3ac18" y="652.12"/>
      </g>
     </g>
     <g id="text_46">
      <!-- C (all) -->
      <g transform="translate(486.607109 672.797188)scale(0.18 -0.18)">
       <use xlink:href="#DejaVuSans-67"/>
       <use x="69.824219" xlink:href="#DejaVuSans-32"/>
       <use x="101.611328" xlink:href="#DejaVuSans-40"/>
       <use x="140.625" xlink:href="#DejaVuSans-97"/>
       <use x="201.904297" xlink:href="#DejaVuSans-108"/>
       <use x="229.6875" xlink:href="#DejaVuSans-108"/>
       <use x="257.470703" xlink:href="#DejaVuSans-41"/>
      </g>
     </g>
    </g>
    <g id="xtick_29">
     <g id="line2d_54">
      <g>
       <use style="stroke:#000000;stroke-width:0.8;" x="570.031547" xlink:href="#mc301e3ac18" y="652.12"/>
      </g>
     </g>
     <g id="text_47">
      <!-- FV -->
      <g transform="translate(558.698578 672.797188)scale(0.18 -0.18)">
       <use xlink:href="#DejaVuSans-70"/>
       <use x="57.519531" xlink:href="#DejaVuSans-86"/>
      </g>
     </g>
    </g>
    <g id="xtick_30">
     <g id="line2d_55">
      <g>
       <use style="stroke:#000000;stroke-width:0.8;" x="626.772391" xlink:href="#mc301e3ac18" y="652.12"/>
      </g>
     </g>
     <g id="text_48">
      <!-- RH -->
      <g transform="translate(613.750516 672.797188)scale(0.18 -0.18)">
       <use xlink:href="#DejaVuSans-82"/>
       <use x="69.482422" xlink:href="#DejaVuSans-72"/>
      </g>
     </g>
    </g>
    <g id="text_49">
     <!-- MSZoning Types -->
     <g transform="translate(432.190703 695.7375)scale(0.2 -0.2)">
      <use xlink:href="#DejaVuSans-77"/>
      <use x="86.279297" xlink:href="#DejaVuSans-83"/>
      <use x="149.755859" xlink:href="#DejaVuSans-90"/>
      <use x="218.261719" xlink:href="#DejaVuSans-111"/>
      <use x="279.443359" xlink:href="#DejaVuSans-110"/>
      <use x="342.822266" xlink:href="#DejaVuSans-105"/>
      <use x="370.605469" xlink:href="#DejaVuSans-110"/>
      <use x="433.984375" xlink:href="#DejaVuSans-103"/>
      <use x="497.460938" xlink:href="#DejaVuSans-32"/>
      <use x="529.248047" xlink:href="#DejaVuSans-84"/>
      <use x="574.707031" xlink:href="#DejaVuSans-121"/>
      <use x="633.886719" xlink:href="#DejaVuSans-112"/>
      <use x="697.363281" xlink:href="#DejaVuSans-101"/>
      <use x="758.886719" xlink:href="#DejaVuSans-115"/>
     </g>
    </g>
   </g>
   <g id="matplotlib.axis_12">
    <g id="ytick_26">
     <g id="line2d_56">
      <g>
       <use style="stroke:#000000;stroke-width:0.8;" x="371.438594" xlink:href="#m1a8aec11ad" y="652.12"/>
      </g>
     </g>
    </g>
    <g id="ytick_27">
     <g id="line2d_57">
      <g>
       <use style="stroke:#000000;stroke-width:0.8;" x="371.438594" xlink:href="#m1a8aec11ad" y="584.885753"/>
      </g>
     </g>
    </g>
    <g id="ytick_28">
     <g id="line2d_58">
      <g>
       <use style="stroke:#000000;stroke-width:0.8;" x="371.438594" xlink:href="#m1a8aec11ad" y="517.651506"/>
      </g>
     </g>
    </g>
    <g id="ytick_29">
     <g id="line2d_59">
      <g>
       <use style="stroke:#000000;stroke-width:0.8;" x="371.438594" xlink:href="#m1a8aec11ad" y="450.417258"/>
      </g>
     </g>
    </g>
    <g id="ytick_30">
     <g id="line2d_60">
      <g>
       <use style="stroke:#000000;stroke-width:0.8;" x="371.438594" xlink:href="#m1a8aec11ad" y="383.183011"/>
      </g>
     </g>
    </g>
   </g>
   <g id="patch_48">
    <path d="M 371.438594 652.12 
L 371.438594 372.56 
" style="fill:none;stroke:#000000;stroke-linecap:square;stroke-linejoin:miter;stroke-width:0.8;"/>
   </g>
   <g id="patch_49">
    <path d="M 371.438594 652.12 
L 655.142813 652.12 
" style="fill:none;stroke:#000000;stroke-linecap:square;stroke-linejoin:miter;stroke-width:0.8;"/>
   </g>
   <g id="text_50">
    <!-- Neighborhood: IDOTRR -->
    <defs>
     <path d="M 9.8125 72.90625 
L 19.671875 72.90625 
L 19.671875 0 
L 9.8125 0 
z
" id="DejaVuSans-73"/>
     <path d="M 19.671875 64.796875 
L 19.671875 8.109375 
L 31.59375 8.109375 
Q 46.6875 8.109375 53.6875 14.9375 
Q 60.6875 21.78125 60.6875 36.53125 
Q 60.6875 51.171875 53.6875 57.984375 
Q 46.6875 64.796875 31.59375 64.796875 
z
M 9.8125 72.90625 
L 30.078125 72.90625 
Q 51.265625 72.90625 61.171875 64.09375 
Q 71.09375 55.28125 71.09375 36.53125 
Q 71.09375 17.671875 61.125 8.828125 
Q 51.171875 0 30.078125 0 
L 9.8125 0 
z
" id="DejaVuSans-68"/>
    </defs>
    <g transform="translate(397.792266 366.56)scale(0.2 -0.2)">
     <use xlink:href="#DejaVuSans-78"/>
     <use x="74.804688" xlink:href="#DejaVuSans-101"/>
     <use x="136.328125" xlink:href="#DejaVuSans-105"/>
     <use x="164.111328" xlink:href="#DejaVuSans-103"/>
     <use x="227.587891" xlink:href="#DejaVuSans-104"/>
     <use x="290.966797" xlink:href="#DejaVuSans-98"/>
     <use x="354.443359" xlink:href="#DejaVuSans-111"/>
     <use x="415.625" xlink:href="#DejaVuSans-114"/>
     <use x="454.988281" xlink:href="#DejaVuSans-104"/>
     <use x="518.367188" xlink:href="#DejaVuSans-111"/>
     <use x="579.548828" xlink:href="#DejaVuSans-111"/>
     <use x="640.730469" xlink:href="#DejaVuSans-100"/>
     <use x="704.207031" xlink:href="#DejaVuSans-58"/>
     <use x="737.898438" xlink:href="#DejaVuSans-32"/>
     <use x="769.685547" xlink:href="#DejaVuSans-73"/>
     <use x="799.177734" xlink:href="#DejaVuSans-68"/>
     <use x="876.179688" xlink:href="#DejaVuSans-79"/>
     <use x="954.890625" xlink:href="#DejaVuSans-84"/>
     <use x="1015.974609" xlink:href="#DejaVuSans-82"/>
     <use x="1085.457031" xlink:href="#DejaVuSans-82"/>
    </g>
   </g>
  </g>
  <g id="axes_7">
   <g id="patch_50">
    <path d="M 682.147187 652.12 
L 965.851406 652.12 
L 965.851406 372.56 
L 682.147187 372.56 
z
" style="fill:#ffffff;"/>
   </g>
   <g id="patch_51">
    <path clip-path="url(#p6eb72bffe0)" d="M 687.821272 652.12 
L 733.213947 652.12 
L 733.213947 618.502876 
L 687.821272 618.502876 
z
" style="fill:#72b6a1;"/>
   </g>
   <g id="patch_52">
    <path clip-path="url(#p6eb72bffe0)" d="M 744.562116 652.12 
L 789.954791 652.12 
L 789.954791 648.085945 
L 744.562116 648.085945 
z
" style="fill:#e99675;"/>
   </g>
   <g id="patch_53">
    <path clip-path="url(#p6eb72bffe0)" d="z
" style="fill:#95a3c3;"/>
   </g>
   <g id="patch_54">
    <path clip-path="url(#p6eb72bffe0)" d="z
" style="fill:#db96c0;"/>
   </g>
   <g id="patch_55">
    <path clip-path="url(#p6eb72bffe0)" d="z
" style="fill:#a2c865;"/>
   </g>
   <g id="matplotlib.axis_13">
    <g id="xtick_31">
     <g id="line2d_61">
      <g>
       <use style="stroke:#000000;stroke-width:0.8;" x="710.517609" xlink:href="#mc301e3ac18" y="652.12"/>
      </g>
     </g>
     <g id="text_51">
      <!-- RL -->
      <g transform="translate(699.249328 672.797188)scale(0.18 -0.18)">
       <use xlink:href="#DejaVuSans-82"/>
       <use x="69.482422" xlink:href="#DejaVuSans-76"/>
      </g>
     </g>
    </g>
    <g id="xtick_32">
     <g id="line2d_62">
      <g>
       <use style="stroke:#000000;stroke-width:0.8;" x="767.258453" xlink:href="#mc301e3ac18" y="652.12"/>
      </g>
     </g>
     <g id="text_52">
      <!-- RM -->
      <g transform="translate(753.239547 672.797188)scale(0.18 -0.18)">
       <use xlink:href="#DejaVuSans-82"/>
       <use x="69.482422" xlink:href="#DejaVuSans-77"/>
      </g>
     </g>
    </g>
    <g id="xtick_33">
     <g id="line2d_63">
      <g>
       <use style="stroke:#000000;stroke-width:0.8;" x="823.999297" xlink:href="#mc301e3ac18" y="652.12"/>
      </g>
     </g>
     <g id="text_53">
      <!-- C (all) -->
      <g transform="translate(797.315703 672.797188)scale(0.18 -0.18)">
       <use xlink:href="#DejaVuSans-67"/>
       <use x="69.824219" xlink:href="#DejaVuSans-32"/>
       <use x="101.611328" xlink:href="#DejaVuSans-40"/>
       <use x="140.625" xlink:href="#DejaVuSans-97"/>
       <use x="201.904297" xlink:href="#DejaVuSans-108"/>
       <use x="229.6875" xlink:href="#DejaVuSans-108"/>
       <use x="257.470703" xlink:href="#DejaVuSans-41"/>
      </g>
     </g>
    </g>
    <g id="xtick_34">
     <g id="line2d_64">
      <g>
       <use style="stroke:#000000;stroke-width:0.8;" x="880.740141" xlink:href="#mc301e3ac18" y="652.12"/>
      </g>
     </g>
     <g id="text_54">
      <!-- FV -->
      <g transform="translate(869.407172 672.797188)scale(0.18 -0.18)">
       <use xlink:href="#DejaVuSans-70"/>
       <use x="57.519531" xlink:href="#DejaVuSans-86"/>
      </g>
     </g>
    </g>
    <g id="xtick_35">
     <g id="line2d_65">
      <g>
       <use style="stroke:#000000;stroke-width:0.8;" x="937.480984" xlink:href="#mc301e3ac18" y="652.12"/>
      </g>
     </g>
     <g id="text_55">
      <!-- RH -->
      <g transform="translate(924.459109 672.797188)scale(0.18 -0.18)">
       <use xlink:href="#DejaVuSans-82"/>
       <use x="69.482422" xlink:href="#DejaVuSans-72"/>
      </g>
     </g>
    </g>
    <g id="text_56">
     <!-- MSZoning Types -->
     <g transform="translate(742.899297 695.7375)scale(0.2 -0.2)">
      <use xlink:href="#DejaVuSans-77"/>
      <use x="86.279297" xlink:href="#DejaVuSans-83"/>
      <use x="149.755859" xlink:href="#DejaVuSans-90"/>
      <use x="218.261719" xlink:href="#DejaVuSans-111"/>
      <use x="279.443359" xlink:href="#DejaVuSans-110"/>
      <use x="342.822266" xlink:href="#DejaVuSans-105"/>
      <use x="370.605469" xlink:href="#DejaVuSans-110"/>
      <use x="433.984375" xlink:href="#DejaVuSans-103"/>
      <use x="497.460938" xlink:href="#DejaVuSans-32"/>
      <use x="529.248047" xlink:href="#DejaVuSans-84"/>
      <use x="574.707031" xlink:href="#DejaVuSans-121"/>
      <use x="633.886719" xlink:href="#DejaVuSans-112"/>
      <use x="697.363281" xlink:href="#DejaVuSans-101"/>
      <use x="758.886719" xlink:href="#DejaVuSans-115"/>
     </g>
    </g>
   </g>
   <g id="matplotlib.axis_14">
    <g id="ytick_31">
     <g id="line2d_66">
      <g>
       <use style="stroke:#000000;stroke-width:0.8;" x="682.147187" xlink:href="#m1a8aec11ad" y="652.12"/>
      </g>
     </g>
    </g>
    <g id="ytick_32">
     <g id="line2d_67">
      <g>
       <use style="stroke:#000000;stroke-width:0.8;" x="682.147187" xlink:href="#m1a8aec11ad" y="584.885753"/>
      </g>
     </g>
    </g>
    <g id="ytick_33">
     <g id="line2d_68">
      <g>
       <use style="stroke:#000000;stroke-width:0.8;" x="682.147187" xlink:href="#m1a8aec11ad" y="517.651506"/>
      </g>
     </g>
    </g>
    <g id="ytick_34">
     <g id="line2d_69">
      <g>
       <use style="stroke:#000000;stroke-width:0.8;" x="682.147187" xlink:href="#m1a8aec11ad" y="450.417258"/>
      </g>
     </g>
    </g>
    <g id="ytick_35">
     <g id="line2d_70">
      <g>
       <use style="stroke:#000000;stroke-width:0.8;" x="682.147187" xlink:href="#m1a8aec11ad" y="383.183011"/>
      </g>
     </g>
    </g>
   </g>
   <g id="patch_56">
    <path d="M 682.147187 652.12 
L 682.147187 372.56 
" style="fill:none;stroke:#000000;stroke-linecap:square;stroke-linejoin:miter;stroke-width:0.8;"/>
   </g>
   <g id="patch_57">
    <path d="M 682.147187 652.12 
L 965.851406 652.12 
" style="fill:none;stroke:#000000;stroke-linecap:square;stroke-linejoin:miter;stroke-width:0.8;"/>
   </g>
   <g id="text_57">
    <!-- Neighborhood: Blmngtn -->
    <g transform="translate(704.703984 366.56)scale(0.2 -0.2)">
     <use xlink:href="#DejaVuSans-78"/>
     <use x="74.804688" xlink:href="#DejaVuSans-101"/>
     <use x="136.328125" xlink:href="#DejaVuSans-105"/>
     <use x="164.111328" xlink:href="#DejaVuSans-103"/>
     <use x="227.587891" xlink:href="#DejaVuSans-104"/>
     <use x="290.966797" xlink:href="#DejaVuSans-98"/>
     <use x="354.443359" xlink:href="#DejaVuSans-111"/>
     <use x="415.625" xlink:href="#DejaVuSans-114"/>
     <use x="454.988281" xlink:href="#DejaVuSans-104"/>
     <use x="518.367188" xlink:href="#DejaVuSans-111"/>
     <use x="579.548828" xlink:href="#DejaVuSans-111"/>
     <use x="640.730469" xlink:href="#DejaVuSans-100"/>
     <use x="704.207031" xlink:href="#DejaVuSans-58"/>
     <use x="737.898438" xlink:href="#DejaVuSans-32"/>
     <use x="769.685547" xlink:href="#DejaVuSans-66"/>
     <use x="838.289062" xlink:href="#DejaVuSans-108"/>
     <use x="866.072266" xlink:href="#DejaVuSans-109"/>
     <use x="963.484375" xlink:href="#DejaVuSans-110"/>
     <use x="1026.863281" xlink:href="#DejaVuSans-103"/>
     <use x="1090.339844" xlink:href="#DejaVuSans-116"/>
     <use x="1129.548828" xlink:href="#DejaVuSans-110"/>
    </g>
   </g>
  </g>
  <g id="axes_8">
   <g id="patch_58">
    <path d="M 992.855781 652.12 
L 1276.56 652.12 
L 1276.56 372.56 
L 992.855781 372.56 
z
" style="fill:#ffffff;"/>
   </g>
   <g id="patch_59">
    <path clip-path="url(#p4be1e8a738)" d="M 998.529866 652.12 
L 1043.922541 652.12 
L 1043.922541 601.021972 
L 998.529866 601.021972 
z
" style="fill:#72b6a1;"/>
   </g>
   <g id="patch_60">
    <path clip-path="url(#p4be1e8a738)" d="z
" style="fill:#e99675;"/>
   </g>
   <g id="patch_61">
    <path clip-path="url(#p4be1e8a738)" d="M 1112.011553 652.12 
L 1157.404228 652.12 
L 1157.404228 650.775315 
L 1112.011553 650.775315 
z
" style="fill:#95a3c3;"/>
   </g>
   <g id="patch_62">
    <path clip-path="url(#p4be1e8a738)" d="z
" style="fill:#db96c0;"/>
   </g>
   <g id="patch_63">
    <path clip-path="url(#p4be1e8a738)" d="M 1225.493241 652.12 
L 1270.885916 652.12 
L 1270.885916 640.017835 
L 1225.493241 640.017835 
z
" style="fill:#a2c865;"/>
   </g>
   <g id="matplotlib.axis_15">
    <g id="xtick_36">
     <g id="line2d_71">
      <g>
       <use style="stroke:#000000;stroke-width:0.8;" x="1021.226203" xlink:href="#mc301e3ac18" y="652.12"/>
      </g>
     </g>
     <g id="text_58">
      <!-- RL -->
      <g transform="translate(1009.957922 672.797188)scale(0.18 -0.18)">
       <use xlink:href="#DejaVuSans-82"/>
       <use x="69.482422" xlink:href="#DejaVuSans-76"/>
      </g>
     </g>
    </g>
    <g id="xtick_37">
     <g id="line2d_72">
      <g>
       <use style="stroke:#000000;stroke-width:0.8;" x="1077.967047" xlink:href="#mc301e3ac18" y="652.12"/>
      </g>
     </g>
     <g id="text_59">
      <!-- RM -->
      <g transform="translate(1063.948141 672.797188)scale(0.18 -0.18)">
       <use xlink:href="#DejaVuSans-82"/>
       <use x="69.482422" xlink:href="#DejaVuSans-77"/>
      </g>
     </g>
    </g>
    <g id="xtick_38">
     <g id="line2d_73">
      <g>
       <use style="stroke:#000000;stroke-width:0.8;" x="1134.707891" xlink:href="#mc301e3ac18" y="652.12"/>
      </g>
     </g>
     <g id="text_60">
      <!-- C (all) -->
      <g transform="translate(1108.024297 672.797188)scale(0.18 -0.18)">
       <use xlink:href="#DejaVuSans-67"/>
       <use x="69.824219" xlink:href="#DejaVuSans-32"/>
       <use x="101.611328" xlink:href="#DejaVuSans-40"/>
       <use x="140.625" xlink:href="#DejaVuSans-97"/>
       <use x="201.904297" xlink:href="#DejaVuSans-108"/>
       <use x="229.6875" xlink:href="#DejaVuSans-108"/>
       <use x="257.470703" xlink:href="#DejaVuSans-41"/>
      </g>
     </g>
    </g>
    <g id="xtick_39">
     <g id="line2d_74">
      <g>
       <use style="stroke:#000000;stroke-width:0.8;" x="1191.448734" xlink:href="#mc301e3ac18" y="652.12"/>
      </g>
     </g>
     <g id="text_61">
      <!-- FV -->
      <g transform="translate(1180.115766 672.797188)scale(0.18 -0.18)">
       <use xlink:href="#DejaVuSans-70"/>
       <use x="57.519531" xlink:href="#DejaVuSans-86"/>
      </g>
     </g>
    </g>
    <g id="xtick_40">
     <g id="line2d_75">
      <g>
       <use style="stroke:#000000;stroke-width:0.8;" x="1248.189578" xlink:href="#mc301e3ac18" y="652.12"/>
      </g>
     </g>
     <g id="text_62">
      <!-- RH -->
      <g transform="translate(1235.167703 672.797188)scale(0.18 -0.18)">
       <use xlink:href="#DejaVuSans-82"/>
       <use x="69.482422" xlink:href="#DejaVuSans-72"/>
      </g>
     </g>
    </g>
    <g id="text_63">
     <!-- MSZoning Types -->
     <g transform="translate(1053.607891 695.7375)scale(0.2 -0.2)">
      <use xlink:href="#DejaVuSans-77"/>
      <use x="86.279297" xlink:href="#DejaVuSans-83"/>
      <use x="149.755859" xlink:href="#DejaVuSans-90"/>
      <use x="218.261719" xlink:href="#DejaVuSans-111"/>
      <use x="279.443359" xlink:href="#DejaVuSans-110"/>
      <use x="342.822266" xlink:href="#DejaVuSans-105"/>
      <use x="370.605469" xlink:href="#DejaVuSans-110"/>
      <use x="433.984375" xlink:href="#DejaVuSans-103"/>
      <use x="497.460938" xlink:href="#DejaVuSans-32"/>
      <use x="529.248047" xlink:href="#DejaVuSans-84"/>
      <use x="574.707031" xlink:href="#DejaVuSans-121"/>
      <use x="633.886719" xlink:href="#DejaVuSans-112"/>
      <use x="697.363281" xlink:href="#DejaVuSans-101"/>
      <use x="758.886719" xlink:href="#DejaVuSans-115"/>
     </g>
    </g>
   </g>
   <g id="matplotlib.axis_16">
    <g id="ytick_36">
     <g id="line2d_76">
      <g>
       <use style="stroke:#000000;stroke-width:0.8;" x="992.855781" xlink:href="#m1a8aec11ad" y="652.12"/>
      </g>
     </g>
    </g>
    <g id="ytick_37">
     <g id="line2d_77">
      <g>
       <use style="stroke:#000000;stroke-width:0.8;" x="992.855781" xlink:href="#m1a8aec11ad" y="584.885753"/>
      </g>
     </g>
    </g>
    <g id="ytick_38">
     <g id="line2d_78">
      <g>
       <use style="stroke:#000000;stroke-width:0.8;" x="992.855781" xlink:href="#m1a8aec11ad" y="517.651506"/>
      </g>
     </g>
    </g>
    <g id="ytick_39">
     <g id="line2d_79">
      <g>
       <use style="stroke:#000000;stroke-width:0.8;" x="992.855781" xlink:href="#m1a8aec11ad" y="450.417258"/>
      </g>
     </g>
    </g>
    <g id="ytick_40">
     <g id="line2d_80">
      <g>
       <use style="stroke:#000000;stroke-width:0.8;" x="992.855781" xlink:href="#m1a8aec11ad" y="383.183011"/>
      </g>
     </g>
    </g>
   </g>
   <g id="patch_64">
    <path d="M 992.855781 652.12 
L 992.855781 372.56 
" style="fill:none;stroke:#000000;stroke-linecap:square;stroke-linejoin:miter;stroke-width:0.8;"/>
   </g>
   <g id="patch_65">
    <path d="M 992.855781 652.12 
L 1276.56 652.12 
" style="fill:none;stroke:#000000;stroke-linecap:square;stroke-linejoin:miter;stroke-width:0.8;"/>
   </g>
   <g id="text_64">
    <!-- Neighborhood: SWISU -->
    <defs>
     <path d="M 8.6875 72.90625 
L 18.609375 72.90625 
L 18.609375 28.609375 
Q 18.609375 16.890625 22.84375 11.734375 
Q 27.09375 6.59375 36.625 6.59375 
Q 46.09375 6.59375 50.34375 11.734375 
Q 54.59375 16.890625 54.59375 28.609375 
L 54.59375 72.90625 
L 64.5 72.90625 
L 64.5 27.390625 
Q 64.5 13.140625 57.4375 5.859375 
Q 50.390625 -1.421875 36.625 -1.421875 
Q 22.796875 -1.421875 15.734375 5.859375 
Q 8.6875 13.140625 8.6875 27.390625 
z
" id="DejaVuSans-85"/>
    </defs>
    <g transform="translate(1024.882891 366.56)scale(0.2 -0.2)">
     <use xlink:href="#DejaVuSans-78"/>
     <use x="74.804688" xlink:href="#DejaVuSans-101"/>
     <use x="136.328125" xlink:href="#DejaVuSans-105"/>
     <use x="164.111328" xlink:href="#DejaVuSans-103"/>
     <use x="227.587891" xlink:href="#DejaVuSans-104"/>
     <use x="290.966797" xlink:href="#DejaVuSans-98"/>
     <use x="354.443359" xlink:href="#DejaVuSans-111"/>
     <use x="415.625" xlink:href="#DejaVuSans-114"/>
     <use x="454.988281" xlink:href="#DejaVuSans-104"/>
     <use x="518.367188" xlink:href="#DejaVuSans-111"/>
     <use x="579.548828" xlink:href="#DejaVuSans-111"/>
     <use x="640.730469" xlink:href="#DejaVuSans-100"/>
     <use x="704.207031" xlink:href="#DejaVuSans-58"/>
     <use x="737.898438" xlink:href="#DejaVuSans-32"/>
     <use x="769.685547" xlink:href="#DejaVuSans-83"/>
     <use x="833.162109" xlink:href="#DejaVuSans-87"/>
     <use x="932.039062" xlink:href="#DejaVuSans-73"/>
     <use x="961.53125" xlink:href="#DejaVuSans-83"/>
     <use x="1025.007812" xlink:href="#DejaVuSans-85"/>
    </g>
   </g>
  </g>
 </g>
 <defs>
  <clipPath id="p2ca3e960af">
   <rect height="279.56" width="283.704219" x="60.73" y="41.28"/>
  </clipPath>
  <clipPath id="p3523334d39">
   <rect height="279.56" width="283.704219" x="371.438594" y="41.28"/>
  </clipPath>
  <clipPath id="p5f71029126">
   <rect height="279.56" width="283.704219" x="682.147187" y="41.28"/>
  </clipPath>
  <clipPath id="p67b39ef7bf">
   <rect height="279.56" width="283.704219" x="992.855781" y="41.28"/>
  </clipPath>
  <clipPath id="pca82dddfa3">
   <rect height="279.56" width="283.704219" x="60.73" y="372.56"/>
  </clipPath>
  <clipPath id="p3131d18ada">
   <rect height="279.56" width="283.704219" x="371.438594" y="372.56"/>
  </clipPath>
  <clipPath id="p6eb72bffe0">
   <rect height="279.56" width="283.704219" x="682.147187" y="372.56"/>
  </clipPath>
  <clipPath id="p4be1e8a738">
   <rect height="279.56" width="283.704219" x="992.855781" y="372.56"/>
  </clipPath>
 </defs>
</svg>
