<?xml version="1.0" encoding="utf-8" standalone="no"?>
<!DOCTYPE svg PUBLIC "-//W3C//DTD SVG 1.1//EN"
  "http://www.w3.org/Graphics/SVG/1.1/DTD/svg11.dtd">
<!-- Created with matplotlib (https://matplotlib.org/) -->
<svg height="576pt" version="1.1" viewBox="0 0 576 576" width="576pt" xmlns="http://www.w3.org/2000/svg" xmlns:xlink="http://www.w3.org/1999/xlink">
 <defs>
  <style type="text/css">
*{stroke-linecap:butt;stroke-linejoin:round;}
  </style>
 </defs>
 <g id="figure_1">
  <g id="patch_1">
   <path d="M 0 576 
L 576 576 
L 576 0 
L 0 0 
z
" style="fill:#ffffff;"/>
  </g>
  <g id="axes_1">
   <g id="patch_2">
    <path d="M 72 512.64 
L 518.4 512.64 
L 518.4 69.12 
L 72 69.12 
z
" style="fill:#ffffff;"/>
   </g>
   <g id="PathCollection_1">
    <defs>
     <path d="M 0 3 
C 0.795609 3 1.55874 2.683901 2.12132 2.12132 
C 2.683901 1.55874 3 0.795609 3 0 
C 3 -0.795609 2.683901 -1.55874 2.12132 -2.12132 
C 1.55874 -2.683901 0.795609 -3 0 -3 
C -0.795609 -3 -1.55874 -2.683901 -2.12132 -2.12132 
C -2.683901 -1.55874 -3 -0.795609 -3 0 
C -3 0.795609 -2.683901 1.55874 -2.12132 2.12132 
C -1.55874 2.683901 -0.795609 3 0 3 
z
" id="m93378bad86" style="stroke:#8da0cb;"/>
    </defs>
    <g clip-path="url(#p62214dafef)">
     <use style="fill:#8da0cb;stroke:#8da0cb;" x="134.72478" xlink:href="#m93378bad86" y="442.942209"/>
     <use style="fill:#8da0cb;stroke:#8da0cb;" x="163.07118" xlink:href="#m93378bad86" y="453.0816"/>
     <use style="fill:#8da0cb;stroke:#8da0cb;" x="119.67552" xlink:href="#m93378bad86" y="444.681346"/>
     <use style="fill:#8da0cb;stroke:#8da0cb;" x="123.2244" xlink:href="#m93378bad86" y="444.271227"/>
     <use style="fill:#8da0cb;stroke:#8da0cb;" x="123.336" xlink:href="#m93378bad86" y="444.25833"/>
     <use style="fill:#8da0cb;stroke:#8da0cb;" x="143.54676" xlink:href="#m93378bad86" y="451.8144"/>
     <use style="fill:#8da0cb;stroke:#8da0cb;" x="148.34556" xlink:href="#m93378bad86" y="429.0048"/>
     <use style="fill:#8da0cb;stroke:#8da0cb;" x="191.70774" xlink:href="#m93378bad86" y="436.357088"/>
     <use style="fill:#8da0cb;stroke:#8da0cb;" x="167.09994" xlink:href="#m93378bad86" y="451.8144"/>
     <use style="fill:#8da0cb;stroke:#8da0cb;" x="125.0379" xlink:href="#m93378bad86" y="444.061653"/>
     <use style="fill:#8da0cb;stroke:#8da0cb;" x="154.60074" xlink:href="#m93378bad86" y="440.645284"/>
     <use style="fill:#8da0cb;stroke:#8da0cb;" x="134.0496" xlink:href="#m93378bad86" y="443.020235"/>
     <use style="fill:#8da0cb;stroke:#8da0cb;" x="169.22034" xlink:href="#m93378bad86" y="432.8064"/>
     <use style="fill:#8da0cb;stroke:#8da0cb;" x="127.50426" xlink:href="#m93378bad86" y="443.776634"/>
     <use style="fill:#8da0cb;stroke:#8da0cb;" x="113.69376" xlink:href="#m93378bad86" y="445.372616"/>
     <use style="fill:#8da0cb;stroke:#8da0cb;" x="148.29534" xlink:href="#m93378bad86" y="461.952"/>
     <use style="fill:#8da0cb;stroke:#8da0cb;" x="147.70944" xlink:href="#m93378bad86" y="458.1504"/>
     <use style="fill:#8da0cb;stroke:#8da0cb;" x="124.74774" xlink:href="#m93378bad86" y="444.095185"/>
     <use style="fill:#8da0cb;stroke:#8da0cb;" x="290.20032" xlink:href="#m93378bad86" y="420.1344"/>
     <use style="fill:#8da0cb;stroke:#8da0cb;" x="137.64312" xlink:href="#m93378bad86" y="396.0576"/>
     <use style="fill:#8da0cb;stroke:#8da0cb;" x="116.28846" xlink:href="#m93378bad86" y="465.7536"/>
     <use style="fill:#8da0cb;stroke:#8da0cb;" x="132.52068" xlink:href="#m93378bad86" y="472.0896"/>
     <use style="fill:#8da0cb;stroke:#8da0cb;" x="143.26776" xlink:href="#m93378bad86" y="441.954957"/>
     <use style="fill:#8da0cb;stroke:#8da0cb;" x="139.02138" xlink:href="#m93378bad86" y="413.7984"/>
     <use style="fill:#8da0cb;stroke:#8da0cb;" x="114.0732" xlink:href="#m93378bad86" y="445.328767"/>
     <use style="fill:#8da0cb;stroke:#8da0cb;" x="121.36068" xlink:href="#m93378bad86" y="440.4096"/>
     <use style="fill:#8da0cb;stroke:#8da0cb;" x="124.35156" xlink:href="#m93378bad86" y="394.7904"/>
     <use style="fill:#8da0cb;stroke:#8da0cb;" x="140.12622" xlink:href="#m93378bad86" y="422.6688"/>
     <use style="fill:#8da0cb;stroke:#8da0cb;" x="134.65224" xlink:href="#m93378bad86" y="437.8752"/>
     <use style="fill:#8da0cb;stroke:#8da0cb;" x="131.52186" xlink:href="#m93378bad86" y="458.1504"/>
     <use style="fill:#8da0cb;stroke:#8da0cb;" x="369.00666" xlink:href="#m93378bad86" y="415.867897"/>
     <use style="fill:#8da0cb;stroke:#8da0cb;" x="125.18298" xlink:href="#m93378bad86" y="444.044888"/>
     <use style="fill:#8da0cb;stroke:#8da0cb;" x="254.28744" xlink:href="#m93378bad86" y="429.125192"/>
     <use style="fill:#8da0cb;stroke:#8da0cb;" x="121.79592" xlink:href="#m93378bad86" y="440.4096"/>
     <use style="fill:#8da0cb;stroke:#8da0cb;" x="146.47068" xlink:href="#m93378bad86" y="441.584818"/>
     <use style="fill:#8da0cb;stroke:#8da0cb;" x="153.3843" xlink:href="#m93378bad86" y="440.785859"/>
     <use style="fill:#8da0cb;stroke:#8da0cb;" x="141.10272" xlink:href="#m93378bad86" y="442.205155"/>
     <use style="fill:#8da0cb;stroke:#8da0cb;" x="331.96662" xlink:href="#m93378bad86" y="446.7456"/>
     <use style="fill:#8da0cb;stroke:#8da0cb;" x="188.59968" xlink:href="#m93378bad86" y="450.5472"/>
     <use style="fill:#8da0cb;stroke:#8da0cb;" x="165.5766" xlink:href="#m93378bad86" y="439.1424"/>
     <use style="fill:#8da0cb;stroke:#8da0cb;" x="100.24596" xlink:href="#m93378bad86" y="446.926684"/>
     <use style="fill:#8da0cb;stroke:#8da0cb;" x="147.42486" xlink:href="#m93378bad86" y="441.47455"/>
     <use style="fill:#8da0cb;stroke:#8da0cb;" x="108.62154" xlink:href="#m93378bad86" y="445.958777"/>
     <use style="fill:#8da0cb;stroke:#8da0cb;" x="130.38354" xlink:href="#m93378bad86" y="421.4016"/>
     <use style="fill:#8da0cb;stroke:#8da0cb;" x="136.81728" xlink:href="#m93378bad86" y="442.700393"/>
     <use style="fill:#8da0cb;stroke:#8da0cb;" x="125.28342" xlink:href="#m93378bad86" y="474.624"/>
     <use style="fill:#8da0cb;stroke:#8da0cb;" x="370.55232" xlink:href="#m93378bad86" y="453.0816"/>
     <use style="fill:#8da0cb;stroke:#8da0cb;" x="112.46616" xlink:href="#m93378bad86" y="445.514481"/>
     <use style="fill:#8da0cb;stroke:#8da0cb;" x="127.3536" xlink:href="#m93378bad86" y="396.0576"/>
     <use style="fill:#8da0cb;stroke:#8da0cb;" x="139.72446" xlink:href="#m93378bad86" y="451.8144"/>
     <use style="fill:#8da0cb;stroke:#8da0cb;" x="146.0187" xlink:href="#m93378bad86" y="441.63705"/>
     <use style="fill:#8da0cb;stroke:#8da0cb;" x="112.32108" xlink:href="#m93378bad86" y="421.4016"/>
     <use style="fill:#8da0cb;stroke:#8da0cb;" x="232.13484" xlink:href="#m93378bad86" y="431.685212"/>
     <use style="fill:#8da0cb;stroke:#8da0cb;" x="125.27784" xlink:href="#m93378bad86" y="456.8832"/>
     <use style="fill:#8da0cb;stroke:#8da0cb;" x="164.89026" xlink:href="#m93378bad86" y="439.456196"/>
     <use style="fill:#8da0cb;stroke:#8da0cb;" x="158.61834" xlink:href="#m93378bad86" y="467.0208"/>
     <use style="fill:#8da0cb;stroke:#8da0cb;" x="111.06" xlink:href="#m93378bad86" y="445.676981"/>
     <use style="fill:#8da0cb;stroke:#8da0cb;" x="148.76964" xlink:href="#m93378bad86" y="456.8832"/>
     <use style="fill:#8da0cb;stroke:#8da0cb;" x="100.56402" xlink:href="#m93378bad86" y="449.28"/>
     <use style="fill:#8da0cb;stroke:#8da0cb;" x="154.91322" xlink:href="#m93378bad86" y="449.28"/>
     <use style="fill:#8da0cb;stroke:#8da0cb;" x="123.81588" xlink:href="#m93378bad86" y="444.202874"/>
     <use style="fill:#8da0cb;stroke:#8da0cb;" x="152.2125" xlink:href="#m93378bad86" y="440.921276"/>
     <use style="fill:#8da0cb;stroke:#8da0cb;" x="124.452" xlink:href="#m93378bad86" y="468.288"/>
     <use style="fill:#8da0cb;stroke:#8da0cb;" x="139.61844" xlink:href="#m93378bad86" y="458.1504"/>
     <use style="fill:#8da0cb;stroke:#8da0cb;" x="104.44212" xlink:href="#m93378bad86" y="446.441763"/>
     <use style="fill:#8da0cb;stroke:#8da0cb;" x="136.17" xlink:href="#m93378bad86" y="442.775195"/>
     <use style="fill:#8da0cb;stroke:#8da0cb;" x="148.3344" xlink:href="#m93378bad86" y="441.369441"/>
     <use style="fill:#8da0cb;stroke:#8da0cb;" x="133.38" xlink:href="#m93378bad86" y="443.097616"/>
     <use style="fill:#8da0cb;stroke:#8da0cb;" x="201.77406" xlink:href="#m93378bad86" y="299.7504"/>
     <use style="fill:#8da0cb;stroke:#8da0cb;" x="129.49632" xlink:href="#m93378bad86" y="443.546425"/>
     <use style="fill:#8da0cb;stroke:#8da0cb;" x="154.46124" xlink:href="#m93378bad86" y="440.661405"/>
     <use style="fill:#8da0cb;stroke:#8da0cb;" x="271.5408" xlink:href="#m93378bad86" y="363.1104"/>
     <use style="fill:#8da0cb;stroke:#8da0cb;" x="110.78658" xlink:href="#m93378bad86" y="465.7536"/>
     <use style="fill:#8da0cb;stroke:#8da0cb;" x="153.93672" xlink:href="#m93378bad86" y="398.592"/>
     <use style="fill:#8da0cb;stroke:#8da0cb;" x="128.81556" xlink:href="#m93378bad86" y="404.928"/>
     <use style="fill:#8da0cb;stroke:#8da0cb;" x="129.17268" xlink:href="#m93378bad86" y="443.583826"/>
     <use style="fill:#8da0cb;stroke:#8da0cb;" x="153.45684" xlink:href="#m93378bad86" y="403.6608"/>
     <use style="fill:#8da0cb;stroke:#8da0cb;" x="209.72556" xlink:href="#m93378bad86" y="434.274895"/>
     <use style="fill:#8da0cb;stroke:#8da0cb;" x="147.47508" xlink:href="#m93378bad86" y="441.468746"/>
     <use style="fill:#8da0cb;stroke:#8da0cb;" x="144.18288" xlink:href="#m93378bad86" y="441.849203"/>
     <use style="fill:#8da0cb;stroke:#8da0cb;" x="171.72018" xlink:href="#m93378bad86" y="438.66691"/>
     <use style="fill:#8da0cb;stroke:#8da0cb;" x="116.91342" xlink:href="#m93378bad86" y="449.28"/>
     <use style="fill:#8da0cb;stroke:#8da0cb;" x="132.05196" xlink:href="#m93378bad86" y="443.251088"/>
     <use style="fill:#8da0cb;stroke:#8da0cb;" x="154.47798" xlink:href="#m93378bad86" y="440.65947"/>
     <use style="fill:#8da0cb;stroke:#8da0cb;" x="187.95798" xlink:href="#m93378bad86" y="436.790422"/>
     <use style="fill:#8da0cb;stroke:#8da0cb;" x="154.1376" xlink:href="#m93378bad86" y="441.6768"/>
     <use style="fill:#8da0cb;stroke:#8da0cb;" x="141.95646" xlink:href="#m93378bad86" y="442.106494"/>
     <use style="fill:#8da0cb;stroke:#8da0cb;" x="155.09736" xlink:href="#m93378bad86" y="459.4176"/>
     <use style="fill:#8da0cb;stroke:#8da0cb;" x="157.12848" xlink:href="#m93378bad86" y="450.5472"/>
     <use style="fill:#8da0cb;stroke:#8da0cb;" x="186.63552" xlink:href="#m93378bad86" y="454.3488"/>
     <use style="fill:#8da0cb;stroke:#8da0cb;" x="181.8702" xlink:href="#m93378bad86" y="437.493944"/>
     <use style="fill:#8da0cb;stroke:#8da0cb;" x="217.87236" xlink:href="#m93378bad86" y="433.333427"/>
     <use style="fill:#8da0cb;stroke:#8da0cb;" x="169.27614" xlink:href="#m93378bad86" y="436.608"/>
     <use style="fill:#8da0cb;stroke:#8da0cb;" x="157.9878" xlink:href="#m93378bad86" y="463.2192"/>
     <use style="fill:#8da0cb;stroke:#8da0cb;" x="98.9793" xlink:href="#m93378bad86" y="480.96"/>
     <use style="fill:#8da0cb;stroke:#8da0cb;" x="167.31756" xlink:href="#m93378bad86" y="439.17569"/>
     <use style="fill:#8da0cb;stroke:#8da0cb;" x="134.496" xlink:href="#m93378bad86" y="442.968647"/>
     <use style="fill:#8da0cb;stroke:#8da0cb;" x="140.97438" xlink:href="#m93378bad86" y="402.3936"/>
     <use style="fill:#8da0cb;stroke:#8da0cb;" x="128.04552" xlink:href="#m93378bad86" y="436.608"/>
     <use style="fill:#8da0cb;stroke:#8da0cb;" x="112.71168" xlink:href="#m93378bad86" y="477.1584"/>
     <use style="fill:#8da0cb;stroke:#8da0cb;" x="124.30134" xlink:href="#m93378bad86" y="444.146773"/>
     <use style="fill:#8da0cb;stroke:#8da0cb;" x="202.03074" xlink:href="#m93378bad86" y="437.8752"/>
     <use style="fill:#8da0cb;stroke:#8da0cb;" x="160.69968" xlink:href="#m93378bad86" y="439.940472"/>
     <use style="fill:#8da0cb;stroke:#8da0cb;" x="131.985" xlink:href="#m93378bad86" y="443.258826"/>
     <use style="fill:#8da0cb;stroke:#8da0cb;" x="136.12536" xlink:href="#m93378bad86" y="458.1504"/>
     <use style="fill:#8da0cb;stroke:#8da0cb;" x="129.32892" xlink:href="#m93378bad86" y="443.56577"/>
     <use style="fill:#8da0cb;stroke:#8da0cb;" x="143.04456" xlink:href="#m93378bad86" y="441.98075"/>
     <use style="fill:#8da0cb;stroke:#8da0cb;" x="117.35424" xlink:href="#m93378bad86" y="445.4784"/>
     <use style="fill:#8da0cb;stroke:#8da0cb;" x="116.71812" xlink:href="#m93378bad86" y="445.023112"/>
     <use style="fill:#8da0cb;stroke:#8da0cb;" x="159.2433" xlink:href="#m93378bad86" y="440.108776"/>
     <use style="fill:#8da0cb;stroke:#8da0cb;" x="165.17484" xlink:href="#m93378bad86" y="439.423309"/>
     <use style="fill:#8da0cb;stroke:#8da0cb;" x="162.78102" xlink:href="#m93378bad86" y="439.699946"/>
     <use style="fill:#8da0cb;stroke:#8da0cb;" x="126.90162" xlink:href="#m93378bad86" y="443.846276"/>
     <use style="fill:#8da0cb;stroke:#8da0cb;" x="157.93758" xlink:href="#m93378bad86" y="445.4784"/>
     <use style="fill:#8da0cb;stroke:#8da0cb;" x="175.55922" xlink:href="#m93378bad86" y="441.6768"/>
     <use style="fill:#8da0cb;stroke:#8da0cb;" x="133.3242" xlink:href="#m93378bad86" y="389.7216"/>
     <use style="fill:#8da0cb;stroke:#8da0cb;" x="138.56382" xlink:href="#m93378bad86" y="442.498558"/>
     <use style="fill:#8da0cb;stroke:#8da0cb;" x="153.2727" xlink:href="#m93378bad86" y="458.1504"/>
     <use style="fill:#8da0cb;stroke:#8da0cb;" x="133.73712" xlink:href="#m93378bad86" y="484.7616"/>
     <use style="fill:#8da0cb;stroke:#8da0cb;" x="209.11176" xlink:href="#m93378bad86" y="434.345828"/>
     <use style="fill:#8da0cb;stroke:#8da0cb;" x="157.85946" xlink:href="#m93378bad86" y="440.268696"/>
     <use style="fill:#8da0cb;stroke:#8da0cb;" x="114.98274" xlink:href="#m93378bad86" y="445.223658"/>
     <use style="fill:#8da0cb;stroke:#8da0cb;" x="113.292" xlink:href="#m93378bad86" y="445.419045"/>
     <use style="fill:#8da0cb;stroke:#8da0cb;" x="185.1066" xlink:href="#m93378bad86" y="408.7296"/>
     <use style="fill:#8da0cb;stroke:#8da0cb;" x="151.07418" xlink:href="#m93378bad86" y="441.052823"/>
     <use style="fill:#8da0cb;stroke:#8da0cb;" x="136.17" xlink:href="#m93378bad86" y="442.775195"/>
     <use style="fill:#8da0cb;stroke:#8da0cb;" x="151.9614" xlink:href="#m93378bad86" y="461.952"/>
     <use style="fill:#8da0cb;stroke:#8da0cb;" x="126.2376" xlink:href="#m93378bad86" y="443.923013"/>
     <use style="fill:#8da0cb;stroke:#8da0cb;" x="154.9188" xlink:href="#m93378bad86" y="440.608528"/>
     <use style="fill:#8da0cb;stroke:#8da0cb;" x="132.8499" xlink:href="#m93378bad86" y="460.6848"/>
     <use style="fill:#8da0cb;stroke:#8da0cb;" x="125.78004" xlink:href="#m93378bad86" y="443.97589"/>
     <use style="fill:#8da0cb;stroke:#8da0cb;" x="217.48734" xlink:href="#m93378bad86" y="441.6768"/>
     <use style="fill:#8da0cb;stroke:#8da0cb;" x="82.48482" xlink:href="#m93378bad86" y="482.2272"/>
     <use style="fill:#8da0cb;stroke:#8da0cb;" x="128.62026" xlink:href="#m93378bad86" y="443.647665"/>
     <use style="fill:#8da0cb;stroke:#8da0cb;" x="114.7149" xlink:href="#m93378bad86" y="445.25461"/>
     <use style="fill:#8da0cb;stroke:#8da0cb;" x="362.01492" xlink:href="#m93378bad86" y="446.7456"/>
     <use style="fill:#8da0cb;stroke:#8da0cb;" x="122.16978" xlink:href="#m93378bad86" y="431.5392"/>
     <use style="fill:#8da0cb;stroke:#8da0cb;" x="148.18932" xlink:href="#m93378bad86" y="363.1104"/>
     <use style="fill:#8da0cb;stroke:#8da0cb;" x="167.80302" xlink:href="#m93378bad86" y="437.8752"/>
     <use style="fill:#8da0cb;stroke:#8da0cb;" x="131.99058" xlink:href="#m93378bad86" y="456.8832"/>
     <use style="fill:#8da0cb;stroke:#8da0cb;" x="142.93296" xlink:href="#m93378bad86" y="458.1504"/>
     <use style="fill:#8da0cb;stroke:#8da0cb;" x="152.11206" xlink:href="#m93378bad86" y="440.932883"/>
     <use style="fill:#8da0cb;stroke:#8da0cb;" x="117.99594" xlink:href="#m93378bad86" y="416.3328"/>
     <use style="fill:#8da0cb;stroke:#8da0cb;" x="136.2537" xlink:href="#m93378bad86" y="442.765522"/>
     <use style="fill:#8da0cb;stroke:#8da0cb;" x="151.33086" xlink:href="#m93378bad86" y="441.023161"/>
     <use style="fill:#8da0cb;stroke:#8da0cb;" x="132.3756" xlink:href="#m93378bad86" y="453.0816"/>
     <use style="fill:#8da0cb;stroke:#8da0cb;" x="140.92416" xlink:href="#m93378bad86" y="458.1504"/>
     <use style="fill:#8da0cb;stroke:#8da0cb;" x="122.11956" xlink:href="#m93378bad86" y="455.616"/>
     <use style="fill:#8da0cb;stroke:#8da0cb;" x="162.954" xlink:href="#m93378bad86" y="463.2192"/>
     <use style="fill:#8da0cb;stroke:#8da0cb;" x="168.12666" xlink:href="#m93378bad86" y="420.1344"/>
     <use style="fill:#8da0cb;stroke:#8da0cb;" x="125.3169" xlink:href="#m93378bad86" y="444.029411"/>
     <use style="fill:#8da0cb;stroke:#8da0cb;" x="214.2063" xlink:href="#m93378bad86" y="433.757088"/>
     <use style="fill:#8da0cb;stroke:#8da0cb;" x="192.41082" xlink:href="#m93378bad86" y="436.275838"/>
     <use style="fill:#8da0cb;stroke:#8da0cb;" x="172.68552" xlink:href="#m93378bad86" y="423.936"/>
     <use style="fill:#8da0cb;stroke:#8da0cb;" x="139.797" xlink:href="#m93378bad86" y="442.356048"/>
     <use style="fill:#8da0cb;stroke:#8da0cb;" x="143.78112" xlink:href="#m93378bad86" y="456.8832"/>
     <use style="fill:#8da0cb;stroke:#8da0cb;" x="127.39824" xlink:href="#m93378bad86" y="443.788886"/>
     <use style="fill:#8da0cb;stroke:#8da0cb;" x="129.64698" xlink:href="#m93378bad86" y="459.4176"/>
     <use style="fill:#8da0cb;stroke:#8da0cb;" x="291.76272" xlink:href="#m93378bad86" y="424.794437"/>
     <use style="fill:#8da0cb;stroke:#8da0cb;" x="145.25424" xlink:href="#m93378bad86" y="449.28"/>
     <use style="fill:#8da0cb;stroke:#8da0cb;" x="148.73058" xlink:href="#m93378bad86" y="459.4176"/>
     <use style="fill:#8da0cb;stroke:#8da0cb;" x="161.40834" xlink:href="#m93378bad86" y="437.8752"/>
     <use style="fill:#8da0cb;stroke:#8da0cb;" x="172.78596" xlink:href="#m93378bad86" y="436.608"/>
     <use style="fill:#8da0cb;stroke:#8da0cb;" x="140.58936" xlink:href="#m93378bad86" y="432.8064"/>
     <use style="fill:#8da0cb;stroke:#8da0cb;" x="161.57016" xlink:href="#m93378bad86" y="408.7296"/>
     <use style="fill:#8da0cb;stroke:#8da0cb;" x="156.91644" xlink:href="#m93378bad86" y="450.5472"/>
     <use style="fill:#8da0cb;stroke:#8da0cb;" x="123.93864" xlink:href="#m93378bad86" y="444.188687"/>
     <use style="fill:#8da0cb;stroke:#8da0cb;" x="144.83016" xlink:href="#m93378bad86" y="441.774401"/>
     <use style="fill:#8da0cb;stroke:#8da0cb;" x="129.85344" xlink:href="#m93378bad86" y="443.505155"/>
     <use style="fill:#8da0cb;stroke:#8da0cb;" x="112.04208" xlink:href="#m93378bad86" y="445.563489"/>
     <use style="fill:#8da0cb;stroke:#8da0cb;" x="120.4623" xlink:href="#m93378bad86" y="444.590423"/>
     <use style="fill:#8da0cb;stroke:#8da0cb;" x="129.9483" xlink:href="#m93378bad86" y="459.4176"/>
     <use style="fill:#8da0cb;stroke:#8da0cb;" x="124.83144" xlink:href="#m93378bad86" y="455.616"/>
     <use style="fill:#8da0cb;stroke:#8da0cb;" x="115.7472" xlink:href="#m93378bad86" y="464.4864"/>
    </g>
   </g>
   <g id="matplotlib.axis_1">
    <g id="xtick_1">
     <g id="line2d_1">
      <defs>
       <path d="M 0 0 
L 0 3.5 
" id="mb92eab6c75" style="stroke:#000000;stroke-width:0.8;"/>
      </defs>
      <g>
       <use style="stroke:#000000;stroke-width:0.8;" x="72" xlink:href="#mb92eab6c75" y="512.64"/>
      </g>
     </g>
     <g id="text_1">
      <!-- 0 -->
      <defs>
       <path d="M 31.78125 66.40625 
Q 24.171875 66.40625 20.328125 58.90625 
Q 16.5 51.421875 16.5 36.375 
Q 16.5 21.390625 20.328125 13.890625 
Q 24.171875 6.390625 31.78125 6.390625 
Q 39.453125 6.390625 43.28125 13.890625 
Q 47.125 21.390625 47.125 36.375 
Q 47.125 51.421875 43.28125 58.90625 
Q 39.453125 66.40625 31.78125 66.40625 
z
M 31.78125 74.21875 
Q 44.046875 74.21875 50.515625 64.515625 
Q 56.984375 54.828125 56.984375 36.375 
Q 56.984375 17.96875 50.515625 8.265625 
Q 44.046875 -1.421875 31.78125 -1.421875 
Q 19.53125 -1.421875 13.0625 8.265625 
Q 6.59375 17.96875 6.59375 36.375 
Q 6.59375 54.828125 13.0625 64.515625 
Q 19.53125 74.21875 31.78125 74.21875 
z
" id="DejaVuSans-48"/>
      </defs>
      <g transform="translate(66.27375 533.317188)scale(0.18 -0.18)">
       <use xlink:href="#DejaVuSans-48"/>
      </g>
     </g>
    </g>
    <g id="xtick_2">
     <g id="line2d_2">
      <g>
       <use style="stroke:#000000;stroke-width:0.8;" x="127.8" xlink:href="#mb92eab6c75" y="512.64"/>
      </g>
     </g>
     <g id="text_2">
      <!-- 10 -->
      <defs>
       <path d="M 12.40625 8.296875 
L 28.515625 8.296875 
L 28.515625 63.921875 
L 10.984375 60.40625 
L 10.984375 69.390625 
L 28.421875 72.90625 
L 38.28125 72.90625 
L 38.28125 8.296875 
L 54.390625 8.296875 
L 54.390625 0 
L 12.40625 0 
z
" id="DejaVuSans-49"/>
      </defs>
      <g transform="translate(116.3475 533.317188)scale(0.18 -0.18)">
       <use xlink:href="#DejaVuSans-49"/>
       <use x="63.623047" xlink:href="#DejaVuSans-48"/>
      </g>
     </g>
    </g>
    <g id="xtick_3">
     <g id="line2d_3">
      <g>
       <use style="stroke:#000000;stroke-width:0.8;" x="183.6" xlink:href="#mb92eab6c75" y="512.64"/>
      </g>
     </g>
     <g id="text_3">
      <!-- 20 -->
      <defs>
       <path d="M 19.1875 8.296875 
L 53.609375 8.296875 
L 53.609375 0 
L 7.328125 0 
L 7.328125 8.296875 
Q 12.9375 14.109375 22.625 23.890625 
Q 32.328125 33.6875 34.8125 36.53125 
Q 39.546875 41.84375 41.421875 45.53125 
Q 43.3125 49.21875 43.3125 52.78125 
Q 43.3125 58.59375 39.234375 62.25 
Q 35.15625 65.921875 28.609375 65.921875 
Q 23.96875 65.921875 18.8125 64.3125 
Q 13.671875 62.703125 7.8125 59.421875 
L 7.8125 69.390625 
Q 13.765625 71.78125 18.9375 73 
Q 24.125 74.21875 28.421875 74.21875 
Q 39.75 74.21875 46.484375 68.546875 
Q 53.21875 62.890625 53.21875 53.421875 
Q 53.21875 48.921875 51.53125 44.890625 
Q 49.859375 40.875 45.40625 35.40625 
Q 44.1875 33.984375 37.640625 27.21875 
Q 31.109375 20.453125 19.1875 8.296875 
z
" id="DejaVuSans-50"/>
      </defs>
      <g transform="translate(172.1475 533.317188)scale(0.18 -0.18)">
       <use xlink:href="#DejaVuSans-50"/>
       <use x="63.623047" xlink:href="#DejaVuSans-48"/>
      </g>
     </g>
    </g>
    <g id="xtick_4">
     <g id="line2d_4">
      <g>
       <use style="stroke:#000000;stroke-width:0.8;" x="239.4" xlink:href="#mb92eab6c75" y="512.64"/>
      </g>
     </g>
     <g id="text_4">
      <!-- 30 -->
      <defs>
       <path d="M 40.578125 39.3125 
Q 47.65625 37.796875 51.625 33 
Q 55.609375 28.21875 55.609375 21.1875 
Q 55.609375 10.40625 48.1875 4.484375 
Q 40.765625 -1.421875 27.09375 -1.421875 
Q 22.515625 -1.421875 17.65625 -0.515625 
Q 12.796875 0.390625 7.625 2.203125 
L 7.625 11.71875 
Q 11.71875 9.328125 16.59375 8.109375 
Q 21.484375 6.890625 26.8125 6.890625 
Q 36.078125 6.890625 40.9375 10.546875 
Q 45.796875 14.203125 45.796875 21.1875 
Q 45.796875 27.640625 41.28125 31.265625 
Q 36.765625 34.90625 28.71875 34.90625 
L 20.21875 34.90625 
L 20.21875 43.015625 
L 29.109375 43.015625 
Q 36.375 43.015625 40.234375 45.921875 
Q 44.09375 48.828125 44.09375 54.296875 
Q 44.09375 59.90625 40.109375 62.90625 
Q 36.140625 65.921875 28.71875 65.921875 
Q 24.65625 65.921875 20.015625 65.03125 
Q 15.375 64.15625 9.8125 62.3125 
L 9.8125 71.09375 
Q 15.4375 72.65625 20.34375 73.4375 
Q 25.25 74.21875 29.59375 74.21875 
Q 40.828125 74.21875 47.359375 69.109375 
Q 53.90625 64.015625 53.90625 55.328125 
Q 53.90625 49.265625 50.4375 45.09375 
Q 46.96875 40.921875 40.578125 39.3125 
z
" id="DejaVuSans-51"/>
      </defs>
      <g transform="translate(227.9475 533.317188)scale(0.18 -0.18)">
       <use xlink:href="#DejaVuSans-51"/>
       <use x="63.623047" xlink:href="#DejaVuSans-48"/>
      </g>
     </g>
    </g>
    <g id="xtick_5">
     <g id="line2d_5">
      <g>
       <use style="stroke:#000000;stroke-width:0.8;" x="295.2" xlink:href="#mb92eab6c75" y="512.64"/>
      </g>
     </g>
     <g id="text_5">
      <!-- 40 -->
      <defs>
       <path d="M 37.796875 64.3125 
L 12.890625 25.390625 
L 37.796875 25.390625 
z
M 35.203125 72.90625 
L 47.609375 72.90625 
L 47.609375 25.390625 
L 58.015625 25.390625 
L 58.015625 17.1875 
L 47.609375 17.1875 
L 47.609375 0 
L 37.796875 0 
L 37.796875 17.1875 
L 4.890625 17.1875 
L 4.890625 26.703125 
z
" id="DejaVuSans-52"/>
      </defs>
      <g transform="translate(283.7475 533.317188)scale(0.18 -0.18)">
       <use xlink:href="#DejaVuSans-52"/>
       <use x="63.623047" xlink:href="#DejaVuSans-48"/>
      </g>
     </g>
    </g>
    <g id="xtick_6">
     <g id="line2d_6">
      <g>
       <use style="stroke:#000000;stroke-width:0.8;" x="351" xlink:href="#mb92eab6c75" y="512.64"/>
      </g>
     </g>
     <g id="text_6">
      <!-- 50 -->
      <defs>
       <path d="M 10.796875 72.90625 
L 49.515625 72.90625 
L 49.515625 64.59375 
L 19.828125 64.59375 
L 19.828125 46.734375 
Q 21.96875 47.46875 24.109375 47.828125 
Q 26.265625 48.1875 28.421875 48.1875 
Q 40.625 48.1875 47.75 41.5 
Q 54.890625 34.8125 54.890625 23.390625 
Q 54.890625 11.625 47.5625 5.09375 
Q 40.234375 -1.421875 26.90625 -1.421875 
Q 22.3125 -1.421875 17.546875 -0.640625 
Q 12.796875 0.140625 7.71875 1.703125 
L 7.71875 11.625 
Q 12.109375 9.234375 16.796875 8.0625 
Q 21.484375 6.890625 26.703125 6.890625 
Q 35.15625 6.890625 40.078125 11.328125 
Q 45.015625 15.765625 45.015625 23.390625 
Q 45.015625 31 40.078125 35.4375 
Q 35.15625 39.890625 26.703125 39.890625 
Q 22.75 39.890625 18.8125 39.015625 
Q 14.890625 38.140625 10.796875 36.28125 
z
" id="DejaVuSans-53"/>
      </defs>
      <g transform="translate(339.5475 533.317188)scale(0.18 -0.18)">
       <use xlink:href="#DejaVuSans-53"/>
       <use x="63.623047" xlink:href="#DejaVuSans-48"/>
      </g>
     </g>
    </g>
    <g id="xtick_7">
     <g id="line2d_7">
      <g>
       <use style="stroke:#000000;stroke-width:0.8;" x="406.8" xlink:href="#mb92eab6c75" y="512.64"/>
      </g>
     </g>
     <g id="text_7">
      <!-- 60 -->
      <defs>
       <path d="M 33.015625 40.375 
Q 26.375 40.375 22.484375 35.828125 
Q 18.609375 31.296875 18.609375 23.390625 
Q 18.609375 15.53125 22.484375 10.953125 
Q 26.375 6.390625 33.015625 6.390625 
Q 39.65625 6.390625 43.53125 10.953125 
Q 47.40625 15.53125 47.40625 23.390625 
Q 47.40625 31.296875 43.53125 35.828125 
Q 39.65625 40.375 33.015625 40.375 
z
M 52.59375 71.296875 
L 52.59375 62.3125 
Q 48.875 64.0625 45.09375 64.984375 
Q 41.3125 65.921875 37.59375 65.921875 
Q 27.828125 65.921875 22.671875 59.328125 
Q 17.53125 52.734375 16.796875 39.40625 
Q 19.671875 43.65625 24.015625 45.921875 
Q 28.375 48.1875 33.59375 48.1875 
Q 44.578125 48.1875 50.953125 41.515625 
Q 57.328125 34.859375 57.328125 23.390625 
Q 57.328125 12.15625 50.6875 5.359375 
Q 44.046875 -1.421875 33.015625 -1.421875 
Q 20.359375 -1.421875 13.671875 8.265625 
Q 6.984375 17.96875 6.984375 36.375 
Q 6.984375 53.65625 15.1875 63.9375 
Q 23.390625 74.21875 37.203125 74.21875 
Q 40.921875 74.21875 44.703125 73.484375 
Q 48.484375 72.75 52.59375 71.296875 
z
" id="DejaVuSans-54"/>
      </defs>
      <g transform="translate(395.3475 533.317188)scale(0.18 -0.18)">
       <use xlink:href="#DejaVuSans-54"/>
       <use x="63.623047" xlink:href="#DejaVuSans-48"/>
      </g>
     </g>
    </g>
    <g id="xtick_8">
     <g id="line2d_8">
      <g>
       <use style="stroke:#000000;stroke-width:0.8;" x="462.6" xlink:href="#mb92eab6c75" y="512.64"/>
      </g>
     </g>
     <g id="text_8">
      <!-- 70 -->
      <defs>
       <path d="M 8.203125 72.90625 
L 55.078125 72.90625 
L 55.078125 68.703125 
L 28.609375 0 
L 18.3125 0 
L 43.21875 64.59375 
L 8.203125 64.59375 
z
" id="DejaVuSans-55"/>
      </defs>
      <g transform="translate(451.1475 533.317188)scale(0.18 -0.18)">
       <use xlink:href="#DejaVuSans-55"/>
       <use x="63.623047" xlink:href="#DejaVuSans-48"/>
      </g>
     </g>
    </g>
    <g id="xtick_9">
     <g id="line2d_9">
      <g>
       <use style="stroke:#000000;stroke-width:0.8;" x="518.4" xlink:href="#mb92eab6c75" y="512.64"/>
      </g>
     </g>
     <g id="text_9">
      <!-- 80 -->
      <defs>
       <path d="M 31.78125 34.625 
Q 24.75 34.625 20.71875 30.859375 
Q 16.703125 27.09375 16.703125 20.515625 
Q 16.703125 13.921875 20.71875 10.15625 
Q 24.75 6.390625 31.78125 6.390625 
Q 38.8125 6.390625 42.859375 10.171875 
Q 46.921875 13.96875 46.921875 20.515625 
Q 46.921875 27.09375 42.890625 30.859375 
Q 38.875 34.625 31.78125 34.625 
z
M 21.921875 38.8125 
Q 15.578125 40.375 12.03125 44.71875 
Q 8.5 49.078125 8.5 55.328125 
Q 8.5 64.0625 14.71875 69.140625 
Q 20.953125 74.21875 31.78125 74.21875 
Q 42.671875 74.21875 48.875 69.140625 
Q 55.078125 64.0625 55.078125 55.328125 
Q 55.078125 49.078125 51.53125 44.71875 
Q 48 40.375 41.703125 38.8125 
Q 48.828125 37.15625 52.796875 32.3125 
Q 56.78125 27.484375 56.78125 20.515625 
Q 56.78125 9.90625 50.3125 4.234375 
Q 43.84375 -1.421875 31.78125 -1.421875 
Q 19.734375 -1.421875 13.25 4.234375 
Q 6.78125 9.90625 6.78125 20.515625 
Q 6.78125 27.484375 10.78125 32.3125 
Q 14.796875 37.15625 21.921875 38.8125 
z
M 18.3125 54.390625 
Q 18.3125 48.734375 21.84375 45.5625 
Q 25.390625 42.390625 31.78125 42.390625 
Q 38.140625 42.390625 41.71875 45.5625 
Q 45.3125 48.734375 45.3125 54.390625 
Q 45.3125 60.0625 41.71875 63.234375 
Q 38.140625 66.40625 31.78125 66.40625 
Q 25.390625 66.40625 21.84375 63.234375 
Q 18.3125 60.0625 18.3125 54.390625 
z
" id="DejaVuSans-56"/>
      </defs>
      <g transform="translate(506.9475 533.317188)scale(0.18 -0.18)">
       <use xlink:href="#DejaVuSans-56"/>
       <use x="63.623047" xlink:href="#DejaVuSans-48"/>
      </g>
     </g>
    </g>
    <g id="text_10">
     <!-- Lot Area in 1000 ft$\mathregular{^{2}}$ -->
     <defs>
      <path d="M 9.8125 72.90625 
L 19.671875 72.90625 
L 19.671875 8.296875 
L 55.171875 8.296875 
L 55.171875 0 
L 9.8125 0 
z
" id="DejaVuSans-76"/>
      <path d="M 30.609375 48.390625 
Q 23.390625 48.390625 19.1875 42.75 
Q 14.984375 37.109375 14.984375 27.296875 
Q 14.984375 17.484375 19.15625 11.84375 
Q 23.34375 6.203125 30.609375 6.203125 
Q 37.796875 6.203125 41.984375 11.859375 
Q 46.1875 17.53125 46.1875 27.296875 
Q 46.1875 37.015625 41.984375 42.703125 
Q 37.796875 48.390625 30.609375 48.390625 
z
M 30.609375 56 
Q 42.328125 56 49.015625 48.375 
Q 55.71875 40.765625 55.71875 27.296875 
Q 55.71875 13.875 49.015625 6.21875 
Q 42.328125 -1.421875 30.609375 -1.421875 
Q 18.84375 -1.421875 12.171875 6.21875 
Q 5.515625 13.875 5.515625 27.296875 
Q 5.515625 40.765625 12.171875 48.375 
Q 18.84375 56 30.609375 56 
z
" id="DejaVuSans-111"/>
      <path d="M 18.3125 70.21875 
L 18.3125 54.6875 
L 36.8125 54.6875 
L 36.8125 47.703125 
L 18.3125 47.703125 
L 18.3125 18.015625 
Q 18.3125 11.328125 20.140625 9.421875 
Q 21.96875 7.515625 27.59375 7.515625 
L 36.8125 7.515625 
L 36.8125 0 
L 27.59375 0 
Q 17.1875 0 13.234375 3.875 
Q 9.28125 7.765625 9.28125 18.015625 
L 9.28125 47.703125 
L 2.6875 47.703125 
L 2.6875 54.6875 
L 9.28125 54.6875 
L 9.28125 70.21875 
z
" id="DejaVuSans-116"/>
      <path id="DejaVuSans-32"/>
      <path d="M 34.1875 63.1875 
L 20.796875 26.90625 
L 47.609375 26.90625 
z
M 28.609375 72.90625 
L 39.796875 72.90625 
L 67.578125 0 
L 57.328125 0 
L 50.6875 18.703125 
L 17.828125 18.703125 
L 11.1875 0 
L 0.78125 0 
z
" id="DejaVuSans-65"/>
      <path d="M 41.109375 46.296875 
Q 39.59375 47.171875 37.8125 47.578125 
Q 36.03125 48 33.890625 48 
Q 26.265625 48 22.1875 43.046875 
Q 18.109375 38.09375 18.109375 28.8125 
L 18.109375 0 
L 9.078125 0 
L 9.078125 54.6875 
L 18.109375 54.6875 
L 18.109375 46.1875 
Q 20.953125 51.171875 25.484375 53.578125 
Q 30.03125 56 36.53125 56 
Q 37.453125 56 38.578125 55.875 
Q 39.703125 55.765625 41.0625 55.515625 
z
" id="DejaVuSans-114"/>
      <path d="M 56.203125 29.59375 
L 56.203125 25.203125 
L 14.890625 25.203125 
Q 15.484375 15.921875 20.484375 11.0625 
Q 25.484375 6.203125 34.421875 6.203125 
Q 39.59375 6.203125 44.453125 7.46875 
Q 49.3125 8.734375 54.109375 11.28125 
L 54.109375 2.78125 
Q 49.265625 0.734375 44.1875 -0.34375 
Q 39.109375 -1.421875 33.890625 -1.421875 
Q 20.796875 -1.421875 13.15625 6.1875 
Q 5.515625 13.8125 5.515625 26.8125 
Q 5.515625 40.234375 12.765625 48.109375 
Q 20.015625 56 32.328125 56 
Q 43.359375 56 49.78125 48.890625 
Q 56.203125 41.796875 56.203125 29.59375 
z
M 47.21875 32.234375 
Q 47.125 39.59375 43.09375 43.984375 
Q 39.0625 48.390625 32.421875 48.390625 
Q 24.90625 48.390625 20.390625 44.140625 
Q 15.875 39.890625 15.1875 32.171875 
z
" id="DejaVuSans-101"/>
      <path d="M 34.28125 27.484375 
Q 23.390625 27.484375 19.1875 25 
Q 14.984375 22.515625 14.984375 16.5 
Q 14.984375 11.71875 18.140625 8.90625 
Q 21.296875 6.109375 26.703125 6.109375 
Q 34.1875 6.109375 38.703125 11.40625 
Q 43.21875 16.703125 43.21875 25.484375 
L 43.21875 27.484375 
z
M 52.203125 31.203125 
L 52.203125 0 
L 43.21875 0 
L 43.21875 8.296875 
Q 40.140625 3.328125 35.546875 0.953125 
Q 30.953125 -1.421875 24.3125 -1.421875 
Q 15.921875 -1.421875 10.953125 3.296875 
Q 6 8.015625 6 15.921875 
Q 6 25.140625 12.171875 29.828125 
Q 18.359375 34.515625 30.609375 34.515625 
L 43.21875 34.515625 
L 43.21875 35.40625 
Q 43.21875 41.609375 39.140625 45 
Q 35.0625 48.390625 27.6875 48.390625 
Q 23 48.390625 18.546875 47.265625 
Q 14.109375 46.140625 10.015625 43.890625 
L 10.015625 52.203125 
Q 14.9375 54.109375 19.578125 55.046875 
Q 24.21875 56 28.609375 56 
Q 40.484375 56 46.34375 49.84375 
Q 52.203125 43.703125 52.203125 31.203125 
z
" id="DejaVuSans-97"/>
      <path d="M 9.421875 54.6875 
L 18.40625 54.6875 
L 18.40625 0 
L 9.421875 0 
z
M 9.421875 75.984375 
L 18.40625 75.984375 
L 18.40625 64.59375 
L 9.421875 64.59375 
z
" id="DejaVuSans-105"/>
      <path d="M 54.890625 33.015625 
L 54.890625 0 
L 45.90625 0 
L 45.90625 32.71875 
Q 45.90625 40.484375 42.875 44.328125 
Q 39.84375 48.1875 33.796875 48.1875 
Q 26.515625 48.1875 22.3125 43.546875 
Q 18.109375 38.921875 18.109375 30.90625 
L 18.109375 0 
L 9.078125 0 
L 9.078125 54.6875 
L 18.109375 54.6875 
L 18.109375 46.1875 
Q 21.34375 51.125 25.703125 53.5625 
Q 30.078125 56 35.796875 56 
Q 45.21875 56 50.046875 50.171875 
Q 54.890625 44.34375 54.890625 33.015625 
z
" id="DejaVuSans-110"/>
      <path d="M 37.109375 75.984375 
L 37.109375 68.5 
L 28.515625 68.5 
Q 23.6875 68.5 21.796875 66.546875 
Q 19.921875 64.59375 19.921875 59.515625 
L 19.921875 54.6875 
L 34.71875 54.6875 
L 34.71875 47.703125 
L 19.921875 47.703125 
L 19.921875 0 
L 10.890625 0 
L 10.890625 47.703125 
L 2.296875 47.703125 
L 2.296875 54.6875 
L 10.890625 54.6875 
L 10.890625 58.5 
Q 10.890625 67.625 15.140625 71.796875 
Q 19.390625 75.984375 28.609375 75.984375 
z
" id="DejaVuSans-102"/>
     </defs>
     <g transform="translate(196.8 556.2575)scale(0.2 -0.2)">
      <use transform="translate(0 0.765625)" xlink:href="#DejaVuSans-76"/>
      <use transform="translate(55.712891 0.765625)" xlink:href="#DejaVuSans-111"/>
      <use transform="translate(116.894531 0.765625)" xlink:href="#DejaVuSans-116"/>
      <use transform="translate(156.103516 0.765625)" xlink:href="#DejaVuSans-32"/>
      <use transform="translate(187.890625 0.765625)" xlink:href="#DejaVuSans-65"/>
      <use transform="translate(256.298828 0.765625)" xlink:href="#DejaVuSans-114"/>
      <use transform="translate(297.412109 0.765625)" xlink:href="#DejaVuSans-101"/>
      <use transform="translate(358.935547 0.765625)" xlink:href="#DejaVuSans-97"/>
      <use transform="translate(420.214844 0.765625)" xlink:href="#DejaVuSans-32"/>
      <use transform="translate(452.001953 0.765625)" xlink:href="#DejaVuSans-105"/>
      <use transform="translate(479.785156 0.765625)" xlink:href="#DejaVuSans-110"/>
      <use transform="translate(543.164062 0.765625)" xlink:href="#DejaVuSans-32"/>
      <use transform="translate(574.951172 0.765625)" xlink:href="#DejaVuSans-49"/>
      <use transform="translate(638.574219 0.765625)" xlink:href="#DejaVuSans-48"/>
      <use transform="translate(702.197266 0.765625)" xlink:href="#DejaVuSans-48"/>
      <use transform="translate(765.820312 0.765625)" xlink:href="#DejaVuSans-48"/>
      <use transform="translate(829.443359 0.765625)" xlink:href="#DejaVuSans-32"/>
      <use transform="translate(861.230469 0.765625)" xlink:href="#DejaVuSans-102"/>
      <use transform="translate(896.435547 0.765625)" xlink:href="#DejaVuSans-116"/>
      <use transform="translate(936.601562 39.046875)scale(0.7)" xlink:href="#DejaVuSans-50"/>
     </g>
    </g>
   </g>
   <g id="matplotlib.axis_2">
    <g id="ytick_1">
     <g id="line2d_10">
      <defs>
       <path d="M 0 0 
L -3.5 0 
" id="mbc89e474ae" style="stroke:#000000;stroke-width:0.8;"/>
      </defs>
      <g>
       <use style="stroke:#000000;stroke-width:0.8;" x="72" xlink:href="#mbc89e474ae" y="512.64"/>
      </g>
     </g>
     <g id="text_11">
      <!-- 0 -->
      <g transform="translate(53.5475 519.478594)scale(0.18 -0.18)">
       <use xlink:href="#DejaVuSans-48"/>
      </g>
     </g>
    </g>
    <g id="ytick_2">
     <g id="line2d_11">
      <g>
       <use style="stroke:#000000;stroke-width:0.8;" x="72" xlink:href="#mbc89e474ae" y="449.28"/>
      </g>
     </g>
     <g id="text_12">
      <!-- 50 -->
      <g transform="translate(42.095 456.118594)scale(0.18 -0.18)">
       <use xlink:href="#DejaVuSans-53"/>
       <use x="63.623047" xlink:href="#DejaVuSans-48"/>
      </g>
     </g>
    </g>
    <g id="ytick_3">
     <g id="line2d_12">
      <g>
       <use style="stroke:#000000;stroke-width:0.8;" x="72" xlink:href="#mbc89e474ae" y="385.92"/>
      </g>
     </g>
     <g id="text_13">
      <!-- 100 -->
      <g transform="translate(30.6425 392.758594)scale(0.18 -0.18)">
       <use xlink:href="#DejaVuSans-49"/>
       <use x="63.623047" xlink:href="#DejaVuSans-48"/>
       <use x="127.246094" xlink:href="#DejaVuSans-48"/>
      </g>
     </g>
    </g>
    <g id="ytick_4">
     <g id="line2d_13">
      <g>
       <use style="stroke:#000000;stroke-width:0.8;" x="72" xlink:href="#mbc89e474ae" y="322.56"/>
      </g>
     </g>
     <g id="text_14">
      <!-- 150 -->
      <g transform="translate(30.6425 329.398594)scale(0.18 -0.18)">
       <use xlink:href="#DejaVuSans-49"/>
       <use x="63.623047" xlink:href="#DejaVuSans-53"/>
       <use x="127.246094" xlink:href="#DejaVuSans-48"/>
      </g>
     </g>
    </g>
    <g id="ytick_5">
     <g id="line2d_14">
      <g>
       <use style="stroke:#000000;stroke-width:0.8;" x="72" xlink:href="#mbc89e474ae" y="259.2"/>
      </g>
     </g>
     <g id="text_15">
      <!-- 200 -->
      <g transform="translate(30.6425 266.038594)scale(0.18 -0.18)">
       <use xlink:href="#DejaVuSans-50"/>
       <use x="63.623047" xlink:href="#DejaVuSans-48"/>
       <use x="127.246094" xlink:href="#DejaVuSans-48"/>
      </g>
     </g>
    </g>
    <g id="ytick_6">
     <g id="line2d_15">
      <g>
       <use style="stroke:#000000;stroke-width:0.8;" x="72" xlink:href="#mbc89e474ae" y="195.84"/>
      </g>
     </g>
     <g id="text_16">
      <!-- 250 -->
      <g transform="translate(30.6425 202.678594)scale(0.18 -0.18)">
       <use xlink:href="#DejaVuSans-50"/>
       <use x="63.623047" xlink:href="#DejaVuSans-53"/>
       <use x="127.246094" xlink:href="#DejaVuSans-48"/>
      </g>
     </g>
    </g>
    <g id="ytick_7">
     <g id="line2d_16">
      <g>
       <use style="stroke:#000000;stroke-width:0.8;" x="72" xlink:href="#mbc89e474ae" y="132.48"/>
      </g>
     </g>
     <g id="text_17">
      <!-- 300 -->
      <g transform="translate(30.6425 139.318594)scale(0.18 -0.18)">
       <use xlink:href="#DejaVuSans-51"/>
       <use x="63.623047" xlink:href="#DejaVuSans-48"/>
       <use x="127.246094" xlink:href="#DejaVuSans-48"/>
      </g>
     </g>
    </g>
    <g id="ytick_8">
     <g id="line2d_17">
      <g>
       <use style="stroke:#000000;stroke-width:0.8;" x="72" xlink:href="#mbc89e474ae" y="69.12"/>
      </g>
     </g>
     <g id="text_18">
      <!-- 350 -->
      <g transform="translate(30.6425 75.958594)scale(0.18 -0.18)">
       <use xlink:href="#DejaVuSans-51"/>
       <use x="63.623047" xlink:href="#DejaVuSans-53"/>
       <use x="127.246094" xlink:href="#DejaVuSans-48"/>
      </g>
     </g>
    </g>
    <g id="text_19">
     <!-- Lot Frontage in ft$\mathregular{^{2}}$ (Filled) -->
     <defs>
      <path d="M 9.8125 72.90625 
L 51.703125 72.90625 
L 51.703125 64.59375 
L 19.671875 64.59375 
L 19.671875 43.109375 
L 48.578125 43.109375 
L 48.578125 34.8125 
L 19.671875 34.8125 
L 19.671875 0 
L 9.8125 0 
z
" id="DejaVuSans-70"/>
      <path d="M 45.40625 27.984375 
Q 45.40625 37.75 41.375 43.109375 
Q 37.359375 48.484375 30.078125 48.484375 
Q 22.859375 48.484375 18.828125 43.109375 
Q 14.796875 37.75 14.796875 27.984375 
Q 14.796875 18.265625 18.828125 12.890625 
Q 22.859375 7.515625 30.078125 7.515625 
Q 37.359375 7.515625 41.375 12.890625 
Q 45.40625 18.265625 45.40625 27.984375 
z
M 54.390625 6.78125 
Q 54.390625 -7.171875 48.1875 -13.984375 
Q 42 -20.796875 29.203125 -20.796875 
Q 24.46875 -20.796875 20.265625 -20.09375 
Q 16.0625 -19.390625 12.109375 -17.921875 
L 12.109375 -9.1875 
Q 16.0625 -11.328125 19.921875 -12.34375 
Q 23.78125 -13.375 27.78125 -13.375 
Q 36.625 -13.375 41.015625 -8.765625 
Q 45.40625 -4.15625 45.40625 5.171875 
L 45.40625 9.625 
Q 42.625 4.78125 38.28125 2.390625 
Q 33.9375 0 27.875 0 
Q 17.828125 0 11.671875 7.65625 
Q 5.515625 15.328125 5.515625 27.984375 
Q 5.515625 40.671875 11.671875 48.328125 
Q 17.828125 56 27.875 56 
Q 33.9375 56 38.28125 53.609375 
Q 42.625 51.21875 45.40625 46.390625 
L 45.40625 54.6875 
L 54.390625 54.6875 
z
" id="DejaVuSans-103"/>
      <path d="M 31 75.875 
Q 24.46875 64.65625 21.28125 53.65625 
Q 18.109375 42.671875 18.109375 31.390625 
Q 18.109375 20.125 21.3125 9.0625 
Q 24.515625 -2 31 -13.1875 
L 23.1875 -13.1875 
Q 15.875 -1.703125 12.234375 9.375 
Q 8.59375 20.453125 8.59375 31.390625 
Q 8.59375 42.28125 12.203125 53.3125 
Q 15.828125 64.359375 23.1875 75.875 
z
" id="DejaVuSans-40"/>
      <path d="M 9.421875 75.984375 
L 18.40625 75.984375 
L 18.40625 0 
L 9.421875 0 
z
" id="DejaVuSans-108"/>
      <path d="M 45.40625 46.390625 
L 45.40625 75.984375 
L 54.390625 75.984375 
L 54.390625 0 
L 45.40625 0 
L 45.40625 8.203125 
Q 42.578125 3.328125 38.25 0.953125 
Q 33.9375 -1.421875 27.875 -1.421875 
Q 17.96875 -1.421875 11.734375 6.484375 
Q 5.515625 14.40625 5.515625 27.296875 
Q 5.515625 40.1875 11.734375 48.09375 
Q 17.96875 56 27.875 56 
Q 33.9375 56 38.25 53.625 
Q 42.578125 51.265625 45.40625 46.390625 
z
M 14.796875 27.296875 
Q 14.796875 17.390625 18.875 11.75 
Q 22.953125 6.109375 30.078125 6.109375 
Q 37.203125 6.109375 41.296875 11.75 
Q 45.40625 17.390625 45.40625 27.296875 
Q 45.40625 37.203125 41.296875 42.84375 
Q 37.203125 48.484375 30.078125 48.484375 
Q 22.953125 48.484375 18.875 42.84375 
Q 14.796875 37.203125 14.796875 27.296875 
z
" id="DejaVuSans-100"/>
      <path d="M 8.015625 75.875 
L 15.828125 75.875 
Q 23.140625 64.359375 26.78125 53.3125 
Q 30.421875 42.28125 30.421875 31.390625 
Q 30.421875 20.453125 26.78125 9.375 
Q 23.140625 -1.703125 15.828125 -13.1875 
L 8.015625 -13.1875 
Q 14.5 -2 17.703125 9.0625 
Q 20.90625 20.125 20.90625 31.390625 
Q 20.90625 42.671875 17.703125 53.65625 
Q 14.5 64.65625 8.015625 75.875 
z
" id="DejaVuSans-41"/>
     </defs>
     <g transform="translate(22.4425 419.88)rotate(-90)scale(0.2 -0.2)">
      <use transform="translate(0 0.765625)" xlink:href="#DejaVuSans-76"/>
      <use transform="translate(55.712891 0.765625)" xlink:href="#DejaVuSans-111"/>
      <use transform="translate(116.894531 0.765625)" xlink:href="#DejaVuSans-116"/>
      <use transform="translate(156.103516 0.765625)" xlink:href="#DejaVuSans-32"/>
      <use transform="translate(187.890625 0.765625)" xlink:href="#DejaVuSans-70"/>
      <use transform="translate(245.410156 0.765625)" xlink:href="#DejaVuSans-114"/>
      <use transform="translate(286.523438 0.765625)" xlink:href="#DejaVuSans-111"/>
      <use transform="translate(347.705078 0.765625)" xlink:href="#DejaVuSans-110"/>
      <use transform="translate(411.083984 0.765625)" xlink:href="#DejaVuSans-116"/>
      <use transform="translate(450.292969 0.765625)" xlink:href="#DejaVuSans-97"/>
      <use transform="translate(511.572266 0.765625)" xlink:href="#DejaVuSans-103"/>
      <use transform="translate(575.048828 0.765625)" xlink:href="#DejaVuSans-101"/>
      <use transform="translate(636.572266 0.765625)" xlink:href="#DejaVuSans-32"/>
      <use transform="translate(668.359375 0.765625)" xlink:href="#DejaVuSans-105"/>
      <use transform="translate(696.142578 0.765625)" xlink:href="#DejaVuSans-110"/>
      <use transform="translate(759.521484 0.765625)" xlink:href="#DejaVuSans-32"/>
      <use transform="translate(791.308594 0.765625)" xlink:href="#DejaVuSans-102"/>
      <use transform="translate(826.513672 0.765625)" xlink:href="#DejaVuSans-116"/>
      <use transform="translate(866.679688 39.046875)scale(0.7)" xlink:href="#DejaVuSans-50"/>
      <use transform="translate(913.950195 0.765625)" xlink:href="#DejaVuSans-32"/>
      <use transform="translate(945.737305 0.765625)" xlink:href="#DejaVuSans-40"/>
      <use transform="translate(984.750977 0.765625)" xlink:href="#DejaVuSans-70"/>
      <use transform="translate(1042.270508 0.765625)" xlink:href="#DejaVuSans-105"/>
      <use transform="translate(1070.053711 0.765625)" xlink:href="#DejaVuSans-108"/>
      <use transform="translate(1097.836914 0.765625)" xlink:href="#DejaVuSans-108"/>
      <use transform="translate(1125.620117 0.765625)" xlink:href="#DejaVuSans-101"/>
      <use transform="translate(1187.143555 0.765625)" xlink:href="#DejaVuSans-100"/>
      <use transform="translate(1250.620117 0.765625)" xlink:href="#DejaVuSans-41"/>
     </g>
    </g>
   </g>
   <g id="line2d_18">
    <path clip-path="url(#p62214dafef)" d="M 134.72478 442.942209 
L 370.55232 415.689276 
L 82.48482 448.979214 
L 115.7472 445.135314 
" style="fill:none;stroke:#808080;stroke-linecap:square;stroke-width:1.5;"/>
   </g>
   <g id="patch_3">
    <path d="M 72 512.64 
L 72 69.12 
" style="fill:none;stroke:#000000;stroke-linecap:square;stroke-linejoin:miter;stroke-width:0.8;"/>
   </g>
   <g id="patch_4">
    <path d="M 518.4 512.64 
L 518.4 69.12 
" style="fill:none;stroke:#000000;stroke-linecap:square;stroke-linejoin:miter;stroke-width:0.8;"/>
   </g>
   <g id="patch_5">
    <path d="M 72 512.64 
L 518.4 512.64 
" style="fill:none;stroke:#000000;stroke-linecap:square;stroke-linejoin:miter;stroke-width:0.8;"/>
   </g>
   <g id="patch_6">
    <path d="M 72 69.12 
L 518.4 69.12 
" style="fill:none;stroke:#000000;stroke-linecap:square;stroke-linejoin:miter;stroke-width:0.8;"/>
   </g>
   <g id="text_20">
    <!-- y = 0.509x + 49.281 -->
    <defs>
     <path d="M 32.171875 -5.078125 
Q 28.375 -14.84375 24.75 -17.8125 
Q 21.140625 -20.796875 15.09375 -20.796875 
L 7.90625 -20.796875 
L 7.90625 -13.28125 
L 13.1875 -13.28125 
Q 16.890625 -13.28125 18.9375 -11.515625 
Q 21 -9.765625 23.484375 -3.21875 
L 25.09375 0.875 
L 2.984375 54.6875 
L 12.5 54.6875 
L 29.59375 11.921875 
L 46.6875 54.6875 
L 56.203125 54.6875 
z
" id="DejaVuSans-121"/>
     <path d="M 10.59375 45.40625 
L 73.1875 45.40625 
L 73.1875 37.203125 
L 10.59375 37.203125 
z
M 10.59375 25.484375 
L 73.1875 25.484375 
L 73.1875 17.1875 
L 10.59375 17.1875 
z
" id="DejaVuSans-61"/>
     <path d="M 10.6875 12.40625 
L 21 12.40625 
L 21 0 
L 10.6875 0 
z
" id="DejaVuSans-46"/>
     <path d="M 10.984375 1.515625 
L 10.984375 10.5 
Q 14.703125 8.734375 18.5 7.8125 
Q 22.3125 6.890625 25.984375 6.890625 
Q 35.75 6.890625 40.890625 13.453125 
Q 46.046875 20.015625 46.78125 33.40625 
Q 43.953125 29.203125 39.59375 26.953125 
Q 35.25 24.703125 29.984375 24.703125 
Q 19.046875 24.703125 12.671875 31.3125 
Q 6.296875 37.9375 6.296875 49.421875 
Q 6.296875 60.640625 12.9375 67.421875 
Q 19.578125 74.21875 30.609375 74.21875 
Q 43.265625 74.21875 49.921875 64.515625 
Q 56.59375 54.828125 56.59375 36.375 
Q 56.59375 19.140625 48.40625 8.859375 
Q 40.234375 -1.421875 26.421875 -1.421875 
Q 22.703125 -1.421875 18.890625 -0.6875 
Q 15.09375 0.046875 10.984375 1.515625 
z
M 30.609375 32.421875 
Q 37.25 32.421875 41.125 36.953125 
Q 45.015625 41.5 45.015625 49.421875 
Q 45.015625 57.28125 41.125 61.84375 
Q 37.25 66.40625 30.609375 66.40625 
Q 23.96875 66.40625 20.09375 61.84375 
Q 16.21875 57.28125 16.21875 49.421875 
Q 16.21875 41.5 20.09375 36.953125 
Q 23.96875 32.421875 30.609375 32.421875 
z
" id="DejaVuSans-57"/>
     <path d="M 54.890625 54.6875 
L 35.109375 28.078125 
L 55.90625 0 
L 45.3125 0 
L 29.390625 21.484375 
L 13.484375 0 
L 2.875 0 
L 24.125 28.609375 
L 4.6875 54.6875 
L 15.28125 54.6875 
L 29.78125 35.203125 
L 44.28125 54.6875 
z
" id="DejaVuSans-120"/>
     <path d="M 46 62.703125 
L 46 35.5 
L 73.1875 35.5 
L 73.1875 27.203125 
L 46 27.203125 
L 46 0 
L 37.796875 0 
L 37.796875 27.203125 
L 10.59375 27.203125 
L 10.59375 35.5 
L 37.796875 35.5 
L 37.796875 62.703125 
z
" id="DejaVuSans-43"/>
    </defs>
    <g style="fill:#808080;" transform="translate(295.2 385.92)scale(0.18 -0.18)">
     <use xlink:href="#DejaVuSans-121"/>
     <use x="59.179688" xlink:href="#DejaVuSans-32"/>
     <use x="90.966797" xlink:href="#DejaVuSans-61"/>
     <use x="174.755859" xlink:href="#DejaVuSans-32"/>
     <use x="206.542969" xlink:href="#DejaVuSans-48"/>
     <use x="270.166016" xlink:href="#DejaVuSans-46"/>
     <use x="301.953125" xlink:href="#DejaVuSans-53"/>
     <use x="365.576172" xlink:href="#DejaVuSans-48"/>
     <use x="429.199219" xlink:href="#DejaVuSans-57"/>
     <use x="492.822266" xlink:href="#DejaVuSans-120"/>
     <use x="552.001953" xlink:href="#DejaVuSans-32"/>
     <use x="583.789062" xlink:href="#DejaVuSans-43"/>
     <use x="667.578125" xlink:href="#DejaVuSans-32"/>
     <use x="699.365234" xlink:href="#DejaVuSans-52"/>
     <use x="762.988281" xlink:href="#DejaVuSans-57"/>
     <use x="826.611328" xlink:href="#DejaVuSans-46"/>
     <use x="858.398438" xlink:href="#DejaVuSans-50"/>
     <use x="922.021484" xlink:href="#DejaVuSans-56"/>
     <use x="985.644531" xlink:href="#DejaVuSans-49"/>
    </g>
   </g>
   <g id="text_21">
    <!-- Lot Configuration: CulDSac -->
    <defs>
     <path d="M 64.40625 67.28125 
L 64.40625 56.890625 
Q 59.421875 61.53125 53.78125 63.8125 
Q 48.140625 66.109375 41.796875 66.109375 
Q 29.296875 66.109375 22.65625 58.46875 
Q 16.015625 50.828125 16.015625 36.375 
Q 16.015625 21.96875 22.65625 14.328125 
Q 29.296875 6.6875 41.796875 6.6875 
Q 48.140625 6.6875 53.78125 8.984375 
Q 59.421875 11.28125 64.40625 15.921875 
L 64.40625 5.609375 
Q 59.234375 2.09375 53.4375 0.328125 
Q 47.65625 -1.421875 41.21875 -1.421875 
Q 24.65625 -1.421875 15.125 8.703125 
Q 5.609375 18.84375 5.609375 36.375 
Q 5.609375 53.953125 15.125 64.078125 
Q 24.65625 74.21875 41.21875 74.21875 
Q 47.75 74.21875 53.53125 72.484375 
Q 59.328125 70.75 64.40625 67.28125 
z
" id="DejaVuSans-67"/>
     <path d="M 8.5 21.578125 
L 8.5 54.6875 
L 17.484375 54.6875 
L 17.484375 21.921875 
Q 17.484375 14.15625 20.5 10.265625 
Q 23.53125 6.390625 29.59375 6.390625 
Q 36.859375 6.390625 41.078125 11.03125 
Q 45.3125 15.671875 45.3125 23.6875 
L 45.3125 54.6875 
L 54.296875 54.6875 
L 54.296875 0 
L 45.3125 0 
L 45.3125 8.40625 
Q 42.046875 3.421875 37.71875 1 
Q 33.40625 -1.421875 27.6875 -1.421875 
Q 18.265625 -1.421875 13.375 4.4375 
Q 8.5 10.296875 8.5 21.578125 
z
M 31.109375 56 
z
" id="DejaVuSans-117"/>
     <path d="M 11.71875 12.40625 
L 22.015625 12.40625 
L 22.015625 0 
L 11.71875 0 
z
M 11.71875 51.703125 
L 22.015625 51.703125 
L 22.015625 39.3125 
L 11.71875 39.3125 
z
" id="DejaVuSans-58"/>
     <path d="M 19.671875 64.796875 
L 19.671875 8.109375 
L 31.59375 8.109375 
Q 46.6875 8.109375 53.6875 14.9375 
Q 60.6875 21.78125 60.6875 36.53125 
Q 60.6875 51.171875 53.6875 57.984375 
Q 46.6875 64.796875 31.59375 64.796875 
z
M 9.8125 72.90625 
L 30.078125 72.90625 
Q 51.265625 72.90625 61.171875 64.09375 
Q 71.09375 55.28125 71.09375 36.53125 
Q 71.09375 17.671875 61.125 8.828125 
Q 51.171875 0 30.078125 0 
L 9.8125 0 
z
" id="DejaVuSans-68"/>
     <path d="M 53.515625 70.515625 
L 53.515625 60.890625 
Q 47.90625 63.578125 42.921875 64.890625 
Q 37.9375 66.21875 33.296875 66.21875 
Q 25.25 66.21875 20.875 63.09375 
Q 16.5 59.96875 16.5 54.203125 
Q 16.5 49.359375 19.40625 46.890625 
Q 22.3125 44.4375 30.421875 42.921875 
L 36.375 41.703125 
Q 47.40625 39.59375 52.65625 34.296875 
Q 57.90625 29 57.90625 20.125 
Q 57.90625 9.515625 50.796875 4.046875 
Q 43.703125 -1.421875 29.984375 -1.421875 
Q 24.8125 -1.421875 18.96875 -0.25 
Q 13.140625 0.921875 6.890625 3.21875 
L 6.890625 13.375 
Q 12.890625 10.015625 18.65625 8.296875 
Q 24.421875 6.59375 29.984375 6.59375 
Q 38.421875 6.59375 43.015625 9.90625 
Q 47.609375 13.234375 47.609375 19.390625 
Q 47.609375 24.75 44.3125 27.78125 
Q 41.015625 30.8125 33.5 32.328125 
L 27.484375 33.5 
Q 16.453125 35.6875 11.515625 40.375 
Q 6.59375 45.0625 6.59375 53.421875 
Q 6.59375 63.09375 13.40625 68.65625 
Q 20.21875 74.21875 32.171875 74.21875 
Q 37.3125 74.21875 42.625 73.28125 
Q 47.953125 72.359375 53.515625 70.515625 
z
" id="DejaVuSans-83"/>
     <path d="M 48.78125 52.59375 
L 48.78125 44.1875 
Q 44.96875 46.296875 41.140625 47.34375 
Q 37.3125 48.390625 33.40625 48.390625 
Q 24.65625 48.390625 19.8125 42.84375 
Q 14.984375 37.3125 14.984375 27.296875 
Q 14.984375 17.28125 19.8125 11.734375 
Q 24.65625 6.203125 33.40625 6.203125 
Q 37.3125 6.203125 41.140625 7.25 
Q 44.96875 8.296875 48.78125 10.40625 
L 48.78125 2.09375 
Q 45.015625 0.34375 40.984375 -0.53125 
Q 36.96875 -1.421875 32.421875 -1.421875 
Q 20.0625 -1.421875 12.78125 6.34375 
Q 5.515625 14.109375 5.515625 27.296875 
Q 5.515625 40.671875 12.859375 48.328125 
Q 20.21875 56 33.015625 56 
Q 37.15625 56 41.109375 55.140625 
Q 45.0625 54.296875 48.78125 52.59375 
z
" id="DejaVuSans-99"/>
    </defs>
    <g transform="translate(173.923594 63.12)scale(0.18 -0.18)">
     <use xlink:href="#DejaVuSans-76"/>
     <use x="53.962891" xlink:href="#DejaVuSans-111"/>
     <use x="115.144531" xlink:href="#DejaVuSans-116"/>
     <use x="154.353516" xlink:href="#DejaVuSans-32"/>
     <use x="186.140625" xlink:href="#DejaVuSans-67"/>
     <use x="255.964844" xlink:href="#DejaVuSans-111"/>
     <use x="317.146484" xlink:href="#DejaVuSans-110"/>
     <use x="380.525391" xlink:href="#DejaVuSans-102"/>
     <use x="415.730469" xlink:href="#DejaVuSans-105"/>
     <use x="443.513672" xlink:href="#DejaVuSans-103"/>
     <use x="506.990234" xlink:href="#DejaVuSans-117"/>
     <use x="570.369141" xlink:href="#DejaVuSans-114"/>
     <use x="611.482422" xlink:href="#DejaVuSans-97"/>
     <use x="672.761719" xlink:href="#DejaVuSans-116"/>
     <use x="711.970703" xlink:href="#DejaVuSans-105"/>
     <use x="739.753906" xlink:href="#DejaVuSans-111"/>
     <use x="800.935547" xlink:href="#DejaVuSans-110"/>
     <use x="864.314453" xlink:href="#DejaVuSans-58"/>
     <use x="898.005859" xlink:href="#DejaVuSans-32"/>
     <use x="929.792969" xlink:href="#DejaVuSans-67"/>
     <use x="999.617188" xlink:href="#DejaVuSans-117"/>
     <use x="1062.996094" xlink:href="#DejaVuSans-108"/>
     <use x="1090.779297" xlink:href="#DejaVuSans-68"/>
     <use x="1167.78125" xlink:href="#DejaVuSans-83"/>
     <use x="1231.257812" xlink:href="#DejaVuSans-97"/>
     <use x="1292.537109" xlink:href="#DejaVuSans-99"/>
    </g>
   </g>
  </g>
 </g>
 <defs>
  <clipPath id="p62214dafef">
   <rect height="443.52" width="446.4" x="72" y="69.12"/>
  </clipPath>
 </defs>
</svg>
