<?xml version="1.0" encoding="utf-8" standalone="no"?>
<!DOCTYPE svg PUBLIC "-//W3C//DTD SVG 1.1//EN"
  "http://www.w3.org/Graphics/SVG/1.1/DTD/svg11.dtd">
<!-- Created with matplotlib (https://matplotlib.org/) -->
<svg height="864pt" version="1.1" viewBox="0 0 864 864" width="864pt" xmlns="http://www.w3.org/2000/svg" xmlns:xlink="http://www.w3.org/1999/xlink">
 <defs>
  <style type="text/css">
*{stroke-linecap:butt;stroke-linejoin:round;}
  </style>
 </defs>
 <g id="figure_1">
  <g id="patch_1">
   <path d="M 0 864 
L 864 864 
L 864 0 
L 0 0 
z
" style="fill:#ffffff;"/>
  </g>
  <g id="axes_1">
   <g id="patch_2">
    <path d="M 108 768.96 
L 777.6 768.96 
L 777.6 103.68 
L 108 103.68 
z
" style="fill:#ffffff;"/>
   </g>
   <g id="PathCollection_1">
    <defs>
     <path d="M -0 4.242641 
L 2.545584 0 
L 0 -4.242641 
L -2.545584 -0 
z
" id="ma9512b83d3" style="stroke:#72b6a1;"/>
    </defs>
    <g clip-path="url(#pc4cae9c421)">
     <use style="fill:#72b6a1;stroke:#72b6a1;" x="174.96" xlink:href="#ma9512b83d3" y="738.72"/>
     <use style="fill:#72b6a1;stroke:#72b6a1;" x="174.96" xlink:href="#ma9512b83d3" y="738.374808"/>
     <use style="fill:#72b6a1;stroke:#72b6a1;" x="174.96" xlink:href="#ma9512b83d3" y="133.92"/>
     <use style="fill:#72b6a1;stroke:#72b6a1;" x="174.96" xlink:href="#ma9512b83d3" y="142.318833"/>
    </g>
   </g>
   <g id="PatchCollection_1">
    <path clip-path="url(#pc4cae9c421)" d="M 174.75075 737.960727 
L 175.16925 737.960727 
L 175.16925 161.51148 
L 174.75075 161.51148 
z
" style="fill:#ffffff;"/>
    <path clip-path="url(#pc4cae9c421)" d="M 174.5415 735.752522 
L 175.3785 735.752522 
L 175.3785 247.37296 
L 174.5415 247.37296 
z
" style="fill:#edf6f3;"/>
    <path clip-path="url(#pc4cae9c421)" d="M 174.123 726.759536 
L 175.797 726.759536 
L 175.797 295.295029 
L 174.123 295.295029 
z
" style="fill:#dcede7;"/>
    <path clip-path="url(#pc4cae9c421)" d="M 173.286 718.239313 
L 176.634 718.239313 
L 176.634 365.084769 
L 173.286 365.084769 
z
" style="fill:#cae4dc;"/>
    <path clip-path="url(#pc4cae9c421)" d="M 171.612 710.579971 
L 178.308 710.579971 
L 178.308 410.28611 
L 171.612 410.28611 
z
" style="fill:#b8dad0;"/>
    <path clip-path="url(#pc4cae9c421)" d="M 168.264 699.122125 
L 181.656 699.122125 
L 181.656 448.994365 
L 168.264 448.994365 
z
" style="fill:#a7d1c4;"/>
    <path clip-path="url(#pc4cae9c421)" d="M 161.568 685.723361 
L 188.352 685.723361 
L 188.352 495.857231 
L 161.568 495.857231 
z
" style="fill:#95c8b8;"/>
    <path clip-path="url(#pc4cae9c421)" d="M 148.176 673.964994 
L 201.744 673.964994 
L 201.744 539.615153 
L 148.176 539.615153 
z
" style="fill:#83bfac;"/>
    <path clip-path="url(#pc4cae9c421)" d="M 121.392 657.608266 
L 228.528 657.608266 
L 228.528 581.577825 
L 121.392 581.577825 
z
" style="fill:#72b6a1;"/>
   </g>
   <g id="PathCollection_2">
    <defs>
     <path d="M -0 4.242641 
L 2.545584 0 
L 0 -4.242641 
L -2.545584 -0 
z
" id="mbfb0e006de" style="stroke:#e99675;"/>
    </defs>
    <g clip-path="url(#pc4cae9c421)">
     <use style="fill:#e99675;stroke:#e99675;" x="308.88" xlink:href="#mbfb0e006de" y="721.838345"/>
     <use style="fill:#e99675;stroke:#e99675;" x="308.88" xlink:href="#mbfb0e006de" y="575.740636"/>
    </g>
   </g>
   <g id="PatchCollection_2">
    <path clip-path="url(#pc4cae9c421)" d="M 308.4615 720.608047 
L 309.2985 720.608047 
L 309.2985 577.165321 
L 308.4615 577.165321 
z
" style="fill:#ffffff;"/>
    <path clip-path="url(#pc4cae9c421)" d="M 308.043 719.377749 
L 309.717 719.377749 
L 309.717 578.590006 
L 308.043 578.590006 
z
" style="fill:#fcf0ec;"/>
    <path clip-path="url(#pc4cae9c421)" d="M 307.206 716.917153 
L 310.554 716.917153 
L 310.554 581.439376 
L 307.206 581.439376 
z
" style="fill:#f9e1d7;"/>
    <path clip-path="url(#pc4cae9c421)" d="M 305.532 711.995962 
L 312.228 711.995962 
L 312.228 587.138116 
L 305.532 587.138116 
z
" style="fill:#f6d2c4;"/>
    <path clip-path="url(#pc4cae9c421)" d="M 302.184 702.153579 
L 315.576 702.153579 
L 315.576 598.535595 
L 302.184 598.535595 
z
" style="fill:#f2c3b0;"/>
    <path clip-path="url(#pc4cae9c421)" d="M 295.488 697.53422 
L 322.272 697.53422 
L 322.272 623.571993 
L 295.488 623.571993 
z
" style="fill:#efb49d;"/>
    <path clip-path="url(#pc4cae9c421)" d="M 282.096 690.55269 
L 335.664 690.55269 
L 335.664 633.02068 
L 282.096 633.02068 
z
" style="fill:#eca588;"/>
    <path clip-path="url(#pc4cae9c421)" d="M 255.312 678.269396 
L 362.448 678.269396 
L 362.448 648.348552 
L 255.312 648.348552 
z
" style="fill:#e99675;"/>
   </g>
   <g id="PathCollection_3">
    <defs>
     <path d="M -0 4.242641 
L 2.545584 0 
L 0 -4.242641 
L -2.545584 -0 
z
" id="m5d18a6ede2" style="stroke:#95a3c3;"/>
    </defs>
    <g clip-path="url(#pc4cae9c421)">
     <use style="fill:#95a3c3;stroke:#95a3c3;" x="442.8" xlink:href="#m5d18a6ede2" y="699.161494"/>
     <use style="fill:#95a3c3;stroke:#95a3c3;" x="442.8" xlink:href="#m5d18a6ede2" y="594.763994"/>
    </g>
   </g>
   <g id="PatchCollection_3">
    <path clip-path="url(#pc4cae9c421)" d="M 442.3815 698.701363 
L 443.2185 698.701363 
L 443.2185 595.291053 
L 442.3815 595.291053 
z
" style="fill:#ffffff;"/>
    <path clip-path="url(#pc4cae9c421)" d="M 441.963 698.241231 
L 443.637 698.241231 
L 443.637 595.818113 
L 441.963 595.818113 
z
" style="fill:#f0f2f7;"/>
    <path clip-path="url(#pc4cae9c421)" d="M 441.126 697.320969 
L 444.474 697.320969 
L 444.474 596.872232 
L 441.126 596.872232 
z
" style="fill:#e1e5ee;"/>
    <path clip-path="url(#pc4cae9c421)" d="M 439.452 695.480443 
L 446.148 695.480443 
L 446.148 598.980471 
L 439.452 598.980471 
z
" style="fill:#d2d8e5;"/>
    <path clip-path="url(#pc4cae9c421)" d="M 436.104 693.295434 
L 449.496 693.295434 
L 449.496 605.042066 
L 436.104 605.042066 
z
" style="fill:#c2cadd;"/>
    <path clip-path="url(#pc4cae9c421)" d="M 429.408 691.985741 
L 456.192 691.985741 
L 456.192 611.551162 
L 429.408 611.551162 
z
" style="fill:#b3bdd4;"/>
    <path clip-path="url(#pc4cae9c421)" d="M 416.016 683.476673 
L 469.584 683.476673 
L 469.584 638.741231 
L 416.016 638.741231 
z
" style="fill:#a4b0cb;"/>
    <path clip-path="url(#pc4cae9c421)" d="M 389.232 668.610737 
L 496.368 668.610737 
L 496.368 646.248843 
L 389.232 646.248843 
z
" style="fill:#95a3c3;"/>
   </g>
   <g id="PathCollection_4">
    <defs>
     <path d="M -0 4.242641 
L 2.545584 0 
L 0 -4.242641 
L -2.545584 -0 
z
" id="m44dae30e30" style="stroke:#db96c0;"/>
    </defs>
    <g clip-path="url(#pc4cae9c421)">
     <use style="fill:#db96c0;stroke:#db96c0;" x="576.72" xlink:href="#m44dae30e30" y="704.620736"/>
     <use style="fill:#db96c0;stroke:#db96c0;" x="576.72" xlink:href="#m44dae30e30" y="438.377714"/>
    </g>
   </g>
   <g id="PatchCollection_4">
    <path clip-path="url(#pc4cae9c421)" d="M 576.3015 703.786594 
L 577.1385 703.786594 
L 577.1385 443.050021 
L 576.3015 443.050021 
z
" style="fill:#ffffff;"/>
    <path clip-path="url(#pc4cae9c421)" d="M 575.883 702.952452 
L 577.557 702.952452 
L 577.557 447.722329 
L 575.883 447.722329 
z
" style="fill:#faf0f6;"/>
    <path clip-path="url(#pc4cae9c421)" d="M 575.046 701.284168 
L 578.394 701.284168 
L 578.394 457.066943 
L 575.046 457.066943 
z
" style="fill:#f5e1ed;"/>
    <path clip-path="url(#pc4cae9c421)" d="M 573.372 698.590636 
L 580.068 698.590636 
L 580.068 484.236526 
L 573.372 484.236526 
z
" style="fill:#f0d2e4;"/>
    <path clip-path="url(#pc4cae9c421)" d="M 570.024 695.30328 
L 583.416 695.30328 
L 583.416 497.739095 
L 570.024 497.739095 
z
" style="fill:#eac3db;"/>
    <path clip-path="url(#pc4cae9c421)" d="M 563.328 678.531859 
L 590.112 678.531859 
L 590.112 534.570604 
L 563.328 534.570604 
z
" style="fill:#e5b4d2;"/>
    <path clip-path="url(#pc4cae9c421)" d="M 549.936 661.314251 
L 603.504 661.314251 
L 603.504 555.016514 
L 549.936 555.016514 
z
" style="fill:#e0a5c9;"/>
    <path clip-path="url(#pc4cae9c421)" d="M 523.152 647.771132 
L 630.288 647.771132 
L 630.288 593.861119 
L 523.152 593.861119 
z
" style="fill:#db96c0;"/>
   </g>
   <g id="PathCollection_5">
    <defs>
     <path d="M -0 4.242641 
L 2.545584 0 
L 0 -4.242641 
L -2.545584 -0 
z
" id="mc8c7a8ee68" style="stroke:#a2c865;"/>
    </defs>
    <g clip-path="url(#pc4cae9c421)">
     <use style="fill:#a2c865;stroke:#a2c865;" x="710.64" xlink:href="#mc8c7a8ee68" y="705.040678"/>
     <use style="fill:#a2c865;stroke:#a2c865;" x="710.64" xlink:href="#mc8c7a8ee68" y="574.858759"/>
    </g>
   </g>
   <g id="PatchCollection_5">
    <path clip-path="url(#pc4cae9c421)" d="M 710.2215 704.627298 
L 711.0585 704.627298 
L 711.0585 576.27114 
L 710.2215 576.27114 
z
" style="fill:#ffffff;"/>
    <path clip-path="url(#pc4cae9c421)" d="M 709.803 704.213918 
L 711.477 704.213918 
L 711.477 577.683522 
L 709.803 577.683522 
z
" style="fill:#f2f7e9;"/>
    <path clip-path="url(#pc4cae9c421)" d="M 708.966 703.387157 
L 712.314 703.387157 
L 712.314 580.508286 
L 708.966 580.508286 
z
" style="fill:#e4efd3;"/>
    <path clip-path="url(#pc4cae9c421)" d="M 707.292 701.733637 
L 713.988 701.733637 
L 713.988 586.157814 
L 707.292 586.157814 
z
" style="fill:#d7e7bd;"/>
    <path clip-path="url(#pc4cae9c421)" d="M 703.944 699.47645 
L 717.336 699.47645 
L 717.336 592.601294 
L 703.944 592.601294 
z
" style="fill:#cae0a7;"/>
    <path clip-path="url(#pc4cae9c421)" d="M 697.248 697.53422 
L 724.032 697.53422 
L 724.032 599.792795 
L 697.248 599.792795 
z
" style="fill:#bdd891;"/>
    <path clip-path="url(#pc4cae9c421)" d="M 683.856 695.382019 
L 737.424 695.382019 
L 737.424 619.05762 
L 683.856 619.05762 
z
" style="fill:#afd07b;"/>
    <path clip-path="url(#pc4cae9c421)" d="M 657.072 687.613098 
L 764.208 687.613098 
L 764.208 626.301614 
L 657.072 626.301614 
z
" style="fill:#a2c865;"/>
   </g>
   <g id="matplotlib.axis_1">
    <g id="xtick_1">
     <g id="line2d_1">
      <defs>
       <path d="M 0 0 
L 0 3.5 
" id="ma35042df7c" style="stroke:#000000;stroke-width:0.8;"/>
      </defs>
      <g>
       <use style="stroke:#000000;stroke-width:0.8;" x="174.96" xlink:href="#ma35042df7c" y="768.96"/>
      </g>
     </g>
     <g id="text_1">
      <!-- Single-family -->
      <defs>
       <path d="M 53.515625 70.515625 
L 53.515625 60.890625 
Q 47.90625 63.578125 42.921875 64.890625 
Q 37.9375 66.21875 33.296875 66.21875 
Q 25.25 66.21875 20.875 63.09375 
Q 16.5 59.96875 16.5 54.203125 
Q 16.5 49.359375 19.40625 46.890625 
Q 22.3125 44.4375 30.421875 42.921875 
L 36.375 41.703125 
Q 47.40625 39.59375 52.65625 34.296875 
Q 57.90625 29 57.90625 20.125 
Q 57.90625 9.515625 50.796875 4.046875 
Q 43.703125 -1.421875 29.984375 -1.421875 
Q 24.8125 -1.421875 18.96875 -0.25 
Q 13.140625 0.921875 6.890625 3.21875 
L 6.890625 13.375 
Q 12.890625 10.015625 18.65625 8.296875 
Q 24.421875 6.59375 29.984375 6.59375 
Q 38.421875 6.59375 43.015625 9.90625 
Q 47.609375 13.234375 47.609375 19.390625 
Q 47.609375 24.75 44.3125 27.78125 
Q 41.015625 30.8125 33.5 32.328125 
L 27.484375 33.5 
Q 16.453125 35.6875 11.515625 40.375 
Q 6.59375 45.0625 6.59375 53.421875 
Q 6.59375 63.09375 13.40625 68.65625 
Q 20.21875 74.21875 32.171875 74.21875 
Q 37.3125 74.21875 42.625 73.28125 
Q 47.953125 72.359375 53.515625 70.515625 
z
" id="DejaVuSans-83"/>
       <path d="M 9.421875 54.6875 
L 18.40625 54.6875 
L 18.40625 0 
L 9.421875 0 
z
M 9.421875 75.984375 
L 18.40625 75.984375 
L 18.40625 64.59375 
L 9.421875 64.59375 
z
" id="DejaVuSans-105"/>
       <path d="M 54.890625 33.015625 
L 54.890625 0 
L 45.90625 0 
L 45.90625 32.71875 
Q 45.90625 40.484375 42.875 44.328125 
Q 39.84375 48.1875 33.796875 48.1875 
Q 26.515625 48.1875 22.3125 43.546875 
Q 18.109375 38.921875 18.109375 30.90625 
L 18.109375 0 
L 9.078125 0 
L 9.078125 54.6875 
L 18.109375 54.6875 
L 18.109375 46.1875 
Q 21.34375 51.125 25.703125 53.5625 
Q 30.078125 56 35.796875 56 
Q 45.21875 56 50.046875 50.171875 
Q 54.890625 44.34375 54.890625 33.015625 
z
" id="DejaVuSans-110"/>
       <path d="M 45.40625 27.984375 
Q 45.40625 37.75 41.375 43.109375 
Q 37.359375 48.484375 30.078125 48.484375 
Q 22.859375 48.484375 18.828125 43.109375 
Q 14.796875 37.75 14.796875 27.984375 
Q 14.796875 18.265625 18.828125 12.890625 
Q 22.859375 7.515625 30.078125 7.515625 
Q 37.359375 7.515625 41.375 12.890625 
Q 45.40625 18.265625 45.40625 27.984375 
z
M 54.390625 6.78125 
Q 54.390625 -7.171875 48.1875 -13.984375 
Q 42 -20.796875 29.203125 -20.796875 
Q 24.46875 -20.796875 20.265625 -20.09375 
Q 16.0625 -19.390625 12.109375 -17.921875 
L 12.109375 -9.1875 
Q 16.0625 -11.328125 19.921875 -12.34375 
Q 23.78125 -13.375 27.78125 -13.375 
Q 36.625 -13.375 41.015625 -8.765625 
Q 45.40625 -4.15625 45.40625 5.171875 
L 45.40625 9.625 
Q 42.625 4.78125 38.28125 2.390625 
Q 33.9375 0 27.875 0 
Q 17.828125 0 11.671875 7.65625 
Q 5.515625 15.328125 5.515625 27.984375 
Q 5.515625 40.671875 11.671875 48.328125 
Q 17.828125 56 27.875 56 
Q 33.9375 56 38.28125 53.609375 
Q 42.625 51.21875 45.40625 46.390625 
L 45.40625 54.6875 
L 54.390625 54.6875 
z
" id="DejaVuSans-103"/>
       <path d="M 9.421875 75.984375 
L 18.40625 75.984375 
L 18.40625 0 
L 9.421875 0 
z
" id="DejaVuSans-108"/>
       <path d="M 56.203125 29.59375 
L 56.203125 25.203125 
L 14.890625 25.203125 
Q 15.484375 15.921875 20.484375 11.0625 
Q 25.484375 6.203125 34.421875 6.203125 
Q 39.59375 6.203125 44.453125 7.46875 
Q 49.3125 8.734375 54.109375 11.28125 
L 54.109375 2.78125 
Q 49.265625 0.734375 44.1875 -0.34375 
Q 39.109375 -1.421875 33.890625 -1.421875 
Q 20.796875 -1.421875 13.15625 6.1875 
Q 5.515625 13.8125 5.515625 26.8125 
Q 5.515625 40.234375 12.765625 48.109375 
Q 20.015625 56 32.328125 56 
Q 43.359375 56 49.78125 48.890625 
Q 56.203125 41.796875 56.203125 29.59375 
z
M 47.21875 32.234375 
Q 47.125 39.59375 43.09375 43.984375 
Q 39.0625 48.390625 32.421875 48.390625 
Q 24.90625 48.390625 20.390625 44.140625 
Q 15.875 39.890625 15.1875 32.171875 
z
" id="DejaVuSans-101"/>
       <path d="M 4.890625 31.390625 
L 31.203125 31.390625 
L 31.203125 23.390625 
L 4.890625 23.390625 
z
" id="DejaVuSans-45"/>
       <path d="M 37.109375 75.984375 
L 37.109375 68.5 
L 28.515625 68.5 
Q 23.6875 68.5 21.796875 66.546875 
Q 19.921875 64.59375 19.921875 59.515625 
L 19.921875 54.6875 
L 34.71875 54.6875 
L 34.71875 47.703125 
L 19.921875 47.703125 
L 19.921875 0 
L 10.890625 0 
L 10.890625 47.703125 
L 2.296875 47.703125 
L 2.296875 54.6875 
L 10.890625 54.6875 
L 10.890625 58.5 
Q 10.890625 67.625 15.140625 71.796875 
Q 19.390625 75.984375 28.609375 75.984375 
z
" id="DejaVuSans-102"/>
       <path d="M 34.28125 27.484375 
Q 23.390625 27.484375 19.1875 25 
Q 14.984375 22.515625 14.984375 16.5 
Q 14.984375 11.71875 18.140625 8.90625 
Q 21.296875 6.109375 26.703125 6.109375 
Q 34.1875 6.109375 38.703125 11.40625 
Q 43.21875 16.703125 43.21875 25.484375 
L 43.21875 27.484375 
z
M 52.203125 31.203125 
L 52.203125 0 
L 43.21875 0 
L 43.21875 8.296875 
Q 40.140625 3.328125 35.546875 0.953125 
Q 30.953125 -1.421875 24.3125 -1.421875 
Q 15.921875 -1.421875 10.953125 3.296875 
Q 6 8.015625 6 15.921875 
Q 6 25.140625 12.171875 29.828125 
Q 18.359375 34.515625 30.609375 34.515625 
L 43.21875 34.515625 
L 43.21875 35.40625 
Q 43.21875 41.609375 39.140625 45 
Q 35.0625 48.390625 27.6875 48.390625 
Q 23 48.390625 18.546875 47.265625 
Q 14.109375 46.140625 10.015625 43.890625 
L 10.015625 52.203125 
Q 14.9375 54.109375 19.578125 55.046875 
Q 24.21875 56 28.609375 56 
Q 40.484375 56 46.34375 49.84375 
Q 52.203125 43.703125 52.203125 31.203125 
z
" id="DejaVuSans-97"/>
       <path d="M 52 44.1875 
Q 55.375 50.25 60.0625 53.125 
Q 64.75 56 71.09375 56 
Q 79.640625 56 84.28125 50.015625 
Q 88.921875 44.046875 88.921875 33.015625 
L 88.921875 0 
L 79.890625 0 
L 79.890625 32.71875 
Q 79.890625 40.578125 77.09375 44.375 
Q 74.3125 48.1875 68.609375 48.1875 
Q 61.625 48.1875 57.5625 43.546875 
Q 53.515625 38.921875 53.515625 30.90625 
L 53.515625 0 
L 44.484375 0 
L 44.484375 32.71875 
Q 44.484375 40.625 41.703125 44.40625 
Q 38.921875 48.1875 33.109375 48.1875 
Q 26.21875 48.1875 22.15625 43.53125 
Q 18.109375 38.875 18.109375 30.90625 
L 18.109375 0 
L 9.078125 0 
L 9.078125 54.6875 
L 18.109375 54.6875 
L 18.109375 46.1875 
Q 21.1875 51.21875 25.484375 53.609375 
Q 29.78125 56 35.6875 56 
Q 41.65625 56 45.828125 52.96875 
Q 50 49.953125 52 44.1875 
z
" id="DejaVuSans-109"/>
       <path d="M 32.171875 -5.078125 
Q 28.375 -14.84375 24.75 -17.8125 
Q 21.140625 -20.796875 15.09375 -20.796875 
L 7.90625 -20.796875 
L 7.90625 -13.28125 
L 13.1875 -13.28125 
Q 16.890625 -13.28125 18.9375 -11.515625 
Q 21 -9.765625 23.484375 -3.21875 
L 25.09375 0.875 
L 2.984375 54.6875 
L 12.5 54.6875 
L 29.59375 11.921875 
L 46.6875 54.6875 
L 56.203125 54.6875 
z
" id="DejaVuSans-121"/>
      </defs>
      <g transform="translate(103.222813 792.676563)scale(0.22 -0.22)">
       <use xlink:href="#DejaVuSans-83"/>
       <use x="63.476562" xlink:href="#DejaVuSans-105"/>
       <use x="91.259766" xlink:href="#DejaVuSans-110"/>
       <use x="154.638672" xlink:href="#DejaVuSans-103"/>
       <use x="218.115234" xlink:href="#DejaVuSans-108"/>
       <use x="245.898438" xlink:href="#DejaVuSans-101"/>
       <use x="307.421875" xlink:href="#DejaVuSans-45"/>
       <use x="343.505859" xlink:href="#DejaVuSans-102"/>
       <use x="378.710938" xlink:href="#DejaVuSans-97"/>
       <use x="439.990234" xlink:href="#DejaVuSans-109"/>
       <use x="537.402344" xlink:href="#DejaVuSans-105"/>
       <use x="565.185547" xlink:href="#DejaVuSans-108"/>
       <use x="592.96875" xlink:href="#DejaVuSans-121"/>
      </g>
      <!--  Detatched -->
      <defs>
       <path id="DejaVuSans-32"/>
       <path d="M 19.671875 64.796875 
L 19.671875 8.109375 
L 31.59375 8.109375 
Q 46.6875 8.109375 53.6875 14.9375 
Q 60.6875 21.78125 60.6875 36.53125 
Q 60.6875 51.171875 53.6875 57.984375 
Q 46.6875 64.796875 31.59375 64.796875 
z
M 9.8125 72.90625 
L 30.078125 72.90625 
Q 51.265625 72.90625 61.171875 64.09375 
Q 71.09375 55.28125 71.09375 36.53125 
Q 71.09375 17.671875 61.125 8.828125 
Q 51.171875 0 30.078125 0 
L 9.8125 0 
z
" id="DejaVuSans-68"/>
       <path d="M 18.3125 70.21875 
L 18.3125 54.6875 
L 36.8125 54.6875 
L 36.8125 47.703125 
L 18.3125 47.703125 
L 18.3125 18.015625 
Q 18.3125 11.328125 20.140625 9.421875 
Q 21.96875 7.515625 27.59375 7.515625 
L 36.8125 7.515625 
L 36.8125 0 
L 27.59375 0 
Q 17.1875 0 13.234375 3.875 
Q 9.28125 7.765625 9.28125 18.015625 
L 9.28125 47.703125 
L 2.6875 47.703125 
L 2.6875 54.6875 
L 9.28125 54.6875 
L 9.28125 70.21875 
z
" id="DejaVuSans-116"/>
       <path d="M 48.78125 52.59375 
L 48.78125 44.1875 
Q 44.96875 46.296875 41.140625 47.34375 
Q 37.3125 48.390625 33.40625 48.390625 
Q 24.65625 48.390625 19.8125 42.84375 
Q 14.984375 37.3125 14.984375 27.296875 
Q 14.984375 17.28125 19.8125 11.734375 
Q 24.65625 6.203125 33.40625 6.203125 
Q 37.3125 6.203125 41.140625 7.25 
Q 44.96875 8.296875 48.78125 10.40625 
L 48.78125 2.09375 
Q 45.015625 0.34375 40.984375 -0.53125 
Q 36.96875 -1.421875 32.421875 -1.421875 
Q 20.0625 -1.421875 12.78125 6.34375 
Q 5.515625 14.109375 5.515625 27.296875 
Q 5.515625 40.671875 12.859375 48.328125 
Q 20.21875 56 33.015625 56 
Q 37.15625 56 41.109375 55.140625 
Q 45.0625 54.296875 48.78125 52.59375 
z
" id="DejaVuSans-99"/>
       <path d="M 54.890625 33.015625 
L 54.890625 0 
L 45.90625 0 
L 45.90625 32.71875 
Q 45.90625 40.484375 42.875 44.328125 
Q 39.84375 48.1875 33.796875 48.1875 
Q 26.515625 48.1875 22.3125 43.546875 
Q 18.109375 38.921875 18.109375 30.90625 
L 18.109375 0 
L 9.078125 0 
L 9.078125 75.984375 
L 18.109375 75.984375 
L 18.109375 46.1875 
Q 21.34375 51.125 25.703125 53.5625 
Q 30.078125 56 35.796875 56 
Q 45.21875 56 50.046875 50.171875 
Q 54.890625 44.34375 54.890625 33.015625 
z
" id="DejaVuSans-104"/>
       <path d="M 45.40625 46.390625 
L 45.40625 75.984375 
L 54.390625 75.984375 
L 54.390625 0 
L 45.40625 0 
L 45.40625 8.203125 
Q 42.578125 3.328125 38.25 0.953125 
Q 33.9375 -1.421875 27.875 -1.421875 
Q 17.96875 -1.421875 11.734375 6.484375 
Q 5.515625 14.40625 5.515625 27.296875 
Q 5.515625 40.1875 11.734375 48.09375 
Q 17.96875 56 27.875 56 
Q 33.9375 56 38.25 53.625 
Q 42.578125 51.265625 45.40625 46.390625 
z
M 14.796875 27.296875 
Q 14.796875 17.390625 18.875 11.75 
Q 22.953125 6.109375 30.078125 6.109375 
Q 37.203125 6.109375 41.296875 11.75 
Q 45.40625 17.390625 45.40625 27.296875 
Q 45.40625 37.203125 41.296875 42.84375 
Q 37.203125 48.484375 30.078125 48.484375 
Q 22.953125 48.484375 18.875 42.84375 
Q 14.796875 37.203125 14.796875 27.296875 
z
" id="DejaVuSans-100"/>
      </defs>
      <g transform="translate(114.08875 817.31175)scale(0.22 -0.22)">
       <use xlink:href="#DejaVuSans-32"/>
       <use x="31.787109" xlink:href="#DejaVuSans-68"/>
       <use x="108.789062" xlink:href="#DejaVuSans-101"/>
       <use x="170.3125" xlink:href="#DejaVuSans-116"/>
       <use x="209.521484" xlink:href="#DejaVuSans-97"/>
       <use x="270.800781" xlink:href="#DejaVuSans-116"/>
       <use x="310.009766" xlink:href="#DejaVuSans-99"/>
       <use x="364.990234" xlink:href="#DejaVuSans-104"/>
       <use x="428.369141" xlink:href="#DejaVuSans-101"/>
       <use x="489.892578" xlink:href="#DejaVuSans-100"/>
      </g>
     </g>
    </g>
    <g id="xtick_2">
     <g id="line2d_2">
      <g>
       <use style="stroke:#000000;stroke-width:0.8;" x="308.88" xlink:href="#ma35042df7c" y="768.96"/>
      </g>
     </g>
     <g id="text_2">
      <!-- Two-family -->
      <defs>
       <path d="M -0.296875 72.90625 
L 61.375 72.90625 
L 61.375 64.59375 
L 35.5 64.59375 
L 35.5 0 
L 25.59375 0 
L 25.59375 64.59375 
L -0.296875 64.59375 
z
" id="DejaVuSans-84"/>
       <path d="M 4.203125 54.6875 
L 13.1875 54.6875 
L 24.421875 12.015625 
L 35.59375 54.6875 
L 46.1875 54.6875 
L 57.421875 12.015625 
L 68.609375 54.6875 
L 77.59375 54.6875 
L 63.28125 0 
L 52.6875 0 
L 40.921875 44.828125 
L 29.109375 0 
L 18.5 0 
z
" id="DejaVuSans-119"/>
       <path d="M 30.609375 48.390625 
Q 23.390625 48.390625 19.1875 42.75 
Q 14.984375 37.109375 14.984375 27.296875 
Q 14.984375 17.484375 19.15625 11.84375 
Q 23.34375 6.203125 30.609375 6.203125 
Q 37.796875 6.203125 41.984375 11.859375 
Q 46.1875 17.53125 46.1875 27.296875 
Q 46.1875 37.015625 41.984375 42.703125 
Q 37.796875 48.390625 30.609375 48.390625 
z
M 30.609375 56 
Q 42.328125 56 49.015625 48.375 
Q 55.71875 40.765625 55.71875 27.296875 
Q 55.71875 13.875 49.015625 6.21875 
Q 42.328125 -1.421875 30.609375 -1.421875 
Q 18.84375 -1.421875 12.171875 6.21875 
Q 5.515625 13.875 5.515625 27.296875 
Q 5.515625 40.765625 12.171875 48.375 
Q 18.84375 56 30.609375 56 
z
" id="DejaVuSans-111"/>
      </defs>
      <g transform="translate(250.124531 792.676563)scale(0.22 -0.22)">
       <use xlink:href="#DejaVuSans-84"/>
       <use x="44.583984" xlink:href="#DejaVuSans-119"/>
       <use x="126.371094" xlink:href="#DejaVuSans-111"/>
       <use x="189.427734" xlink:href="#DejaVuSans-45"/>
       <use x="225.511719" xlink:href="#DejaVuSans-102"/>
       <use x="260.716797" xlink:href="#DejaVuSans-97"/>
       <use x="321.996094" xlink:href="#DejaVuSans-109"/>
       <use x="419.408203" xlink:href="#DejaVuSans-105"/>
       <use x="447.191406" xlink:href="#DejaVuSans-108"/>
       <use x="474.974609" xlink:href="#DejaVuSans-121"/>
      </g>
      <!--  Conversion -->
      <defs>
       <path d="M 64.40625 67.28125 
L 64.40625 56.890625 
Q 59.421875 61.53125 53.78125 63.8125 
Q 48.140625 66.109375 41.796875 66.109375 
Q 29.296875 66.109375 22.65625 58.46875 
Q 16.015625 50.828125 16.015625 36.375 
Q 16.015625 21.96875 22.65625 14.328125 
Q 29.296875 6.6875 41.796875 6.6875 
Q 48.140625 6.6875 53.78125 8.984375 
Q 59.421875 11.28125 64.40625 15.921875 
L 64.40625 5.609375 
Q 59.234375 2.09375 53.4375 0.328125 
Q 47.65625 -1.421875 41.21875 -1.421875 
Q 24.65625 -1.421875 15.125 8.703125 
Q 5.609375 18.84375 5.609375 36.375 
Q 5.609375 53.953125 15.125 64.078125 
Q 24.65625 74.21875 41.21875 74.21875 
Q 47.75 74.21875 53.53125 72.484375 
Q 59.328125 70.75 64.40625 67.28125 
z
" id="DejaVuSans-67"/>
       <path d="M 2.984375 54.6875 
L 12.5 54.6875 
L 29.59375 8.796875 
L 46.6875 54.6875 
L 56.203125 54.6875 
L 35.6875 0 
L 23.484375 0 
z
" id="DejaVuSans-118"/>
       <path d="M 41.109375 46.296875 
Q 39.59375 47.171875 37.8125 47.578125 
Q 36.03125 48 33.890625 48 
Q 26.265625 48 22.1875 43.046875 
Q 18.109375 38.09375 18.109375 28.8125 
L 18.109375 0 
L 9.078125 0 
L 9.078125 54.6875 
L 18.109375 54.6875 
L 18.109375 46.1875 
Q 20.953125 51.171875 25.484375 53.578125 
Q 30.03125 56 36.53125 56 
Q 37.453125 56 38.578125 55.875 
Q 39.703125 55.765625 41.0625 55.515625 
z
" id="DejaVuSans-114"/>
       <path d="M 44.28125 53.078125 
L 44.28125 44.578125 
Q 40.484375 46.53125 36.375 47.5 
Q 32.28125 48.484375 27.875 48.484375 
Q 21.1875 48.484375 17.84375 46.4375 
Q 14.5 44.390625 14.5 40.28125 
Q 14.5 37.15625 16.890625 35.375 
Q 19.28125 33.59375 26.515625 31.984375 
L 29.59375 31.296875 
Q 39.15625 29.25 43.1875 25.515625 
Q 47.21875 21.78125 47.21875 15.09375 
Q 47.21875 7.46875 41.1875 3.015625 
Q 35.15625 -1.421875 24.609375 -1.421875 
Q 20.21875 -1.421875 15.453125 -0.5625 
Q 10.6875 0.296875 5.421875 2 
L 5.421875 11.28125 
Q 10.40625 8.6875 15.234375 7.390625 
Q 20.0625 6.109375 24.8125 6.109375 
Q 31.15625 6.109375 34.5625 8.28125 
Q 37.984375 10.453125 37.984375 14.40625 
Q 37.984375 18.0625 35.515625 20.015625 
Q 33.0625 21.96875 24.703125 23.78125 
L 21.578125 24.515625 
Q 13.234375 26.265625 9.515625 29.90625 
Q 5.8125 33.546875 5.8125 39.890625 
Q 5.8125 47.609375 11.28125 51.796875 
Q 16.75 56 26.8125 56 
Q 31.78125 56 36.171875 55.265625 
Q 40.578125 54.546875 44.28125 53.078125 
z
" id="DejaVuSans-115"/>
      </defs>
      <g transform="translate(243.711875 817.31175)scale(0.22 -0.22)">
       <use xlink:href="#DejaVuSans-32"/>
       <use x="31.787109" xlink:href="#DejaVuSans-67"/>
       <use x="101.611328" xlink:href="#DejaVuSans-111"/>
       <use x="162.792969" xlink:href="#DejaVuSans-110"/>
       <use x="226.171875" xlink:href="#DejaVuSans-118"/>
       <use x="285.351562" xlink:href="#DejaVuSans-101"/>
       <use x="346.875" xlink:href="#DejaVuSans-114"/>
       <use x="387.988281" xlink:href="#DejaVuSans-115"/>
       <use x="440.087891" xlink:href="#DejaVuSans-105"/>
       <use x="467.871094" xlink:href="#DejaVuSans-111"/>
       <use x="529.052734" xlink:href="#DejaVuSans-110"/>
      </g>
     </g>
    </g>
    <g id="xtick_3">
     <g id="line2d_3">
      <g>
       <use style="stroke:#000000;stroke-width:0.8;" x="442.8" xlink:href="#ma35042df7c" y="768.96"/>
      </g>
     </g>
     <g id="text_3">
      <!-- Duplex -->
      <defs>
       <path d="M 8.5 21.578125 
L 8.5 54.6875 
L 17.484375 54.6875 
L 17.484375 21.921875 
Q 17.484375 14.15625 20.5 10.265625 
Q 23.53125 6.390625 29.59375 6.390625 
Q 36.859375 6.390625 41.078125 11.03125 
Q 45.3125 15.671875 45.3125 23.6875 
L 45.3125 54.6875 
L 54.296875 54.6875 
L 54.296875 0 
L 45.3125 0 
L 45.3125 8.40625 
Q 42.046875 3.421875 37.71875 1 
Q 33.40625 -1.421875 27.6875 -1.421875 
Q 18.265625 -1.421875 13.375 4.4375 
Q 8.5 10.296875 8.5 21.578125 
z
M 31.109375 56 
z
" id="DejaVuSans-117"/>
       <path d="M 18.109375 8.203125 
L 18.109375 -20.796875 
L 9.078125 -20.796875 
L 9.078125 54.6875 
L 18.109375 54.6875 
L 18.109375 46.390625 
Q 20.953125 51.265625 25.265625 53.625 
Q 29.59375 56 35.59375 56 
Q 45.5625 56 51.78125 48.09375 
Q 58.015625 40.1875 58.015625 27.296875 
Q 58.015625 14.40625 51.78125 6.484375 
Q 45.5625 -1.421875 35.59375 -1.421875 
Q 29.59375 -1.421875 25.265625 0.953125 
Q 20.953125 3.328125 18.109375 8.203125 
z
M 48.6875 27.296875 
Q 48.6875 37.203125 44.609375 42.84375 
Q 40.53125 48.484375 33.40625 48.484375 
Q 26.265625 48.484375 22.1875 42.84375 
Q 18.109375 37.203125 18.109375 27.296875 
Q 18.109375 17.390625 22.1875 11.75 
Q 26.265625 6.109375 33.40625 6.109375 
Q 40.53125 6.109375 44.609375 11.75 
Q 48.6875 17.390625 48.6875 27.296875 
z
" id="DejaVuSans-112"/>
       <path d="M 54.890625 54.6875 
L 35.109375 28.078125 
L 55.90625 0 
L 45.3125 0 
L 29.390625 21.484375 
L 13.484375 0 
L 2.875 0 
L 24.125 28.609375 
L 4.6875 54.6875 
L 15.28125 54.6875 
L 29.78125 35.203125 
L 44.28125 54.6875 
z
" id="DejaVuSans-120"/>
      </defs>
      <g transform="translate(404.232969 792.676563)scale(0.22 -0.22)">
       <use xlink:href="#DejaVuSans-68"/>
       <use x="77.001953" xlink:href="#DejaVuSans-117"/>
       <use x="140.380859" xlink:href="#DejaVuSans-112"/>
       <use x="203.857422" xlink:href="#DejaVuSans-108"/>
       <use x="231.640625" xlink:href="#DejaVuSans-101"/>
       <use x="291.414062" xlink:href="#DejaVuSans-120"/>
      </g>
     </g>
    </g>
    <g id="xtick_4">
     <g id="line2d_4">
      <g>
       <use style="stroke:#000000;stroke-width:0.8;" x="576.72" xlink:href="#ma35042df7c" y="768.96"/>
      </g>
     </g>
     <g id="text_4">
      <!-- Townhouse -->
      <g transform="translate(516.001719 792.676563)scale(0.22 -0.22)">
       <use xlink:href="#DejaVuSans-84"/>
       <use x="44.083984" xlink:href="#DejaVuSans-111"/>
       <use x="105.265625" xlink:href="#DejaVuSans-119"/>
       <use x="187.052734" xlink:href="#DejaVuSans-110"/>
       <use x="250.431641" xlink:href="#DejaVuSans-104"/>
       <use x="313.810547" xlink:href="#DejaVuSans-111"/>
       <use x="374.992188" xlink:href="#DejaVuSans-117"/>
       <use x="438.371094" xlink:href="#DejaVuSans-115"/>
       <use x="490.470703" xlink:href="#DejaVuSans-101"/>
      </g>
      <!--  End Unit -->
      <defs>
       <path d="M 9.8125 72.90625 
L 55.90625 72.90625 
L 55.90625 64.59375 
L 19.671875 64.59375 
L 19.671875 43.015625 
L 54.390625 43.015625 
L 54.390625 34.71875 
L 19.671875 34.71875 
L 19.671875 8.296875 
L 56.78125 8.296875 
L 56.78125 0 
L 9.8125 0 
z
" id="DejaVuSans-69"/>
       <path d="M 8.6875 72.90625 
L 18.609375 72.90625 
L 18.609375 28.609375 
Q 18.609375 16.890625 22.84375 11.734375 
Q 27.09375 6.59375 36.625 6.59375 
Q 46.09375 6.59375 50.34375 11.734375 
Q 54.59375 16.890625 54.59375 28.609375 
L 54.59375 72.90625 
L 64.5 72.90625 
L 64.5 27.390625 
Q 64.5 13.140625 57.4375 5.859375 
Q 50.390625 -1.421875 36.625 -1.421875 
Q 22.796875 -1.421875 15.734375 5.859375 
Q 8.6875 13.140625 8.6875 27.390625 
z
" id="DejaVuSans-85"/>
      </defs>
      <g transform="translate(526.432813 817.31175)scale(0.22 -0.22)">
       <use xlink:href="#DejaVuSans-32"/>
       <use x="31.787109" xlink:href="#DejaVuSans-69"/>
       <use x="94.970703" xlink:href="#DejaVuSans-110"/>
       <use x="158.349609" xlink:href="#DejaVuSans-100"/>
       <use x="221.826172" xlink:href="#DejaVuSans-32"/>
       <use x="253.613281" xlink:href="#DejaVuSans-85"/>
       <use x="326.806641" xlink:href="#DejaVuSans-110"/>
       <use x="390.185547" xlink:href="#DejaVuSans-105"/>
       <use x="417.96875" xlink:href="#DejaVuSans-116"/>
      </g>
     </g>
    </g>
    <g id="xtick_5">
     <g id="line2d_5">
      <g>
       <use style="stroke:#000000;stroke-width:0.8;" x="710.64" xlink:href="#ma35042df7c" y="768.96"/>
      </g>
     </g>
     <g id="text_5">
      <!-- Townhouse -->
      <g transform="translate(649.921719 792.676563)scale(0.22 -0.22)">
       <use xlink:href="#DejaVuSans-84"/>
       <use x="44.083984" xlink:href="#DejaVuSans-111"/>
       <use x="105.265625" xlink:href="#DejaVuSans-119"/>
       <use x="187.052734" xlink:href="#DejaVuSans-110"/>
       <use x="250.431641" xlink:href="#DejaVuSans-104"/>
       <use x="313.810547" xlink:href="#DejaVuSans-111"/>
       <use x="374.992188" xlink:href="#DejaVuSans-117"/>
       <use x="438.371094" xlink:href="#DejaVuSans-115"/>
       <use x="490.470703" xlink:href="#DejaVuSans-101"/>
      </g>
      <!--  Inside Unit -->
      <defs>
       <path d="M 9.8125 72.90625 
L 19.671875 72.90625 
L 19.671875 0 
L 9.8125 0 
z
" id="DejaVuSans-73"/>
      </defs>
      <g transform="translate(648.50375 817.31175)scale(0.22 -0.22)">
       <use xlink:href="#DejaVuSans-32"/>
       <use x="31.787109" xlink:href="#DejaVuSans-73"/>
       <use x="61.279297" xlink:href="#DejaVuSans-110"/>
       <use x="124.658203" xlink:href="#DejaVuSans-115"/>
       <use x="176.757812" xlink:href="#DejaVuSans-105"/>
       <use x="204.541016" xlink:href="#DejaVuSans-100"/>
       <use x="268.017578" xlink:href="#DejaVuSans-101"/>
       <use x="329.541016" xlink:href="#DejaVuSans-32"/>
       <use x="361.328125" xlink:href="#DejaVuSans-85"/>
       <use x="434.521484" xlink:href="#DejaVuSans-110"/>
       <use x="497.900391" xlink:href="#DejaVuSans-105"/>
       <use x="525.683594" xlink:href="#DejaVuSans-116"/>
      </g>
     </g>
    </g>
    <g id="text_6">
     <!-- Building Type -->
     <defs>
      <path d="M 19.671875 34.8125 
L 19.671875 8.109375 
L 35.5 8.109375 
Q 43.453125 8.109375 47.28125 11.40625 
Q 51.125 14.703125 51.125 21.484375 
Q 51.125 28.328125 47.28125 31.5625 
Q 43.453125 34.8125 35.5 34.8125 
z
M 19.671875 64.796875 
L 19.671875 42.828125 
L 34.28125 42.828125 
Q 41.5 42.828125 45.03125 45.53125 
Q 48.578125 48.25 48.578125 53.8125 
Q 48.578125 59.328125 45.03125 62.0625 
Q 41.5 64.796875 34.28125 64.796875 
z
M 9.8125 72.90625 
L 35.015625 72.90625 
Q 46.296875 72.90625 52.390625 68.21875 
Q 58.5 63.53125 58.5 54.890625 
Q 58.5 48.1875 55.375 44.234375 
Q 52.25 40.28125 46.1875 39.3125 
Q 53.46875 37.75 57.5 32.78125 
Q 61.53125 27.828125 61.53125 20.40625 
Q 61.53125 10.640625 54.890625 5.3125 
Q 48.25 0 35.984375 0 
L 9.8125 0 
z
" id="DejaVuSans-66"/>
     </defs>
     <g transform="translate(362.746875 844.123312)scale(0.24 -0.24)">
      <use xlink:href="#DejaVuSans-66"/>
      <use x="68.603516" xlink:href="#DejaVuSans-117"/>
      <use x="131.982422" xlink:href="#DejaVuSans-105"/>
      <use x="159.765625" xlink:href="#DejaVuSans-108"/>
      <use x="187.548828" xlink:href="#DejaVuSans-100"/>
      <use x="251.025391" xlink:href="#DejaVuSans-105"/>
      <use x="278.808594" xlink:href="#DejaVuSans-110"/>
      <use x="342.1875" xlink:href="#DejaVuSans-103"/>
      <use x="405.664062" xlink:href="#DejaVuSans-32"/>
      <use x="437.451172" xlink:href="#DejaVuSans-84"/>
      <use x="482.910156" xlink:href="#DejaVuSans-121"/>
      <use x="542.089844" xlink:href="#DejaVuSans-112"/>
      <use x="605.566406" xlink:href="#DejaVuSans-101"/>
     </g>
    </g>
   </g>
   <g id="matplotlib.axis_2">
    <g id="ytick_1">
     <g id="line2d_6">
      <defs>
       <path d="M 0 0 
L -3.5 0 
" id="mba8aa56fed" style="stroke:#000000;stroke-width:0.8;"/>
      </defs>
      <g>
       <use style="stroke:#000000;stroke-width:0.8;" x="108" xlink:href="#mba8aa56fed" y="768.031929"/>
      </g>
     </g>
     <g id="text_7">
      <!-- 0 -->
      <defs>
       <path d="M 31.78125 66.40625 
Q 24.171875 66.40625 20.328125 58.90625 
Q 16.5 51.421875 16.5 36.375 
Q 16.5 21.390625 20.328125 13.890625 
Q 24.171875 6.390625 31.78125 6.390625 
Q 39.453125 6.390625 43.28125 13.890625 
Q 47.125 21.390625 47.125 36.375 
Q 47.125 51.421875 43.28125 58.90625 
Q 39.453125 66.40625 31.78125 66.40625 
z
M 31.78125 74.21875 
Q 44.046875 74.21875 50.515625 64.515625 
Q 56.984375 54.828125 56.984375 36.375 
Q 56.984375 17.96875 50.515625 8.265625 
Q 44.046875 -1.421875 31.78125 -1.421875 
Q 19.53125 -1.421875 13.0625 8.265625 
Q 6.59375 17.96875 6.59375 36.375 
Q 6.59375 54.828125 13.0625 64.515625 
Q 19.53125 74.21875 31.78125 74.21875 
z
" id="DejaVuSans-48"/>
      </defs>
      <g transform="translate(87.0025 776.39021)scale(0.22 -0.22)">
       <use xlink:href="#DejaVuSans-48"/>
      </g>
     </g>
    </g>
    <g id="ytick_2">
     <g id="line2d_7">
      <g>
       <use style="stroke:#000000;stroke-width:0.8;" x="108" xlink:href="#mba8aa56fed" y="684.043594"/>
      </g>
     </g>
     <g id="text_8">
      <!-- 1 -->
      <defs>
       <path d="M 12.40625 8.296875 
L 28.515625 8.296875 
L 28.515625 63.921875 
L 10.984375 60.40625 
L 10.984375 69.390625 
L 28.421875 72.90625 
L 38.28125 72.90625 
L 38.28125 8.296875 
L 54.390625 8.296875 
L 54.390625 0 
L 12.40625 0 
z
" id="DejaVuSans-49"/>
      </defs>
      <g transform="translate(87.0025 692.401875)scale(0.22 -0.22)">
       <use xlink:href="#DejaVuSans-49"/>
      </g>
     </g>
    </g>
    <g id="ytick_3">
     <g id="line2d_8">
      <g>
       <use style="stroke:#000000;stroke-width:0.8;" x="108" xlink:href="#mba8aa56fed" y="600.055259"/>
      </g>
     </g>
     <g id="text_9">
      <!-- 2 -->
      <defs>
       <path d="M 19.1875 8.296875 
L 53.609375 8.296875 
L 53.609375 0 
L 7.328125 0 
L 7.328125 8.296875 
Q 12.9375 14.109375 22.625 23.890625 
Q 32.328125 33.6875 34.8125 36.53125 
Q 39.546875 41.84375 41.421875 45.53125 
Q 43.3125 49.21875 43.3125 52.78125 
Q 43.3125 58.59375 39.234375 62.25 
Q 35.15625 65.921875 28.609375 65.921875 
Q 23.96875 65.921875 18.8125 64.3125 
Q 13.671875 62.703125 7.8125 59.421875 
L 7.8125 69.390625 
Q 13.765625 71.78125 18.9375 73 
Q 24.125 74.21875 28.421875 74.21875 
Q 39.75 74.21875 46.484375 68.546875 
Q 53.21875 62.890625 53.21875 53.421875 
Q 53.21875 48.921875 51.53125 44.890625 
Q 49.859375 40.875 45.40625 35.40625 
Q 44.1875 33.984375 37.640625 27.21875 
Q 31.109375 20.453125 19.1875 8.296875 
z
" id="DejaVuSans-50"/>
      </defs>
      <g transform="translate(87.0025 608.41354)scale(0.22 -0.22)">
       <use xlink:href="#DejaVuSans-50"/>
      </g>
     </g>
    </g>
    <g id="ytick_4">
     <g id="line2d_9">
      <g>
       <use style="stroke:#000000;stroke-width:0.8;" x="108" xlink:href="#mba8aa56fed" y="516.066924"/>
      </g>
     </g>
     <g id="text_10">
      <!-- 3 -->
      <defs>
       <path d="M 40.578125 39.3125 
Q 47.65625 37.796875 51.625 33 
Q 55.609375 28.21875 55.609375 21.1875 
Q 55.609375 10.40625 48.1875 4.484375 
Q 40.765625 -1.421875 27.09375 -1.421875 
Q 22.515625 -1.421875 17.65625 -0.515625 
Q 12.796875 0.390625 7.625 2.203125 
L 7.625 11.71875 
Q 11.71875 9.328125 16.59375 8.109375 
Q 21.484375 6.890625 26.8125 6.890625 
Q 36.078125 6.890625 40.9375 10.546875 
Q 45.796875 14.203125 45.796875 21.1875 
Q 45.796875 27.640625 41.28125 31.265625 
Q 36.765625 34.90625 28.71875 34.90625 
L 20.21875 34.90625 
L 20.21875 43.015625 
L 29.109375 43.015625 
Q 36.375 43.015625 40.234375 45.921875 
Q 44.09375 48.828125 44.09375 54.296875 
Q 44.09375 59.90625 40.109375 62.90625 
Q 36.140625 65.921875 28.71875 65.921875 
Q 24.65625 65.921875 20.015625 65.03125 
Q 15.375 64.15625 9.8125 62.3125 
L 9.8125 71.09375 
Q 15.4375 72.65625 20.34375 73.4375 
Q 25.25 74.21875 29.59375 74.21875 
Q 40.828125 74.21875 47.359375 69.109375 
Q 53.90625 64.015625 53.90625 55.328125 
Q 53.90625 49.265625 50.4375 45.09375 
Q 46.96875 40.921875 40.578125 39.3125 
z
" id="DejaVuSans-51"/>
      </defs>
      <g transform="translate(87.0025 524.425205)scale(0.22 -0.22)">
       <use xlink:href="#DejaVuSans-51"/>
      </g>
     </g>
    </g>
    <g id="ytick_5">
     <g id="line2d_10">
      <g>
       <use style="stroke:#000000;stroke-width:0.8;" x="108" xlink:href="#mba8aa56fed" y="432.078589"/>
      </g>
     </g>
     <g id="text_11">
      <!-- 4 -->
      <defs>
       <path d="M 37.796875 64.3125 
L 12.890625 25.390625 
L 37.796875 25.390625 
z
M 35.203125 72.90625 
L 47.609375 72.90625 
L 47.609375 25.390625 
L 58.015625 25.390625 
L 58.015625 17.1875 
L 47.609375 17.1875 
L 47.609375 0 
L 37.796875 0 
L 37.796875 17.1875 
L 4.890625 17.1875 
L 4.890625 26.703125 
z
" id="DejaVuSans-52"/>
      </defs>
      <g transform="translate(87.0025 440.43687)scale(0.22 -0.22)">
       <use xlink:href="#DejaVuSans-52"/>
      </g>
     </g>
    </g>
    <g id="ytick_6">
     <g id="line2d_11">
      <g>
       <use style="stroke:#000000;stroke-width:0.8;" x="108" xlink:href="#mba8aa56fed" y="348.090254"/>
      </g>
     </g>
     <g id="text_12">
      <!-- 5 -->
      <defs>
       <path d="M 10.796875 72.90625 
L 49.515625 72.90625 
L 49.515625 64.59375 
L 19.828125 64.59375 
L 19.828125 46.734375 
Q 21.96875 47.46875 24.109375 47.828125 
Q 26.265625 48.1875 28.421875 48.1875 
Q 40.625 48.1875 47.75 41.5 
Q 54.890625 34.8125 54.890625 23.390625 
Q 54.890625 11.625 47.5625 5.09375 
Q 40.234375 -1.421875 26.90625 -1.421875 
Q 22.3125 -1.421875 17.546875 -0.640625 
Q 12.796875 0.140625 7.71875 1.703125 
L 7.71875 11.625 
Q 12.109375 9.234375 16.796875 8.0625 
Q 21.484375 6.890625 26.703125 6.890625 
Q 35.15625 6.890625 40.078125 11.328125 
Q 45.015625 15.765625 45.015625 23.390625 
Q 45.015625 31 40.078125 35.4375 
Q 35.15625 39.890625 26.703125 39.890625 
Q 22.75 39.890625 18.8125 39.015625 
Q 14.890625 38.140625 10.796875 36.28125 
z
" id="DejaVuSans-53"/>
      </defs>
      <g transform="translate(87.0025 356.448535)scale(0.22 -0.22)">
       <use xlink:href="#DejaVuSans-53"/>
      </g>
     </g>
    </g>
    <g id="ytick_7">
     <g id="line2d_12">
      <g>
       <use style="stroke:#000000;stroke-width:0.8;" x="108" xlink:href="#mba8aa56fed" y="264.101919"/>
      </g>
     </g>
     <g id="text_13">
      <!-- 6 -->
      <defs>
       <path d="M 33.015625 40.375 
Q 26.375 40.375 22.484375 35.828125 
Q 18.609375 31.296875 18.609375 23.390625 
Q 18.609375 15.53125 22.484375 10.953125 
Q 26.375 6.390625 33.015625 6.390625 
Q 39.65625 6.390625 43.53125 10.953125 
Q 47.40625 15.53125 47.40625 23.390625 
Q 47.40625 31.296875 43.53125 35.828125 
Q 39.65625 40.375 33.015625 40.375 
z
M 52.59375 71.296875 
L 52.59375 62.3125 
Q 48.875 64.0625 45.09375 64.984375 
Q 41.3125 65.921875 37.59375 65.921875 
Q 27.828125 65.921875 22.671875 59.328125 
Q 17.53125 52.734375 16.796875 39.40625 
Q 19.671875 43.65625 24.015625 45.921875 
Q 28.375 48.1875 33.59375 48.1875 
Q 44.578125 48.1875 50.953125 41.515625 
Q 57.328125 34.859375 57.328125 23.390625 
Q 57.328125 12.15625 50.6875 5.359375 
Q 44.046875 -1.421875 33.015625 -1.421875 
Q 20.359375 -1.421875 13.671875 8.265625 
Q 6.984375 17.96875 6.984375 36.375 
Q 6.984375 53.65625 15.1875 63.9375 
Q 23.390625 74.21875 37.203125 74.21875 
Q 40.921875 74.21875 44.703125 73.484375 
Q 48.484375 72.75 52.59375 71.296875 
z
" id="DejaVuSans-54"/>
      </defs>
      <g transform="translate(87.0025 272.4602)scale(0.22 -0.22)">
       <use xlink:href="#DejaVuSans-54"/>
      </g>
     </g>
    </g>
    <g id="ytick_8">
     <g id="line2d_13">
      <g>
       <use style="stroke:#000000;stroke-width:0.8;" x="108" xlink:href="#mba8aa56fed" y="180.113584"/>
      </g>
     </g>
     <g id="text_14">
      <!-- 7 -->
      <defs>
       <path d="M 8.203125 72.90625 
L 55.078125 72.90625 
L 55.078125 68.703125 
L 28.609375 0 
L 18.3125 0 
L 43.21875 64.59375 
L 8.203125 64.59375 
z
" id="DejaVuSans-55"/>
      </defs>
      <g transform="translate(87.0025 188.471865)scale(0.22 -0.22)">
       <use xlink:href="#DejaVuSans-55"/>
      </g>
     </g>
    </g>
    <g id="text_15">
     <!-- Sale Price -->
     <defs>
      <path d="M 19.671875 64.796875 
L 19.671875 37.40625 
L 32.078125 37.40625 
Q 38.96875 37.40625 42.71875 40.96875 
Q 46.484375 44.53125 46.484375 51.125 
Q 46.484375 57.671875 42.71875 61.234375 
Q 38.96875 64.796875 32.078125 64.796875 
z
M 9.8125 72.90625 
L 32.078125 72.90625 
Q 44.34375 72.90625 50.609375 67.359375 
Q 56.890625 61.8125 56.890625 51.125 
Q 56.890625 40.328125 50.609375 34.8125 
Q 44.34375 29.296875 32.078125 29.296875 
L 19.671875 29.296875 
L 19.671875 0 
L 9.8125 0 
z
" id="DejaVuSans-80"/>
     </defs>
     <g transform="translate(51.1365 495.0975)rotate(-90)scale(0.24 -0.24)">
      <use xlink:href="#DejaVuSans-83"/>
      <use x="63.476562" xlink:href="#DejaVuSans-97"/>
      <use x="124.755859" xlink:href="#DejaVuSans-108"/>
      <use x="152.539062" xlink:href="#DejaVuSans-101"/>
      <use x="214.0625" xlink:href="#DejaVuSans-32"/>
      <use x="245.849609" xlink:href="#DejaVuSans-80"/>
      <use x="304.402344" xlink:href="#DejaVuSans-114"/>
      <use x="345.515625" xlink:href="#DejaVuSans-105"/>
      <use x="373.298828" xlink:href="#DejaVuSans-99"/>
      <use x="428.279297" xlink:href="#DejaVuSans-101"/>
     </g>
     <!-- in $100,000s -->
     <defs>
      <path d="M 33.796875 -14.703125 
L 28.90625 -14.703125 
L 28.859375 0 
Q 23.734375 0.09375 18.609375 1.1875 
Q 13.484375 2.296875 8.296875 4.5 
L 8.296875 13.28125 
Q 13.28125 10.15625 18.375 8.5625 
Q 23.484375 6.984375 28.90625 6.9375 
L 28.90625 29.203125 
Q 18.109375 30.953125 13.203125 35.15625 
Q 8.296875 39.359375 8.296875 46.6875 
Q 8.296875 54.640625 13.625 59.21875 
Q 18.953125 63.8125 28.90625 64.5 
L 28.90625 75.984375 
L 33.796875 75.984375 
L 33.796875 64.65625 
Q 38.328125 64.453125 42.578125 63.6875 
Q 46.828125 62.9375 50.875 61.625 
L 50.875 53.078125 
Q 46.828125 55.125 42.546875 56.25 
Q 38.28125 57.375 33.796875 57.5625 
L 33.796875 36.71875 
Q 44.875 35.015625 50.09375 30.609375 
Q 55.328125 26.21875 55.328125 18.609375 
Q 55.328125 10.359375 49.78125 5.59375 
Q 44.234375 0.828125 33.796875 0.09375 
z
M 28.90625 37.59375 
L 28.90625 57.625 
Q 23.25 56.984375 20.265625 54.390625 
Q 17.28125 51.8125 17.28125 47.515625 
Q 17.28125 43.3125 20.03125 40.96875 
Q 22.796875 38.625 28.90625 37.59375 
z
M 33.796875 28.21875 
L 33.796875 7.078125 
Q 39.984375 7.90625 43.140625 10.59375 
Q 46.296875 13.28125 46.296875 17.671875 
Q 46.296875 21.96875 43.28125 24.5 
Q 40.28125 27.046875 33.796875 28.21875 
z
" id="DejaVuSans-36"/>
      <path d="M 11.71875 12.40625 
L 22.015625 12.40625 
L 22.015625 4 
L 14.015625 -11.625 
L 7.71875 -11.625 
L 11.71875 4 
z
" id="DejaVuSans-44"/>
     </defs>
     <g transform="translate(78.01125 514.5825)rotate(-90)scale(0.24 -0.24)">
      <use xlink:href="#DejaVuSans-105"/>
      <use x="27.783203" xlink:href="#DejaVuSans-110"/>
      <use x="91.162109" xlink:href="#DejaVuSans-32"/>
      <use x="122.949219" xlink:href="#DejaVuSans-36"/>
      <use x="186.572266" xlink:href="#DejaVuSans-49"/>
      <use x="250.195312" xlink:href="#DejaVuSans-48"/>
      <use x="313.818359" xlink:href="#DejaVuSans-48"/>
      <use x="377.441406" xlink:href="#DejaVuSans-44"/>
      <use x="409.228516" xlink:href="#DejaVuSans-48"/>
      <use x="472.851562" xlink:href="#DejaVuSans-48"/>
      <use x="536.474609" xlink:href="#DejaVuSans-48"/>
      <use x="600.097656" xlink:href="#DejaVuSans-115"/>
     </g>
    </g>
   </g>
   <g id="line2d_14">
    <path clip-path="url(#pc4cae9c421)" d="M 121.392 627.015515 
L 228.528 627.015515 
" style="fill:none;stroke:#262626;stroke-linecap:square;stroke-opacity:0.45;stroke-width:1.5;"/>
   </g>
   <g id="line2d_15">
    <path clip-path="url(#pc4cae9c421)" d="M 255.312 660.946802 
L 362.448 660.946802 
" style="fill:none;stroke:#262626;stroke-linecap:square;stroke-opacity:0.45;stroke-width:1.5;"/>
   </g>
   <g id="line2d_16">
    <path clip-path="url(#pc4cae9c421)" d="M 389.232 653.824591 
L 496.368 653.824591 
" style="fill:none;stroke:#262626;stroke-linecap:square;stroke-opacity:0.45;stroke-width:1.5;"/>
   </g>
   <g id="line2d_17">
    <path clip-path="url(#pc4cae9c421)" d="M 523.152 623.404016 
L 630.288 623.404016 
" style="fill:none;stroke:#262626;stroke-linecap:square;stroke-opacity:0.45;stroke-width:1.5;"/>
   </g>
   <g id="line2d_18">
    <path clip-path="url(#pc4cae9c421)" d="M 657.072 652.547968 
L 764.208 652.547968 
" style="fill:none;stroke:#262626;stroke-linecap:square;stroke-opacity:0.45;stroke-width:1.5;"/>
   </g>
   <g id="patch_3">
    <path d="M 108 768.96 
L 108 103.68 
" style="fill:none;stroke:#000000;stroke-linecap:square;stroke-linejoin:miter;stroke-width:0.8;"/>
   </g>
   <g id="patch_4">
    <path d="M 777.6 768.96 
L 777.6 103.68 
" style="fill:none;stroke:#000000;stroke-linecap:square;stroke-linejoin:miter;stroke-width:0.8;"/>
   </g>
   <g id="patch_5">
    <path d="M 108 768.96 
L 777.6 768.96 
" style="fill:none;stroke:#000000;stroke-linecap:square;stroke-linejoin:miter;stroke-width:0.8;"/>
   </g>
   <g id="patch_6">
    <path d="M 108 103.68 
L 777.6 103.68 
" style="fill:none;stroke:#000000;stroke-linecap:square;stroke-linejoin:miter;stroke-width:0.8;"/>
   </g>
   <g id="text_16">
    <!-- Housing Sale Prices -->
    <defs>
     <path d="M 9.8125 72.90625 
L 19.671875 72.90625 
L 19.671875 43.015625 
L 55.515625 43.015625 
L 55.515625 72.90625 
L 65.375 72.90625 
L 65.375 0 
L 55.515625 0 
L 55.515625 34.71875 
L 19.671875 34.71875 
L 19.671875 0 
L 9.8125 0 
z
" id="DejaVuSans-72"/>
    </defs>
    <g transform="translate(334.979375 73.044812)scale(0.22 -0.22)">
     <use xlink:href="#DejaVuSans-72"/>
     <use x="75.195312" xlink:href="#DejaVuSans-111"/>
     <use x="136.376953" xlink:href="#DejaVuSans-117"/>
     <use x="199.755859" xlink:href="#DejaVuSans-115"/>
     <use x="251.855469" xlink:href="#DejaVuSans-105"/>
     <use x="279.638672" xlink:href="#DejaVuSans-110"/>
     <use x="343.017578" xlink:href="#DejaVuSans-103"/>
     <use x="406.494141" xlink:href="#DejaVuSans-32"/>
     <use x="438.28125" xlink:href="#DejaVuSans-83"/>
     <use x="501.757812" xlink:href="#DejaVuSans-97"/>
     <use x="563.037109" xlink:href="#DejaVuSans-108"/>
     <use x="590.820312" xlink:href="#DejaVuSans-101"/>
     <use x="652.34375" xlink:href="#DejaVuSans-32"/>
     <use x="684.130859" xlink:href="#DejaVuSans-80"/>
     <use x="742.683594" xlink:href="#DejaVuSans-114"/>
     <use x="783.796875" xlink:href="#DejaVuSans-105"/>
     <use x="811.580078" xlink:href="#DejaVuSans-99"/>
     <use x="866.560547" xlink:href="#DejaVuSans-101"/>
     <use x="928.083984" xlink:href="#DejaVuSans-115"/>
    </g>
    <!-- Sorted by Building Type -->
    <defs>
     <path d="M 48.6875 27.296875 
Q 48.6875 37.203125 44.609375 42.84375 
Q 40.53125 48.484375 33.40625 48.484375 
Q 26.265625 48.484375 22.1875 42.84375 
Q 18.109375 37.203125 18.109375 27.296875 
Q 18.109375 17.390625 22.1875 11.75 
Q 26.265625 6.109375 33.40625 6.109375 
Q 40.53125 6.109375 44.609375 11.75 
Q 48.6875 17.390625 48.6875 27.296875 
z
M 18.109375 46.390625 
Q 20.953125 51.265625 25.265625 53.625 
Q 29.59375 56 35.59375 56 
Q 45.5625 56 51.78125 48.09375 
Q 58.015625 40.1875 58.015625 27.296875 
Q 58.015625 14.40625 51.78125 6.484375 
Q 45.5625 -1.421875 35.59375 -1.421875 
Q 29.59375 -1.421875 25.265625 0.953125 
Q 20.953125 3.328125 18.109375 8.203125 
L 18.109375 0 
L 9.078125 0 
L 9.078125 75.984375 
L 18.109375 75.984375 
z
" id="DejaVuSans-98"/>
    </defs>
    <g transform="translate(312.632187 97.68)scale(0.22 -0.22)">
     <use xlink:href="#DejaVuSans-83"/>
     <use x="63.476562" xlink:href="#DejaVuSans-111"/>
     <use x="124.658203" xlink:href="#DejaVuSans-114"/>
     <use x="165.771484" xlink:href="#DejaVuSans-116"/>
     <use x="204.980469" xlink:href="#DejaVuSans-101"/>
     <use x="266.503906" xlink:href="#DejaVuSans-100"/>
     <use x="329.980469" xlink:href="#DejaVuSans-32"/>
     <use x="361.767578" xlink:href="#DejaVuSans-98"/>
     <use x="425.244141" xlink:href="#DejaVuSans-121"/>
     <use x="484.423828" xlink:href="#DejaVuSans-32"/>
     <use x="516.210938" xlink:href="#DejaVuSans-66"/>
     <use x="584.814453" xlink:href="#DejaVuSans-117"/>
     <use x="648.193359" xlink:href="#DejaVuSans-105"/>
     <use x="675.976562" xlink:href="#DejaVuSans-108"/>
     <use x="703.759766" xlink:href="#DejaVuSans-100"/>
     <use x="767.236328" xlink:href="#DejaVuSans-105"/>
     <use x="795.019531" xlink:href="#DejaVuSans-110"/>
     <use x="858.398438" xlink:href="#DejaVuSans-103"/>
     <use x="921.875" xlink:href="#DejaVuSans-32"/>
     <use x="953.662109" xlink:href="#DejaVuSans-84"/>
     <use x="999.121094" xlink:href="#DejaVuSans-121"/>
     <use x="1058.300781" xlink:href="#DejaVuSans-112"/>
     <use x="1121.777344" xlink:href="#DejaVuSans-101"/>
    </g>
   </g>
  </g>
 </g>
 <defs>
  <clipPath id="pc4cae9c421">
   <rect height="665.28" width="669.6" x="108" y="103.68"/>
  </clipPath>
 </defs>
</svg>
