<?xml version="1.0" encoding="utf-8" standalone="no"?>
<!DOCTYPE svg PUBLIC "-//W3C//DTD SVG 1.1//EN"
  "http://www.w3.org/Graphics/SVG/1.1/DTD/svg11.dtd">
<!-- Created with matplotlib (https://matplotlib.org/) -->
<svg height="750pt" version="1.1" viewBox="0 0 1080 750" width="1080pt" xmlns="http://www.w3.org/2000/svg" xmlns:xlink="http://www.w3.org/1999/xlink">
 <defs>
  <style type="text/css">
*{stroke-linecap:butt;stroke-linejoin:round;}
  </style>
 </defs>
 <g id="figure_1">
  <g id="patch_1">
   <path d="M 0 720 
L 1080 720 
L 1080 0 
L 0 0 
z
" style="fill:#ffffff;"/>
  </g>
  <g id="axes_1">
   <g id="patch_2">
    <path d="M 135 640.8 
L 972 640.8 
L 972 86.4 
L 135 86.4 
z
" style="fill:#ffffff;"/>
   </g>
   <g id="PathCollection_1">
    <defs>
     <path d="M -0 4.242641 
L 2.545584 0 
L 0 -4.242641 
L -2.545584 -0 
z
" id="m1fa54014be" style="stroke:#72b6a1;"/>
    </defs>
    <g clip-path="url(#p5eaa5b5c22)">
     <use style="fill:#72b6a1;stroke:#72b6a1;" x="176.85" xlink:href="#m1fa54014be" y="616.6143"/>
     <use style="fill:#72b6a1;stroke:#72b6a1;" x="176.85" xlink:href="#m1fa54014be" y="616.329477"/>
     <use style="fill:#72b6a1;stroke:#72b6a1;" x="176.85" xlink:href="#m1fa54014be" y="117.585"/>
     <use style="fill:#72b6a1;stroke:#72b6a1;" x="176.85" xlink:href="#m1fa54014be" y="124.515"/>
    </g>
   </g>
   <g id="PatchCollection_1">
    <path clip-path="url(#p5eaa5b5c22)" d="M 176.719219 615.905463 
L 176.980781 615.905463 
L 176.980781 144.168047 
L 176.719219 144.168047 
z
" style="fill:#ffffff;"/>
    <path clip-path="url(#p5eaa5b5c22)" d="M 176.588437 614.076729 
L 177.111562 614.076729 
L 177.111562 230.603555 
L 176.588437 230.603555 
z
" style="fill:#edf6f3;"/>
    <path clip-path="url(#p5eaa5b5c22)" d="M 176.326875 605.218781 
L 177.373125 605.218781 
L 177.373125 309.237398 
L 176.326875 309.237398 
z
" style="fill:#dcede7;"/>
    <path clip-path="url(#p5eaa5b5c22)" d="M 175.80375 600.449523 
L 177.89625 600.449523 
L 177.89625 360.990422 
L 175.80375 360.990422 
z
" style="fill:#cae4dc;"/>
    <path clip-path="url(#p5eaa5b5c22)" d="M 174.7575 590.286797 
L 178.9425 590.286797 
L 178.9425 381.466406 
L 174.7575 381.466406 
z
" style="fill:#b8dad0;"/>
    <path clip-path="url(#p5eaa5b5c22)" d="M 172.665 583.974 
L 181.035 583.974 
L 181.035 415.271812 
L 172.665 415.271812 
z
" style="fill:#a7d1c4;"/>
    <path clip-path="url(#p5eaa5b5c22)" d="M 168.48 577.3905 
L 185.22 577.3905 
L 185.22 440.69625 
L 168.48 440.69625 
z
" style="fill:#95c8b8;"/>
    <path clip-path="url(#p5eaa5b5c22)" d="M 160.11 564.8472 
L 193.59 564.8472 
L 193.59 467.55 
L 160.11 467.55 
z
" style="fill:#83bfac;"/>
    <path clip-path="url(#p5eaa5b5c22)" d="M 143.37 551.454975 
L 210.33 551.454975 
L 210.33 500.15565 
L 143.37 500.15565 
z
" style="fill:#72b6a1;"/>
   </g>
   <g id="PathCollection_2">
    <defs>
     <path d="M -0 4.242641 
L 2.545584 0 
L 0 -4.242641 
L -2.545584 -0 
z
" id="m1e833fdf84" style="stroke:#e99675;"/>
    </defs>
    <g clip-path="url(#p5eaa5b5c22)">
     <use style="fill:#e99675;stroke:#e99675;" x="260.55" xlink:href="#m1e833fdf84" y="546.552"/>
     <use style="fill:#e99675;stroke:#e99675;" x="260.55" xlink:href="#m1e833fdf84" y="412.8723"/>
    </g>
   </g>
   <g id="PatchCollection_2">
    <path clip-path="url(#p5eaa5b5c22)" d="M 260.419219 546.507334 
L 260.680781 546.507334 
L 260.680781 413.094412 
L 260.419219 413.094412 
z
" style="fill:#ffffff;"/>
    <path clip-path="url(#p5eaa5b5c22)" d="M 260.288437 546.462668 
L 260.811563 546.462668 
L 260.811563 413.316524 
L 260.288437 413.316524 
z
" style="fill:#fcf2ee;"/>
    <path clip-path="url(#p5eaa5b5c22)" d="M 260.026875 546.373336 
L 261.073125 546.373336 
L 261.073125 413.760748 
L 260.026875 413.760748 
z
" style="fill:#f9e5dc;"/>
    <path clip-path="url(#p5eaa5b5c22)" d="M 259.50375 546.194672 
L 261.59625 546.194672 
L 261.59625 414.649195 
L 259.50375 414.649195 
z
" style="fill:#f7d7cb;"/>
    <path clip-path="url(#p5eaa5b5c22)" d="M 258.4575 545.837344 
L 262.6425 545.837344 
L 262.6425 416.426091 
L 258.4575 416.426091 
z
" style="fill:#f4caba;"/>
    <path clip-path="url(#p5eaa5b5c22)" d="M 256.365 545.122687 
L 264.735 545.122687 
L 264.735 419.979881 
L 256.365 419.979881 
z
" style="fill:#f1bda8;"/>
    <path clip-path="url(#p5eaa5b5c22)" d="M 252.18 543.693375 
L 268.92 543.693375 
L 268.92 427.087462 
L 252.18 427.087462 
z
" style="fill:#eeb097;"/>
    <path clip-path="url(#p5eaa5b5c22)" d="M 243.81 540.83475 
L 277.29 540.83475 
L 277.29 441.302625 
L 243.81 441.302625 
z
" style="fill:#eca386;"/>
    <path clip-path="url(#p5eaa5b5c22)" d="M 227.07 535.1175 
L 294.03 535.1175 
L 294.03 469.73295 
L 227.07 469.73295 
z
" style="fill:#e99675;"/>
   </g>
   <g id="PathCollection_3">
    <defs>
     <path d="M -0 4.242641 
L 2.545584 0 
L 0 -4.242641 
L -2.545584 -0 
z
" id="m6ea1dcc92c" style="stroke:#db96c0;"/>
    </defs>
    <g clip-path="url(#p5eaa5b5c22)">
     <use style="fill:#db96c0;stroke:#db96c0;" x="427.95" xlink:href="#m6ea1dcc92c" y="562.491"/>
     <use style="fill:#db96c0;stroke:#db96c0;" x="427.95" xlink:href="#m6ea1dcc92c" y="216.921699"/>
    </g>
   </g>
   <g id="PatchCollection_3">
    <path clip-path="url(#p5eaa5b5c22)" d="M 427.688438 558.069064 
L 428.211563 558.069064 
L 428.211563 221.625983 
L 427.688438 221.625983 
z
" style="fill:#ffffff;"/>
    <path clip-path="url(#p5eaa5b5c22)" d="M 427.426875 553.647129 
L 428.473125 553.647129 
L 428.473125 226.330268 
L 427.426875 226.330268 
z
" style="fill:#faf0f6;"/>
    <path clip-path="url(#p5eaa5b5c22)" d="M 426.90375 544.803258 
L 428.99625 544.803258 
L 428.99625 235.738836 
L 426.90375 235.738836 
z
" style="fill:#f5e1ed;"/>
    <path clip-path="url(#p5eaa5b5c22)" d="M 425.8575 539.459578 
L 430.0425 539.459578 
L 430.0425 253.091968 
L 425.8575 253.091968 
z
" style="fill:#f0d2e4;"/>
    <path clip-path="url(#p5eaa5b5c22)" d="M 423.765 534.59775 
L 432.135 534.59775 
L 432.135 302.142616 
L 423.765 302.142616 
z
" style="fill:#eac3db;"/>
    <path clip-path="url(#p5eaa5b5c22)" d="M 419.58 530.526375 
L 436.32 530.526375 
L 436.32 336.355571 
L 419.58 336.355571 
z
" style="fill:#e5b4d2;"/>
    <path clip-path="url(#p5eaa5b5c22)" d="M 411.21 521.232812 
L 444.69 521.232812 
L 444.69 366.948576 
L 411.21 366.948576 
z
" style="fill:#e0a5c9;"/>
    <path clip-path="url(#p5eaa5b5c22)" d="M 394.47 506.323177 
L 461.43 506.323177 
L 461.43 403.849613 
L 394.47 403.849613 
z
" style="fill:#db96c0;"/>
   </g>
   <g id="PathCollection_4">
    <defs>
     <path d="M -0 4.242641 
L 2.545584 0 
L 0 -4.242641 
L -2.545584 -0 
z
" id="m5a07c19991" style="stroke:#a2c865;"/>
    </defs>
    <g clip-path="url(#p5eaa5b5c22)">
     <use style="fill:#a2c865;stroke:#a2c865;" x="511.65" xlink:href="#m5a07c19991" y="599.22"/>
     <use style="fill:#a2c865;stroke:#a2c865;" x="511.65" xlink:href="#m5a07c19991" y="441.909"/>
    </g>
   </g>
   <g id="PatchCollection_4">
    <path clip-path="url(#p5eaa5b5c22)" d="M 511.388438 598.74248 
L 511.911562 598.74248 
L 511.911562 443.61443 
L 511.388438 443.61443 
z
" style="fill:#ffffff;"/>
    <path clip-path="url(#p5eaa5b5c22)" d="M 511.126875 598.264959 
L 512.173125 598.264959 
L 512.173125 445.319859 
L 511.126875 445.319859 
z
" style="fill:#f2f7e9;"/>
    <path clip-path="url(#p5eaa5b5c22)" d="M 510.60375 597.309919 
L 512.69625 597.309919 
L 512.69625 448.730719 
L 510.60375 448.730719 
z
" style="fill:#e4efd3;"/>
    <path clip-path="url(#p5eaa5b5c22)" d="M 509.5575 595.399837 
L 513.7425 595.399837 
L 513.7425 455.552437 
L 509.5575 455.552437 
z
" style="fill:#d7e7bd;"/>
    <path clip-path="url(#p5eaa5b5c22)" d="M 507.465 590.236987 
L 515.835 590.236987 
L 515.835 465.427687 
L 507.465 465.427687 
z
" style="fill:#cae0a7;"/>
    <path clip-path="url(#p5eaa5b5c22)" d="M 503.28 582.2415 
L 520.02 582.2415 
L 520.02 483.298425 
L 503.28 483.298425 
z
" style="fill:#bdd891;"/>
    <path clip-path="url(#p5eaa5b5c22)" d="M 494.91 569.0745 
L 528.39 569.0745 
L 528.39 509.563125 
L 494.91 509.563125 
z
" style="fill:#afd07b;"/>
    <path clip-path="url(#p5eaa5b5c22)" d="M 478.17 563.184 
L 545.13 563.184 
L 545.13 529.5735 
L 478.17 529.5735 
z
" style="fill:#a2c865;"/>
   </g>
   <g id="PathCollection_5">
    <defs>
     <path d="M -0 4.242641 
L 2.545584 0 
L 0 -4.242641 
L -2.545584 -0 
z
" id="m0f93e8c6ad" style="stroke:#e5c849;"/>
    </defs>
    <g clip-path="url(#p5eaa5b5c22)">
     <use style="fill:#e5c849;stroke:#e5c849;" x="595.35" xlink:href="#m0f93e8c6ad" y="491.6664"/>
     <use style="fill:#e5c849;stroke:#e5c849;" x="595.35" xlink:href="#m0f93e8c6ad" y="416.268"/>
    </g>
   </g>
   <g id="PatchCollection_5">
    <path clip-path="url(#p5eaa5b5c22)" d="M 595.219219 491.592769 
L 595.480781 491.592769 
L 595.480781 416.341631 
L 595.219219 416.341631 
z
" style="fill:#ffffff;"/>
    <path clip-path="url(#p5eaa5b5c22)" d="M 595.088438 491.519137 
L 595.611562 491.519137 
L 595.611562 416.415262 
L 595.088438 416.415262 
z
" style="fill:#fcf8e8;"/>
    <path clip-path="url(#p5eaa5b5c22)" d="M 594.826875 491.371875 
L 595.873125 491.371875 
L 595.873125 416.562525 
L 594.826875 416.562525 
z
" style="fill:#f8f1d1;"/>
    <path clip-path="url(#p5eaa5b5c22)" d="M 594.30375 491.07735 
L 596.39625 491.07735 
L 596.39625 416.85705 
L 594.30375 416.85705 
z
" style="fill:#f5eaba;"/>
    <path clip-path="url(#p5eaa5b5c22)" d="M 593.2575 490.4883 
L 597.4425 490.4883 
L 597.4425 417.4461 
L 593.2575 417.4461 
z
" style="fill:#f2e3a4;"/>
    <path clip-path="url(#p5eaa5b5c22)" d="M 591.165 489.3102 
L 599.535 489.3102 
L 599.535 418.6242 
L 591.165 418.6242 
z
" style="fill:#efdc8d;"/>
    <path clip-path="url(#p5eaa5b5c22)" d="M 586.98 486.954 
L 603.72 486.954 
L 603.72 420.9804 
L 586.98 420.9804 
z
" style="fill:#ebd676;"/>
    <path clip-path="url(#p5eaa5b5c22)" d="M 578.61 482.2416 
L 612.09 482.2416 
L 612.09 425.6928 
L 578.61 425.6928 
z
" style="fill:#e8cf5f;"/>
    <path clip-path="url(#p5eaa5b5c22)" d="M 561.87 472.8168 
L 628.83 472.8168 
L 628.83 435.1176 
L 561.87 435.1176 
z
" style="fill:#e5c849;"/>
   </g>
   <g id="PathCollection_6">
    <defs>
     <path d="M -0 4.242641 
L 2.545584 0 
L 0 -4.242641 
L -2.545584 -0 
z
" id="mefba1076ab" style="stroke:#dbc29e;"/>
    </defs>
    <g clip-path="url(#p5eaa5b5c22)">
     <use style="fill:#dbc29e;stroke:#dbc29e;" x="679.05" xlink:href="#mefba1076ab" y="599.22"/>
     <use style="fill:#dbc29e;stroke:#dbc29e;" x="679.05" xlink:href="#mefba1076ab" y="493.884"/>
    </g>
   </g>
   <g id="PatchCollection_6">
    <path clip-path="url(#p5eaa5b5c22)" d="M 678.788437 599.030508 
L 679.311563 599.030508 
L 679.311563 493.908363 
L 678.788437 493.908363 
z
" style="fill:#ffffff;"/>
    <path clip-path="url(#p5eaa5b5c22)" d="M 678.526875 598.841016 
L 679.573125 598.841016 
L 679.573125 493.932727 
L 678.526875 493.932727 
z
" style="fill:#faf6f1;"/>
    <path clip-path="url(#p5eaa5b5c22)" d="M 678.00375 598.462031 
L 680.09625 598.462031 
L 680.09625 493.981453 
L 678.00375 493.981453 
z
" style="fill:#f5eee3;"/>
    <path clip-path="url(#p5eaa5b5c22)" d="M 676.9575 597.704062 
L 681.1425 597.704062 
L 681.1425 494.078906 
L 676.9575 494.078906 
z
" style="fill:#f0e5d6;"/>
    <path clip-path="url(#p5eaa5b5c22)" d="M 674.865 596.188125 
L 683.235 596.188125 
L 683.235 494.273812 
L 674.865 494.273812 
z
" style="fill:#eadcc7;"/>
    <path clip-path="url(#p5eaa5b5c22)" d="M 670.68 593.15625 
L 687.42 593.15625 
L 687.42 494.663625 
L 670.68 494.663625 
z
" style="fill:#e5d3ba;"/>
    <path clip-path="url(#p5eaa5b5c22)" d="M 662.31 587.0925 
L 695.79 587.0925 
L 695.79 495.44325 
L 662.31 495.44325 
z
" style="fill:#e0cbac;"/>
    <path clip-path="url(#p5eaa5b5c22)" d="M 645.57 574.965 
L 712.53 574.965 
L 712.53 497.0025 
L 645.57 497.0025 
z
" style="fill:#dbc29e;"/>
   </g>
   <g id="PathCollection_7">
    <defs>
     <path d="M -0 4.242641 
L 2.545584 0 
L 0 -4.242641 
L -2.545584 -0 
z
" id="m945fa54803" style="stroke:#b3b3b3;"/>
    </defs>
    <g clip-path="url(#p5eaa5b5c22)">
     <use style="fill:#b3b3b3;stroke:#b3b3b3;" x="762.75" xlink:href="#m945fa54803" y="564.57"/>
     <use style="fill:#b3b3b3;stroke:#b3b3b3;" x="762.75" xlink:href="#m945fa54803" y="327.59865"/>
    </g>
   </g>
   <g id="PatchCollection_7">
    <path clip-path="url(#p5eaa5b5c22)" d="M 762.488438 564.54293 
L 763.011563 564.54293 
L 763.011563 328.962723 
L 762.488438 328.962723 
z
" style="fill:#ffffff;"/>
    <path clip-path="url(#p5eaa5b5c22)" d="M 762.226875 564.515859 
L 763.273125 564.515859 
L 763.273125 330.326796 
L 762.226875 330.326796 
z
" style="fill:#f4f4f4;"/>
    <path clip-path="url(#p5eaa5b5c22)" d="M 761.70375 564.461719 
L 763.79625 564.461719 
L 763.79625 333.054942 
L 761.70375 333.054942 
z
" style="fill:#e9e9e9;"/>
    <path clip-path="url(#p5eaa5b5c22)" d="M 760.6575 564.353437 
L 764.8425 564.353437 
L 764.8425 338.511234 
L 760.6575 338.511234 
z
" style="fill:#dfdfdf;"/>
    <path clip-path="url(#p5eaa5b5c22)" d="M 758.565 564.136875 
L 766.935 564.136875 
L 766.935 349.423819 
L 758.565 349.423819 
z
" style="fill:#d3d3d3;"/>
    <path clip-path="url(#p5eaa5b5c22)" d="M 754.38 563.70375 
L 771.12 563.70375 
L 771.12 371.248987 
L 754.38 371.248987 
z
" style="fill:#c9c9c9;"/>
    <path clip-path="url(#p5eaa5b5c22)" d="M 746.01 562.8375 
L 779.49 562.8375 
L 779.49 414.899325 
L 746.01 414.899325 
z
" style="fill:#bebebe;"/>
    <path clip-path="url(#p5eaa5b5c22)" d="M 729.27 561.105 
L 796.23 561.105 
L 796.23 502.2 
L 729.27 502.2 
z
" style="fill:#b3b3b3;"/>
   </g>
   <g id="PathCollection_8">
    <defs>
     <path d="M -0 4.242641 
L 2.545584 0 
L 0 -4.242641 
L -2.545584 -0 
z
" id="m7b55e88d01" style="stroke:#1f4052;"/>
    </defs>
    <g clip-path="url(#p5eaa5b5c22)">
     <use style="fill:#1f4052;stroke:#1f4052;" x="846.45" xlink:href="#m7b55e88d01" y="585.4293"/>
     <use style="fill:#1f4052;stroke:#1f4052;" x="846.45" xlink:href="#m7b55e88d01" y="477.856296"/>
    </g>
   </g>
   <g id="PatchCollection_8">
    <path clip-path="url(#p5eaa5b5c22)" d="M 846.188438 585.417389 
L 846.711563 585.417389 
L 846.711563 478.252909 
L 846.188438 478.252909 
z
" style="fill:#ffffff;"/>
    <path clip-path="url(#p5eaa5b5c22)" d="M 845.926875 585.405478 
L 846.973125 585.405478 
L 846.973125 478.649521 
L 845.926875 478.649521 
z
" style="fill:#dfe4e7;"/>
    <path clip-path="url(#p5eaa5b5c22)" d="M 845.40375 585.381656 
L 847.49625 585.381656 
L 847.49625 479.442746 
L 845.40375 479.442746 
z
" style="fill:#bfc8cd;"/>
    <path clip-path="url(#p5eaa5b5c22)" d="M 844.3575 585.334012 
L 848.5425 585.334012 
L 848.5425 481.029196 
L 844.3575 481.029196 
z
" style="fill:#9fadb5;"/>
    <path clip-path="url(#p5eaa5b5c22)" d="M 842.265 585.238725 
L 850.635 585.238725 
L 850.635 484.202097 
L 842.265 484.202097 
z
" style="fill:#7f929c;"/>
    <path clip-path="url(#p5eaa5b5c22)" d="M 838.08 585.04815 
L 854.82 585.04815 
L 854.82 490.547898 
L 838.08 490.547898 
z
" style="fill:#5f7784;"/>
    <path clip-path="url(#p5eaa5b5c22)" d="M 829.71 584.667 
L 863.19 584.667 
L 863.19 503.2395 
L 829.71 503.2395 
z
" style="fill:#3f5b6a;"/>
    <path clip-path="url(#p5eaa5b5c22)" d="M 812.97 581.895 
L 879.93 581.895 
L 879.93 529.92 
L 812.97 529.92 
z
" style="fill:#1f4052;"/>
   </g>
   <g id="PathCollection_9">
    <defs>
     <path d="M -0 4.242641 
L 2.545584 0 
L 0 -4.242641 
L -2.545584 -0 
z
" id="m2647df2379" style="stroke:#756062;"/>
    </defs>
    <g clip-path="url(#p5eaa5b5c22)">
     <use style="fill:#756062;stroke:#756062;" x="930.15" xlink:href="#m2647df2379" y="576.0045"/>
     <use style="fill:#756062;stroke:#756062;" x="930.15" xlink:href="#m2647df2379" y="536.85"/>
    </g>
   </g>
   <g id="PatchCollection_9">
    <path clip-path="url(#p5eaa5b5c22)" d="M 929.888438 575.943456 
L 930.411562 575.943456 
L 930.411562 536.941904 
L 929.888438 536.941904 
z
" style="fill:#ffffff;"/>
    <path clip-path="url(#p5eaa5b5c22)" d="M 929.626875 575.882413 
L 930.673125 575.882413 
L 930.673125 537.033807 
L 929.626875 537.033807 
z
" style="fill:#ece9e9;"/>
    <path clip-path="url(#p5eaa5b5c22)" d="M 929.10375 575.760326 
L 931.19625 575.760326 
L 931.19625 537.217615 
L 929.10375 537.217615 
z
" style="fill:#d7d1d2;"/>
    <path clip-path="url(#p5eaa5b5c22)" d="M 928.0575 575.516152 
L 932.2425 575.516152 
L 932.2425 537.58523 
L 928.0575 537.58523 
z
" style="fill:#c4bbbc;"/>
    <path clip-path="url(#p5eaa5b5c22)" d="M 925.965 575.027803 
L 934.335 575.027803 
L 934.335 538.320459 
L 925.965 538.320459 
z
" style="fill:#b0a4a5;"/>
    <path clip-path="url(#p5eaa5b5c22)" d="M 921.78 574.051106 
L 938.52 574.051106 
L 938.52 539.790919 
L 921.78 539.790919 
z
" style="fill:#9d8e8f;"/>
    <path clip-path="url(#p5eaa5b5c22)" d="M 913.41 572.097712 
L 946.89 572.097712 
L 946.89 542.731837 
L 913.41 542.731837 
z
" style="fill:#887678;"/>
    <path clip-path="url(#p5eaa5b5c22)" d="M 896.67 568.190925 
L 963.63 568.190925 
L 963.63 548.613675 
L 896.67 548.613675 
z
" style="fill:#756062;"/>
   </g>
   <g id="matplotlib.axis_1">
    <g id="xtick_1">
     <g id="line2d_1">
      <defs>
       <path d="M 0 0 
L 0 3.5 
" id="m673f34ac78" style="stroke:#000000;stroke-width:0.8;"/>
      </defs>
      <g>
       <use style="stroke:#000000;stroke-width:0.8;" x="176.85" xlink:href="#m673f34ac78" y="640.8"/>
      </g>
     </g>
     <g id="text_1">
      <!-- WD -->
      <defs>
       <path d="M 3.328125 72.90625 
L 13.28125 72.90625 
L 28.609375 11.28125 
L 43.890625 72.90625 
L 54.984375 72.90625 
L 70.3125 11.28125 
L 85.59375 72.90625 
L 95.609375 72.90625 
L 77.296875 0 
L 64.890625 0 
L 49.515625 63.28125 
L 33.984375 0 
L 21.578125 0 
z
" id="DejaVuSans-87"/>
       <path d="M 19.671875 64.796875 
L 19.671875 8.109375 
L 31.59375 8.109375 
Q 46.6875 8.109375 53.6875 14.9375 
Q 60.6875 21.78125 60.6875 36.53125 
Q 60.6875 51.171875 53.6875 57.984375 
Q 46.6875 64.796875 31.59375 64.796875 
z
M 9.8125 72.90625 
L 30.078125 72.90625 
Q 51.265625 72.90625 61.171875 64.09375 
Q 71.09375 55.28125 71.09375 36.53125 
Q 71.09375 17.671875 61.125 8.828125 
Q 51.171875 0 30.078125 0 
L 9.8125 0 
z
" id="DejaVuSans-68"/>
      </defs>
      <g transform="translate(169.169495 679.856465)rotate(-45)scale(0.18 -0.18)">
       <use xlink:href="#DejaVuSans-87"/>
       <use x="98.876953" xlink:href="#DejaVuSans-68"/>
      </g>
     </g>
    </g>
    <g id="xtick_2">
     <g id="line2d_2">
      <g>
       <use style="stroke:#000000;stroke-width:0.8;" x="260.55" xlink:href="#m673f34ac78" y="640.8"/>
      </g>
     </g>
     <g id="text_2">
      <!-- CWD -->
      <defs>
       <path d="M 64.40625 67.28125 
L 64.40625 56.890625 
Q 59.421875 61.53125 53.78125 63.8125 
Q 48.140625 66.109375 41.796875 66.109375 
Q 29.296875 66.109375 22.65625 58.46875 
Q 16.015625 50.828125 16.015625 36.375 
Q 16.015625 21.96875 22.65625 14.328125 
Q 29.296875 6.6875 41.796875 6.6875 
Q 48.140625 6.6875 53.78125 8.984375 
Q 59.421875 11.28125 64.40625 15.921875 
L 64.40625 5.609375 
Q 59.234375 2.09375 53.4375 0.328125 
Q 47.65625 -1.421875 41.21875 -1.421875 
Q 24.65625 -1.421875 15.125 8.703125 
Q 5.609375 18.84375 5.609375 36.375 
Q 5.609375 53.953125 15.125 64.078125 
Q 24.65625 74.21875 41.21875 74.21875 
Q 47.75 74.21875 53.53125 72.484375 
Q 59.328125 70.75 64.40625 67.28125 
z
" id="DejaVuSans-67"/>
      </defs>
      <g transform="translate(248.42566 688.744134)rotate(-45)scale(0.18 -0.18)">
       <use xlink:href="#DejaVuSans-67"/>
       <use x="69.824219" xlink:href="#DejaVuSans-87"/>
       <use x="168.701172" xlink:href="#DejaVuSans-68"/>
      </g>
     </g>
    </g>
    <g id="xtick_3">
     <g id="line2d_3">
      <g>
       <use style="stroke:#000000;stroke-width:0.8;" x="344.25" xlink:href="#m673f34ac78" y="640.8"/>
      </g>
     </g>
     <g id="text_3">
      <!-- VWD -->
      <defs>
       <path d="M 28.609375 0 
L 0.78125 72.90625 
L 11.078125 72.90625 
L 34.1875 11.53125 
L 57.328125 72.90625 
L 67.578125 72.90625 
L 39.796875 0 
z
" id="DejaVuSans-86"/>
      </defs>
      <g transform="translate(332.216147 688.563159)rotate(-45)scale(0.18 -0.18)">
       <use xlink:href="#DejaVuSans-86"/>
       <use x="68.408203" xlink:href="#DejaVuSans-87"/>
       <use x="167.285156" xlink:href="#DejaVuSans-68"/>
      </g>
     </g>
    </g>
    <g id="xtick_4">
     <g id="line2d_4">
      <g>
       <use style="stroke:#000000;stroke-width:0.8;" x="427.95" xlink:href="#m673f34ac78" y="640.8"/>
      </g>
     </g>
     <g id="text_4">
      <!-- New -->
      <defs>
       <path d="M 9.8125 72.90625 
L 23.09375 72.90625 
L 55.421875 11.921875 
L 55.421875 72.90625 
L 64.984375 72.90625 
L 64.984375 0 
L 51.703125 0 
L 19.390625 60.984375 
L 19.390625 0 
L 9.8125 0 
z
" id="DejaVuSans-78"/>
       <path d="M 56.203125 29.59375 
L 56.203125 25.203125 
L 14.890625 25.203125 
Q 15.484375 15.921875 20.484375 11.0625 
Q 25.484375 6.203125 34.421875 6.203125 
Q 39.59375 6.203125 44.453125 7.46875 
Q 49.3125 8.734375 54.109375 11.28125 
L 54.109375 2.78125 
Q 49.265625 0.734375 44.1875 -0.34375 
Q 39.109375 -1.421875 33.890625 -1.421875 
Q 20.796875 -1.421875 13.15625 6.1875 
Q 5.515625 13.8125 5.515625 26.8125 
Q 5.515625 40.234375 12.765625 48.109375 
Q 20.015625 56 32.328125 56 
Q 43.359375 56 49.78125 48.890625 
Q 56.203125 41.796875 56.203125 29.59375 
z
M 47.21875 32.234375 
Q 47.125 39.59375 43.09375 43.984375 
Q 39.0625 48.390625 32.421875 48.390625 
Q 24.90625 48.390625 20.390625 44.140625 
Q 15.875 39.890625 15.1875 32.171875 
z
" id="DejaVuSans-101"/>
       <path d="M 4.203125 54.6875 
L 13.1875 54.6875 
L 24.421875 12.015625 
L 35.59375 54.6875 
L 46.1875 54.6875 
L 57.421875 12.015625 
L 68.609375 54.6875 
L 77.59375 54.6875 
L 63.28125 0 
L 52.6875 0 
L 40.921875 44.828125 
L 29.109375 0 
L 18.5 0 
z
" id="DejaVuSans-119"/>
      </defs>
      <g transform="translate(417.580721 685.234012)rotate(-45)scale(0.18 -0.18)">
       <use xlink:href="#DejaVuSans-78"/>
       <use x="74.804688" xlink:href="#DejaVuSans-101"/>
       <use x="136.328125" xlink:href="#DejaVuSans-119"/>
      </g>
     </g>
    </g>
    <g id="xtick_5">
     <g id="line2d_5">
      <g>
       <use style="stroke:#000000;stroke-width:0.8;" x="511.65" xlink:href="#m673f34ac78" y="640.8"/>
      </g>
     </g>
     <g id="text_5">
      <!-- COD -->
      <defs>
       <path d="M 39.40625 66.21875 
Q 28.65625 66.21875 22.328125 58.203125 
Q 16.015625 50.203125 16.015625 36.375 
Q 16.015625 22.609375 22.328125 14.59375 
Q 28.65625 6.59375 39.40625 6.59375 
Q 50.140625 6.59375 56.421875 14.59375 
Q 62.703125 22.609375 62.703125 36.375 
Q 62.703125 50.203125 56.421875 58.203125 
Q 50.140625 66.21875 39.40625 66.21875 
z
M 39.40625 74.21875 
Q 54.734375 74.21875 63.90625 63.9375 
Q 73.09375 53.65625 73.09375 36.375 
Q 73.09375 19.140625 63.90625 8.859375 
Q 54.734375 -1.421875 39.40625 -1.421875 
Q 24.03125 -1.421875 14.8125 8.828125 
Q 5.609375 19.09375 5.609375 36.375 
Q 5.609375 53.65625 14.8125 63.9375 
Q 24.03125 74.21875 39.40625 74.21875 
z
" id="DejaVuSans-79"/>
      </defs>
      <g transform="translate(500.808396 686.178662)rotate(-45)scale(0.18 -0.18)">
       <use xlink:href="#DejaVuSans-67"/>
       <use x="69.824219" xlink:href="#DejaVuSans-79"/>
       <use x="148.535156" xlink:href="#DejaVuSans-68"/>
      </g>
     </g>
    </g>
    <g id="xtick_6">
     <g id="line2d_6">
      <g>
       <use style="stroke:#000000;stroke-width:0.8;" x="595.35" xlink:href="#m673f34ac78" y="640.8"/>
      </g>
     </g>
     <g id="text_6">
      <!-- Con -->
      <defs>
       <path d="M 30.609375 48.390625 
Q 23.390625 48.390625 19.1875 42.75 
Q 14.984375 37.109375 14.984375 27.296875 
Q 14.984375 17.484375 19.15625 11.84375 
Q 23.34375 6.203125 30.609375 6.203125 
Q 37.796875 6.203125 41.984375 11.859375 
Q 46.1875 17.53125 46.1875 27.296875 
Q 46.1875 37.015625 41.984375 42.703125 
Q 37.796875 48.390625 30.609375 48.390625 
z
M 30.609375 56 
Q 42.328125 56 49.015625 48.375 
Q 55.71875 40.765625 55.71875 27.296875 
Q 55.71875 13.875 49.015625 6.21875 
Q 42.328125 -1.421875 30.609375 -1.421875 
Q 18.84375 -1.421875 12.171875 6.21875 
Q 5.515625 13.875 5.515625 27.296875 
Q 5.515625 40.765625 12.171875 48.375 
Q 18.84375 56 30.609375 56 
z
" id="DejaVuSans-111"/>
       <path d="M 54.890625 33.015625 
L 54.890625 0 
L 45.90625 0 
L 45.90625 32.71875 
Q 45.90625 40.484375 42.875 44.328125 
Q 39.84375 48.1875 33.796875 48.1875 
Q 26.515625 48.1875 22.3125 43.546875 
Q 18.109375 38.921875 18.109375 30.90625 
L 18.109375 0 
L 9.078125 0 
L 9.078125 54.6875 
L 18.109375 54.6875 
L 18.109375 46.1875 
Q 21.34375 51.125 25.703125 53.5625 
Q 30.078125 56 35.796875 56 
Q 45.21875 56 50.046875 50.171875 
Q 54.890625 44.34375 54.890625 33.015625 
z
" id="DejaVuSans-110"/>
      </defs>
      <g transform="translate(586.491167 682.213119)rotate(-45)scale(0.18 -0.18)">
       <use xlink:href="#DejaVuSans-67"/>
       <use x="69.824219" xlink:href="#DejaVuSans-111"/>
       <use x="131.005859" xlink:href="#DejaVuSans-110"/>
      </g>
     </g>
    </g>
    <g id="xtick_7">
     <g id="line2d_7">
      <g>
       <use style="stroke:#000000;stroke-width:0.8;" x="679.05" xlink:href="#m673f34ac78" y="640.8"/>
      </g>
     </g>
     <g id="text_7">
      <!-- ConLw -->
      <defs>
       <path d="M 9.8125 72.90625 
L 19.671875 72.90625 
L 19.671875 8.296875 
L 55.171875 8.296875 
L 55.171875 0 
L 9.8125 0 
z
" id="DejaVuSans-76"/>
      </defs>
      <g transform="translate(661.440721 699.714012)rotate(-45)scale(0.18 -0.18)">
       <use xlink:href="#DejaVuSans-67"/>
       <use x="69.824219" xlink:href="#DejaVuSans-111"/>
       <use x="131.005859" xlink:href="#DejaVuSans-110"/>
       <use x="194.384766" xlink:href="#DejaVuSans-76"/>
       <use x="250.097656" xlink:href="#DejaVuSans-119"/>
      </g>
     </g>
    </g>
    <g id="xtick_8">
     <g id="line2d_8">
      <g>
       <use style="stroke:#000000;stroke-width:0.8;" x="762.75" xlink:href="#m673f34ac78" y="640.8"/>
      </g>
     </g>
     <g id="text_8">
      <!-- ConLI -->
      <defs>
       <path d="M 9.8125 72.90625 
L 19.671875 72.90625 
L 19.671875 0 
L 9.8125 0 
z
" id="DejaVuSans-73"/>
      </defs>
      <g transform="translate(748.467879 693.059695)rotate(-45)scale(0.18 -0.18)">
       <use xlink:href="#DejaVuSans-67"/>
       <use x="69.824219" xlink:href="#DejaVuSans-111"/>
       <use x="131.005859" xlink:href="#DejaVuSans-110"/>
       <use x="194.384766" xlink:href="#DejaVuSans-76"/>
       <use x="250.097656" xlink:href="#DejaVuSans-73"/>
      </g>
     </g>
    </g>
    <g id="xtick_9">
     <g id="line2d_9">
      <g>
       <use style="stroke:#000000;stroke-width:0.8;" x="846.45" xlink:href="#m673f34ac78" y="640.8"/>
      </g>
     </g>
     <g id="text_9">
      <!-- ConLD -->
      <g transform="translate(829.144998 699.105458)rotate(-45)scale(0.18 -0.18)">
       <use xlink:href="#DejaVuSans-67"/>
       <use x="69.824219" xlink:href="#DejaVuSans-111"/>
       <use x="131.005859" xlink:href="#DejaVuSans-110"/>
       <use x="194.384766" xlink:href="#DejaVuSans-76"/>
       <use x="250.097656" xlink:href="#DejaVuSans-68"/>
      </g>
     </g>
    </g>
    <g id="xtick_10">
     <g id="line2d_10">
      <g>
       <use style="stroke:#000000;stroke-width:0.8;" x="930.15" xlink:href="#m673f34ac78" y="640.8"/>
      </g>
     </g>
     <g id="text_10">
      <!-- Oth -->
      <defs>
       <path d="M 18.3125 70.21875 
L 18.3125 54.6875 
L 36.8125 54.6875 
L 36.8125 47.703125 
L 18.3125 47.703125 
L 18.3125 18.015625 
Q 18.3125 11.328125 20.140625 9.421875 
Q 21.96875 7.515625 27.59375 7.515625 
L 36.8125 7.515625 
L 36.8125 0 
L 27.59375 0 
Q 17.1875 0 13.234375 3.875 
Q 9.28125 7.765625 9.28125 18.015625 
L 9.28125 47.703125 
L 2.6875 47.703125 
L 2.6875 54.6875 
L 9.28125 54.6875 
L 9.28125 70.21875 
z
" id="DejaVuSans-116"/>
       <path d="M 54.890625 33.015625 
L 54.890625 0 
L 45.90625 0 
L 45.90625 32.71875 
Q 45.90625 40.484375 42.875 44.328125 
Q 39.84375 48.1875 33.796875 48.1875 
Q 26.515625 48.1875 22.3125 43.546875 
Q 18.109375 38.921875 18.109375 30.90625 
L 18.109375 0 
L 9.078125 0 
L 9.078125 75.984375 
L 18.109375 75.984375 
L 18.109375 46.1875 
Q 21.34375 51.125 25.703125 53.5625 
Q 30.078125 56 35.796875 56 
Q 45.21875 56 50.046875 50.171875 
Q 54.890625 44.34375 54.890625 33.015625 
z
" id="DejaVuSans-104"/>
      </defs>
      <g transform="translate(922.124449 680.546557)rotate(-45)scale(0.18 -0.18)">
       <use xlink:href="#DejaVuSans-79"/>
       <use x="78.710938" xlink:href="#DejaVuSans-116"/>
       <use x="117.919922" xlink:href="#DejaVuSans-104"/>
      </g>
     </g>
    </g>
    <g id="text_11">
     <!-- Sale Type -->
     <defs>
      <path d="M 53.515625 70.515625 
L 53.515625 60.890625 
Q 47.90625 63.578125 42.921875 64.890625 
Q 37.9375 66.21875 33.296875 66.21875 
Q 25.25 66.21875 20.875 63.09375 
Q 16.5 59.96875 16.5 54.203125 
Q 16.5 49.359375 19.40625 46.890625 
Q 22.3125 44.4375 30.421875 42.921875 
L 36.375 41.703125 
Q 47.40625 39.59375 52.65625 34.296875 
Q 57.90625 29 57.90625 20.125 
Q 57.90625 9.515625 50.796875 4.046875 
Q 43.703125 -1.421875 29.984375 -1.421875 
Q 24.8125 -1.421875 18.96875 -0.25 
Q 13.140625 0.921875 6.890625 3.21875 
L 6.890625 13.375 
Q 12.890625 10.015625 18.65625 8.296875 
Q 24.421875 6.59375 29.984375 6.59375 
Q 38.421875 6.59375 43.015625 9.90625 
Q 47.609375 13.234375 47.609375 19.390625 
Q 47.609375 24.75 44.3125 27.78125 
Q 41.015625 30.8125 33.5 32.328125 
L 27.484375 33.5 
Q 16.453125 35.6875 11.515625 40.375 
Q 6.59375 45.0625 6.59375 53.421875 
Q 6.59375 63.09375 13.40625 68.65625 
Q 20.21875 74.21875 32.171875 74.21875 
Q 37.3125 74.21875 42.625 73.28125 
Q 47.953125 72.359375 53.515625 70.515625 
z
" id="DejaVuSans-83"/>
      <path d="M 34.28125 27.484375 
Q 23.390625 27.484375 19.1875 25 
Q 14.984375 22.515625 14.984375 16.5 
Q 14.984375 11.71875 18.140625 8.90625 
Q 21.296875 6.109375 26.703125 6.109375 
Q 34.1875 6.109375 38.703125 11.40625 
Q 43.21875 16.703125 43.21875 25.484375 
L 43.21875 27.484375 
z
M 52.203125 31.203125 
L 52.203125 0 
L 43.21875 0 
L 43.21875 8.296875 
Q 40.140625 3.328125 35.546875 0.953125 
Q 30.953125 -1.421875 24.3125 -1.421875 
Q 15.921875 -1.421875 10.953125 3.296875 
Q 6 8.015625 6 15.921875 
Q 6 25.140625 12.171875 29.828125 
Q 18.359375 34.515625 30.609375 34.515625 
L 43.21875 34.515625 
L 43.21875 35.40625 
Q 43.21875 41.609375 39.140625 45 
Q 35.0625 48.390625 27.6875 48.390625 
Q 23 48.390625 18.546875 47.265625 
Q 14.109375 46.140625 10.015625 43.890625 
L 10.015625 52.203125 
Q 14.9375 54.109375 19.578125 55.046875 
Q 24.21875 56 28.609375 56 
Q 40.484375 56 46.34375 49.84375 
Q 52.203125 43.703125 52.203125 31.203125 
z
" id="DejaVuSans-97"/>
      <path d="M 9.421875 75.984375 
L 18.40625 75.984375 
L 18.40625 0 
L 9.421875 0 
z
" id="DejaVuSans-108"/>
      <path id="DejaVuSans-32"/>
      <path d="M -0.296875 72.90625 
L 61.375 72.90625 
L 61.375 64.59375 
L 35.5 64.59375 
L 35.5 0 
L 25.59375 0 
L 25.59375 64.59375 
L -0.296875 64.59375 
z
" id="DejaVuSans-84"/>
      <path d="M 32.171875 -5.078125 
Q 28.375 -14.84375 24.75 -17.8125 
Q 21.140625 -20.796875 15.09375 -20.796875 
L 7.90625 -20.796875 
L 7.90625 -13.28125 
L 13.1875 -13.28125 
Q 16.890625 -13.28125 18.9375 -11.515625 
Q 21 -9.765625 23.484375 -3.21875 
L 25.09375 0.875 
L 2.984375 54.6875 
L 12.5 54.6875 
L 29.59375 11.921875 
L 46.6875 54.6875 
L 56.203125 54.6875 
z
" id="DejaVuSans-121"/>
      <path d="M 18.109375 8.203125 
L 18.109375 -20.796875 
L 9.078125 -20.796875 
L 9.078125 54.6875 
L 18.109375 54.6875 
L 18.109375 46.390625 
Q 20.953125 51.265625 25.265625 53.625 
Q 29.59375 56 35.59375 56 
Q 45.5625 56 51.78125 48.09375 
Q 58.015625 40.1875 58.015625 27.296875 
Q 58.015625 14.40625 51.78125 6.484375 
Q 45.5625 -1.421875 35.59375 -1.421875 
Q 29.59375 -1.421875 25.265625 0.953125 
Q 20.953125 3.328125 18.109375 8.203125 
z
M 48.6875 27.296875 
Q 48.6875 37.203125 44.609375 42.84375 
Q 40.53125 48.484375 33.40625 48.484375 
Q 26.265625 48.484375 22.1875 42.84375 
Q 18.109375 37.203125 18.109375 27.296875 
Q 18.109375 17.390625 22.1875 11.75 
Q 26.265625 6.109375 33.40625 6.109375 
Q 40.53125 6.109375 44.609375 11.75 
Q 48.6875 17.390625 48.6875 27.296875 
z
" id="DejaVuSans-112"/>
     </defs>
     <g transform="translate(505.948438 721.557897)scale(0.2 -0.2)">
      <use xlink:href="#DejaVuSans-83"/>
      <use x="63.476562" xlink:href="#DejaVuSans-97"/>
      <use x="124.755859" xlink:href="#DejaVuSans-108"/>
      <use x="152.539062" xlink:href="#DejaVuSans-101"/>
      <use x="214.0625" xlink:href="#DejaVuSans-32"/>
      <use x="245.849609" xlink:href="#DejaVuSans-84"/>
      <use x="291.308594" xlink:href="#DejaVuSans-121"/>
      <use x="350.488281" xlink:href="#DejaVuSans-112"/>
      <use x="413.964844" xlink:href="#DejaVuSans-101"/>
     </g>
    </g>
   </g>
   <g id="matplotlib.axis_2">
    <g id="ytick_1">
     <g id="line2d_11">
      <defs>
       <path d="M 0 0 
L -3.5 0 
" id="meec952b5c3" style="stroke:#000000;stroke-width:0.8;"/>
      </defs>
      <g>
       <use style="stroke:#000000;stroke-width:0.8;" x="135" xlink:href="#meec952b5c3" y="640.8"/>
      </g>
     </g>
     <g id="text_12">
      <!-- 0 -->
      <defs>
       <path d="M 31.78125 66.40625 
Q 24.171875 66.40625 20.328125 58.90625 
Q 16.5 51.421875 16.5 36.375 
Q 16.5 21.390625 20.328125 13.890625 
Q 24.171875 6.390625 31.78125 6.390625 
Q 39.453125 6.390625 43.28125 13.890625 
Q 47.125 21.390625 47.125 36.375 
Q 47.125 51.421875 43.28125 58.90625 
Q 39.453125 66.40625 31.78125 66.40625 
z
M 31.78125 74.21875 
Q 44.046875 74.21875 50.515625 64.515625 
Q 56.984375 54.828125 56.984375 36.375 
Q 56.984375 17.96875 50.515625 8.265625 
Q 44.046875 -1.421875 31.78125 -1.421875 
Q 19.53125 -1.421875 13.0625 8.265625 
Q 6.59375 17.96875 6.59375 36.375 
Q 6.59375 54.828125 13.0625 64.515625 
Q 19.53125 74.21875 31.78125 74.21875 
z
" id="DejaVuSans-48"/>
      </defs>
      <g transform="translate(116.5475 647.638594)scale(0.18 -0.18)">
       <use xlink:href="#DejaVuSans-48"/>
      </g>
     </g>
    </g>
    <g id="ytick_2">
     <g id="line2d_12">
      <g>
       <use style="stroke:#000000;stroke-width:0.8;" x="135" xlink:href="#meec952b5c3" y="571.5"/>
      </g>
     </g>
     <g id="text_13">
      <!-- 1 -->
      <defs>
       <path d="M 12.40625 8.296875 
L 28.515625 8.296875 
L 28.515625 63.921875 
L 10.984375 60.40625 
L 10.984375 69.390625 
L 28.421875 72.90625 
L 38.28125 72.90625 
L 38.28125 8.296875 
L 54.390625 8.296875 
L 54.390625 0 
L 12.40625 0 
z
" id="DejaVuSans-49"/>
      </defs>
      <g transform="translate(116.5475 578.338594)scale(0.18 -0.18)">
       <use xlink:href="#DejaVuSans-49"/>
      </g>
     </g>
    </g>
    <g id="ytick_3">
     <g id="line2d_13">
      <g>
       <use style="stroke:#000000;stroke-width:0.8;" x="135" xlink:href="#meec952b5c3" y="502.2"/>
      </g>
     </g>
     <g id="text_14">
      <!-- 2 -->
      <defs>
       <path d="M 19.1875 8.296875 
L 53.609375 8.296875 
L 53.609375 0 
L 7.328125 0 
L 7.328125 8.296875 
Q 12.9375 14.109375 22.625 23.890625 
Q 32.328125 33.6875 34.8125 36.53125 
Q 39.546875 41.84375 41.421875 45.53125 
Q 43.3125 49.21875 43.3125 52.78125 
Q 43.3125 58.59375 39.234375 62.25 
Q 35.15625 65.921875 28.609375 65.921875 
Q 23.96875 65.921875 18.8125 64.3125 
Q 13.671875 62.703125 7.8125 59.421875 
L 7.8125 69.390625 
Q 13.765625 71.78125 18.9375 73 
Q 24.125 74.21875 28.421875 74.21875 
Q 39.75 74.21875 46.484375 68.546875 
Q 53.21875 62.890625 53.21875 53.421875 
Q 53.21875 48.921875 51.53125 44.890625 
Q 49.859375 40.875 45.40625 35.40625 
Q 44.1875 33.984375 37.640625 27.21875 
Q 31.109375 20.453125 19.1875 8.296875 
z
" id="DejaVuSans-50"/>
      </defs>
      <g transform="translate(116.5475 509.038594)scale(0.18 -0.18)">
       <use xlink:href="#DejaVuSans-50"/>
      </g>
     </g>
    </g>
    <g id="ytick_4">
     <g id="line2d_14">
      <g>
       <use style="stroke:#000000;stroke-width:0.8;" x="135" xlink:href="#meec952b5c3" y="432.9"/>
      </g>
     </g>
     <g id="text_15">
      <!-- 3 -->
      <defs>
       <path d="M 40.578125 39.3125 
Q 47.65625 37.796875 51.625 33 
Q 55.609375 28.21875 55.609375 21.1875 
Q 55.609375 10.40625 48.1875 4.484375 
Q 40.765625 -1.421875 27.09375 -1.421875 
Q 22.515625 -1.421875 17.65625 -0.515625 
Q 12.796875 0.390625 7.625 2.203125 
L 7.625 11.71875 
Q 11.71875 9.328125 16.59375 8.109375 
Q 21.484375 6.890625 26.8125 6.890625 
Q 36.078125 6.890625 40.9375 10.546875 
Q 45.796875 14.203125 45.796875 21.1875 
Q 45.796875 27.640625 41.28125 31.265625 
Q 36.765625 34.90625 28.71875 34.90625 
L 20.21875 34.90625 
L 20.21875 43.015625 
L 29.109375 43.015625 
Q 36.375 43.015625 40.234375 45.921875 
Q 44.09375 48.828125 44.09375 54.296875 
Q 44.09375 59.90625 40.109375 62.90625 
Q 36.140625 65.921875 28.71875 65.921875 
Q 24.65625 65.921875 20.015625 65.03125 
Q 15.375 64.15625 9.8125 62.3125 
L 9.8125 71.09375 
Q 15.4375 72.65625 20.34375 73.4375 
Q 25.25 74.21875 29.59375 74.21875 
Q 40.828125 74.21875 47.359375 69.109375 
Q 53.90625 64.015625 53.90625 55.328125 
Q 53.90625 49.265625 50.4375 45.09375 
Q 46.96875 40.921875 40.578125 39.3125 
z
" id="DejaVuSans-51"/>
      </defs>
      <g transform="translate(116.5475 439.738594)scale(0.18 -0.18)">
       <use xlink:href="#DejaVuSans-51"/>
      </g>
     </g>
    </g>
    <g id="ytick_5">
     <g id="line2d_15">
      <g>
       <use style="stroke:#000000;stroke-width:0.8;" x="135" xlink:href="#meec952b5c3" y="363.6"/>
      </g>
     </g>
     <g id="text_16">
      <!-- 4 -->
      <defs>
       <path d="M 37.796875 64.3125 
L 12.890625 25.390625 
L 37.796875 25.390625 
z
M 35.203125 72.90625 
L 47.609375 72.90625 
L 47.609375 25.390625 
L 58.015625 25.390625 
L 58.015625 17.1875 
L 47.609375 17.1875 
L 47.609375 0 
L 37.796875 0 
L 37.796875 17.1875 
L 4.890625 17.1875 
L 4.890625 26.703125 
z
" id="DejaVuSans-52"/>
      </defs>
      <g transform="translate(116.5475 370.438594)scale(0.18 -0.18)">
       <use xlink:href="#DejaVuSans-52"/>
      </g>
     </g>
    </g>
    <g id="ytick_6">
     <g id="line2d_16">
      <g>
       <use style="stroke:#000000;stroke-width:0.8;" x="135" xlink:href="#meec952b5c3" y="294.3"/>
      </g>
     </g>
     <g id="text_17">
      <!-- 5 -->
      <defs>
       <path d="M 10.796875 72.90625 
L 49.515625 72.90625 
L 49.515625 64.59375 
L 19.828125 64.59375 
L 19.828125 46.734375 
Q 21.96875 47.46875 24.109375 47.828125 
Q 26.265625 48.1875 28.421875 48.1875 
Q 40.625 48.1875 47.75 41.5 
Q 54.890625 34.8125 54.890625 23.390625 
Q 54.890625 11.625 47.5625 5.09375 
Q 40.234375 -1.421875 26.90625 -1.421875 
Q 22.3125 -1.421875 17.546875 -0.640625 
Q 12.796875 0.140625 7.71875 1.703125 
L 7.71875 11.625 
Q 12.109375 9.234375 16.796875 8.0625 
Q 21.484375 6.890625 26.703125 6.890625 
Q 35.15625 6.890625 40.078125 11.328125 
Q 45.015625 15.765625 45.015625 23.390625 
Q 45.015625 31 40.078125 35.4375 
Q 35.15625 39.890625 26.703125 39.890625 
Q 22.75 39.890625 18.8125 39.015625 
Q 14.890625 38.140625 10.796875 36.28125 
z
" id="DejaVuSans-53"/>
      </defs>
      <g transform="translate(116.5475 301.138594)scale(0.18 -0.18)">
       <use xlink:href="#DejaVuSans-53"/>
      </g>
     </g>
    </g>
    <g id="ytick_7">
     <g id="line2d_17">
      <g>
       <use style="stroke:#000000;stroke-width:0.8;" x="135" xlink:href="#meec952b5c3" y="225"/>
      </g>
     </g>
     <g id="text_18">
      <!-- 6 -->
      <defs>
       <path d="M 33.015625 40.375 
Q 26.375 40.375 22.484375 35.828125 
Q 18.609375 31.296875 18.609375 23.390625 
Q 18.609375 15.53125 22.484375 10.953125 
Q 26.375 6.390625 33.015625 6.390625 
Q 39.65625 6.390625 43.53125 10.953125 
Q 47.40625 15.53125 47.40625 23.390625 
Q 47.40625 31.296875 43.53125 35.828125 
Q 39.65625 40.375 33.015625 40.375 
z
M 52.59375 71.296875 
L 52.59375 62.3125 
Q 48.875 64.0625 45.09375 64.984375 
Q 41.3125 65.921875 37.59375 65.921875 
Q 27.828125 65.921875 22.671875 59.328125 
Q 17.53125 52.734375 16.796875 39.40625 
Q 19.671875 43.65625 24.015625 45.921875 
Q 28.375 48.1875 33.59375 48.1875 
Q 44.578125 48.1875 50.953125 41.515625 
Q 57.328125 34.859375 57.328125 23.390625 
Q 57.328125 12.15625 50.6875 5.359375 
Q 44.046875 -1.421875 33.015625 -1.421875 
Q 20.359375 -1.421875 13.671875 8.265625 
Q 6.984375 17.96875 6.984375 36.375 
Q 6.984375 53.65625 15.1875 63.9375 
Q 23.390625 74.21875 37.203125 74.21875 
Q 40.921875 74.21875 44.703125 73.484375 
Q 48.484375 72.75 52.59375 71.296875 
z
" id="DejaVuSans-54"/>
      </defs>
      <g transform="translate(116.5475 231.838594)scale(0.18 -0.18)">
       <use xlink:href="#DejaVuSans-54"/>
      </g>
     </g>
    </g>
    <g id="ytick_8">
     <g id="line2d_18">
      <g>
       <use style="stroke:#000000;stroke-width:0.8;" x="135" xlink:href="#meec952b5c3" y="155.7"/>
      </g>
     </g>
     <g id="text_19">
      <!-- 7 -->
      <defs>
       <path d="M 8.203125 72.90625 
L 55.078125 72.90625 
L 55.078125 68.703125 
L 28.609375 0 
L 18.3125 0 
L 43.21875 64.59375 
L 8.203125 64.59375 
z
" id="DejaVuSans-55"/>
      </defs>
      <g transform="translate(116.5475 162.538594)scale(0.18 -0.18)">
       <use xlink:href="#DejaVuSans-55"/>
      </g>
     </g>
    </g>
    <g id="text_20">
     <!-- Sale Price in $100,000s -->
     <defs>
      <path d="M 19.671875 64.796875 
L 19.671875 37.40625 
L 32.078125 37.40625 
Q 38.96875 37.40625 42.71875 40.96875 
Q 46.484375 44.53125 46.484375 51.125 
Q 46.484375 57.671875 42.71875 61.234375 
Q 38.96875 64.796875 32.078125 64.796875 
z
M 9.8125 72.90625 
L 32.078125 72.90625 
Q 44.34375 72.90625 50.609375 67.359375 
Q 56.890625 61.8125 56.890625 51.125 
Q 56.890625 40.328125 50.609375 34.8125 
Q 44.34375 29.296875 32.078125 29.296875 
L 19.671875 29.296875 
L 19.671875 0 
L 9.8125 0 
z
" id="DejaVuSans-80"/>
      <path d="M 41.109375 46.296875 
Q 39.59375 47.171875 37.8125 47.578125 
Q 36.03125 48 33.890625 48 
Q 26.265625 48 22.1875 43.046875 
Q 18.109375 38.09375 18.109375 28.8125 
L 18.109375 0 
L 9.078125 0 
L 9.078125 54.6875 
L 18.109375 54.6875 
L 18.109375 46.1875 
Q 20.953125 51.171875 25.484375 53.578125 
Q 30.03125 56 36.53125 56 
Q 37.453125 56 38.578125 55.875 
Q 39.703125 55.765625 41.0625 55.515625 
z
" id="DejaVuSans-114"/>
      <path d="M 9.421875 54.6875 
L 18.40625 54.6875 
L 18.40625 0 
L 9.421875 0 
z
M 9.421875 75.984375 
L 18.40625 75.984375 
L 18.40625 64.59375 
L 9.421875 64.59375 
z
" id="DejaVuSans-105"/>
      <path d="M 48.78125 52.59375 
L 48.78125 44.1875 
Q 44.96875 46.296875 41.140625 47.34375 
Q 37.3125 48.390625 33.40625 48.390625 
Q 24.65625 48.390625 19.8125 42.84375 
Q 14.984375 37.3125 14.984375 27.296875 
Q 14.984375 17.28125 19.8125 11.734375 
Q 24.65625 6.203125 33.40625 6.203125 
Q 37.3125 6.203125 41.140625 7.25 
Q 44.96875 8.296875 48.78125 10.40625 
L 48.78125 2.09375 
Q 45.015625 0.34375 40.984375 -0.53125 
Q 36.96875 -1.421875 32.421875 -1.421875 
Q 20.0625 -1.421875 12.78125 6.34375 
Q 5.515625 14.109375 5.515625 27.296875 
Q 5.515625 40.671875 12.859375 48.328125 
Q 20.21875 56 33.015625 56 
Q 37.15625 56 41.109375 55.140625 
Q 45.0625 54.296875 48.78125 52.59375 
z
" id="DejaVuSans-99"/>
      <path d="M 33.796875 -14.703125 
L 28.90625 -14.703125 
L 28.859375 0 
Q 23.734375 0.09375 18.609375 1.1875 
Q 13.484375 2.296875 8.296875 4.5 
L 8.296875 13.28125 
Q 13.28125 10.15625 18.375 8.5625 
Q 23.484375 6.984375 28.90625 6.9375 
L 28.90625 29.203125 
Q 18.109375 30.953125 13.203125 35.15625 
Q 8.296875 39.359375 8.296875 46.6875 
Q 8.296875 54.640625 13.625 59.21875 
Q 18.953125 63.8125 28.90625 64.5 
L 28.90625 75.984375 
L 33.796875 75.984375 
L 33.796875 64.65625 
Q 38.328125 64.453125 42.578125 63.6875 
Q 46.828125 62.9375 50.875 61.625 
L 50.875 53.078125 
Q 46.828125 55.125 42.546875 56.25 
Q 38.28125 57.375 33.796875 57.5625 
L 33.796875 36.71875 
Q 44.875 35.015625 50.09375 30.609375 
Q 55.328125 26.21875 55.328125 18.609375 
Q 55.328125 10.359375 49.78125 5.59375 
Q 44.234375 0.828125 33.796875 0.09375 
z
M 28.90625 37.59375 
L 28.90625 57.625 
Q 23.25 56.984375 20.265625 54.390625 
Q 17.28125 51.8125 17.28125 47.515625 
Q 17.28125 43.3125 20.03125 40.96875 
Q 22.796875 38.625 28.90625 37.59375 
z
M 33.796875 28.21875 
L 33.796875 7.078125 
Q 39.984375 7.90625 43.140625 10.59375 
Q 46.296875 13.28125 46.296875 17.671875 
Q 46.296875 21.96875 43.28125 24.5 
Q 40.28125 27.046875 33.796875 28.21875 
z
" id="DejaVuSans-36"/>
      <path d="M 11.71875 12.40625 
L 22.015625 12.40625 
L 22.015625 4 
L 14.015625 -11.625 
L 7.71875 -11.625 
L 11.71875 4 
z
" id="DejaVuSans-44"/>
      <path d="M 44.28125 53.078125 
L 44.28125 44.578125 
Q 40.484375 46.53125 36.375 47.5 
Q 32.28125 48.484375 27.875 48.484375 
Q 21.1875 48.484375 17.84375 46.4375 
Q 14.5 44.390625 14.5 40.28125 
Q 14.5 37.15625 16.890625 35.375 
Q 19.28125 33.59375 26.515625 31.984375 
L 29.59375 31.296875 
Q 39.15625 29.25 43.1875 25.515625 
Q 47.21875 21.78125 47.21875 15.09375 
Q 47.21875 7.46875 41.1875 3.015625 
Q 35.15625 -1.421875 24.609375 -1.421875 
Q 20.21875 -1.421875 15.453125 -0.5625 
Q 10.6875 0.296875 5.421875 2 
L 5.421875 11.28125 
Q 10.40625 8.6875 15.234375 7.390625 
Q 20.0625 6.109375 24.8125 6.109375 
Q 31.15625 6.109375 34.5625 8.28125 
Q 37.984375 10.453125 37.984375 14.40625 
Q 37.984375 18.0625 35.515625 20.015625 
Q 33.0625 21.96875 24.703125 23.78125 
L 21.578125 24.515625 
Q 13.234375 26.265625 9.515625 29.90625 
Q 5.8125 33.546875 5.8125 39.890625 
Q 5.8125 47.609375 11.28125 51.796875 
Q 16.75 56 26.8125 56 
Q 31.78125 56 36.171875 55.265625 
Q 40.578125 54.546875 44.28125 53.078125 
z
" id="DejaVuSans-115"/>
     </defs>
     <g transform="translate(108.388125 480.978125)rotate(-90)scale(0.2 -0.2)">
      <use xlink:href="#DejaVuSans-83"/>
      <use x="63.476562" xlink:href="#DejaVuSans-97"/>
      <use x="124.755859" xlink:href="#DejaVuSans-108"/>
      <use x="152.539062" xlink:href="#DejaVuSans-101"/>
      <use x="214.0625" xlink:href="#DejaVuSans-32"/>
      <use x="245.849609" xlink:href="#DejaVuSans-80"/>
      <use x="304.402344" xlink:href="#DejaVuSans-114"/>
      <use x="345.515625" xlink:href="#DejaVuSans-105"/>
      <use x="373.298828" xlink:href="#DejaVuSans-99"/>
      <use x="428.279297" xlink:href="#DejaVuSans-101"/>
      <use x="489.802734" xlink:href="#DejaVuSans-32"/>
      <use x="521.589844" xlink:href="#DejaVuSans-105"/>
      <use x="549.373047" xlink:href="#DejaVuSans-110"/>
      <use x="612.751953" xlink:href="#DejaVuSans-32"/>
      <use x="644.539062" xlink:href="#DejaVuSans-36"/>
      <use x="708.162109" xlink:href="#DejaVuSans-49"/>
      <use x="771.785156" xlink:href="#DejaVuSans-48"/>
      <use x="835.408203" xlink:href="#DejaVuSans-48"/>
      <use x="899.03125" xlink:href="#DejaVuSans-44"/>
      <use x="930.818359" xlink:href="#DejaVuSans-48"/>
      <use x="994.441406" xlink:href="#DejaVuSans-48"/>
      <use x="1058.064453" xlink:href="#DejaVuSans-48"/>
      <use x="1121.6875" xlink:href="#DejaVuSans-115"/>
     </g>
    </g>
   </g>
   <g id="line2d_19">
    <path clip-path="url(#p5eaa5b5c22)" d="M 143.37 531.306 
L 210.33 531.306 
" style="fill:none;stroke:#262626;stroke-linecap:square;stroke-opacity:0.45;stroke-width:1.5;"/>
   </g>
   <g id="line2d_20">
    <path clip-path="url(#p5eaa5b5c22)" d="M 227.07 509.99625 
L 294.03 509.99625 
" style="fill:none;stroke:#262626;stroke-linecap:square;stroke-opacity:0.45;stroke-width:1.5;"/>
   </g>
   <g id="line2d_21">
    <path clip-path="url(#p5eaa5b5c22)" d="M 394.47 469.315071 
L 461.43 469.315071 
" style="fill:none;stroke:#262626;stroke-linecap:square;stroke-opacity:0.45;stroke-width:1.5;"/>
   </g>
   <g id="line2d_22">
    <path clip-path="url(#p5eaa5b5c22)" d="M 478.17 544.473 
L 545.13 544.473 
" style="fill:none;stroke:#262626;stroke-linecap:square;stroke-opacity:0.45;stroke-width:1.5;"/>
   </g>
   <g id="line2d_23">
    <path clip-path="url(#p5eaa5b5c22)" d="M 561.87 453.9672 
L 628.83 453.9672 
" style="fill:none;stroke:#262626;stroke-linecap:square;stroke-opacity:0.45;stroke-width:1.5;"/>
   </g>
   <g id="line2d_24">
    <path clip-path="url(#p5eaa5b5c22)" d="M 645.57 541.008 
L 712.53 541.008 
" style="fill:none;stroke:#262626;stroke-linecap:square;stroke-opacity:0.45;stroke-width:1.5;"/>
   </g>
   <g id="line2d_25">
    <path clip-path="url(#p5eaa5b5c22)" d="M 729.27 554.175 
L 796.23 554.175 
" style="fill:none;stroke:#262626;stroke-linecap:square;stroke-opacity:0.45;stroke-width:1.5;"/>
   </g>
   <g id="line2d_26">
    <path clip-path="url(#p5eaa5b5c22)" d="M 812.97 543.78 
L 879.93 543.78 
" style="fill:none;stroke:#262626;stroke-linecap:square;stroke-opacity:0.45;stroke-width:1.5;"/>
   </g>
   <g id="line2d_27">
    <path clip-path="url(#p5eaa5b5c22)" d="M 896.67 560.37735 
L 963.63 560.37735 
" style="fill:none;stroke:#262626;stroke-linecap:square;stroke-opacity:0.45;stroke-width:1.5;"/>
   </g>
   <g id="patch_3">
    <path d="M 135 640.8 
L 135 86.4 
" style="fill:none;stroke:#000000;stroke-linecap:square;stroke-linejoin:miter;stroke-width:0.8;"/>
   </g>
   <g id="patch_4">
    <path d="M 972 640.8 
L 972 86.4 
" style="fill:none;stroke:#000000;stroke-linecap:square;stroke-linejoin:miter;stroke-width:0.8;"/>
   </g>
   <g id="patch_5">
    <path d="M 135 640.8 
L 972 640.8 
" style="fill:none;stroke:#000000;stroke-linecap:square;stroke-linejoin:miter;stroke-width:0.8;"/>
   </g>
   <g id="patch_6">
    <path d="M 135 86.4 
L 972 86.4 
" style="fill:none;stroke:#000000;stroke-linecap:square;stroke-linejoin:miter;stroke-width:0.8;"/>
   </g>
   <g id="text_21">
    <!-- Sale Prices by Sale Type -->
    <defs>
     <path d="M 48.6875 27.296875 
Q 48.6875 37.203125 44.609375 42.84375 
Q 40.53125 48.484375 33.40625 48.484375 
Q 26.265625 48.484375 22.1875 42.84375 
Q 18.109375 37.203125 18.109375 27.296875 
Q 18.109375 17.390625 22.1875 11.75 
Q 26.265625 6.109375 33.40625 6.109375 
Q 40.53125 6.109375 44.609375 11.75 
Q 48.6875 17.390625 48.6875 27.296875 
z
M 18.109375 46.390625 
Q 20.953125 51.265625 25.265625 53.625 
Q 29.59375 56 35.59375 56 
Q 45.5625 56 51.78125 48.09375 
Q 58.015625 40.1875 58.015625 27.296875 
Q 58.015625 14.40625 51.78125 6.484375 
Q 45.5625 -1.421875 35.59375 -1.421875 
Q 29.59375 -1.421875 25.265625 0.953125 
Q 20.953125 3.328125 18.109375 8.203125 
L 18.109375 0 
L 9.078125 0 
L 9.078125 75.984375 
L 18.109375 75.984375 
z
" id="DejaVuSans-98"/>
    </defs>
    <g transform="translate(445.170938 80.4)scale(0.18 -0.18)">
     <use xlink:href="#DejaVuSans-83"/>
     <use x="63.476562" xlink:href="#DejaVuSans-97"/>
     <use x="124.755859" xlink:href="#DejaVuSans-108"/>
     <use x="152.539062" xlink:href="#DejaVuSans-101"/>
     <use x="214.0625" xlink:href="#DejaVuSans-32"/>
     <use x="245.849609" xlink:href="#DejaVuSans-80"/>
     <use x="304.402344" xlink:href="#DejaVuSans-114"/>
     <use x="345.515625" xlink:href="#DejaVuSans-105"/>
     <use x="373.298828" xlink:href="#DejaVuSans-99"/>
     <use x="428.279297" xlink:href="#DejaVuSans-101"/>
     <use x="489.802734" xlink:href="#DejaVuSans-115"/>
     <use x="541.902344" xlink:href="#DejaVuSans-32"/>
     <use x="573.689453" xlink:href="#DejaVuSans-98"/>
     <use x="637.166016" xlink:href="#DejaVuSans-121"/>
     <use x="696.345703" xlink:href="#DejaVuSans-32"/>
     <use x="728.132812" xlink:href="#DejaVuSans-83"/>
     <use x="791.609375" xlink:href="#DejaVuSans-97"/>
     <use x="852.888672" xlink:href="#DejaVuSans-108"/>
     <use x="880.671875" xlink:href="#DejaVuSans-101"/>
     <use x="942.195312" xlink:href="#DejaVuSans-32"/>
     <use x="973.982422" xlink:href="#DejaVuSans-84"/>
     <use x="1019.441406" xlink:href="#DejaVuSans-121"/>
     <use x="1078.621094" xlink:href="#DejaVuSans-112"/>
     <use x="1142.097656" xlink:href="#DejaVuSans-101"/>
    </g>
   </g>
  </g>
 </g>
 <defs>
  <clipPath id="p5eaa5b5c22">
   <rect height="554.4" width="837" x="135" y="86.4"/>
  </clipPath>
 </defs>
</svg>
